<?xml version="1.0" encoding="utf-8"?>
<!-- Generator: Adobe Illustrator 20.1.0, SVG Export Plug-In . SVG Version: 6.00 Build 0)  -->
<svg version="1.1" id="レイヤー_1" xmlns="http://www.w3.org/2000/svg" xmlns:xlink="http://www.w3.org/1999/xlink" x="0px"
	 y="0px" width="45.7px" height="160px" viewBox="0 0 45.7 160" style="enable-background:new 0 0 45.7 160;" xml:space="preserve">
<style type="text/css">
	.st0{fill:#FFFFFF;}
	.st1{fill:#D7000E;}
</style>
<g>
	<g>
		<g>
			<path class="st0" d="M0,100.8h1.1v7.2h6.2v-7.2h1.1v16.3H7.2V109H1.1v8.2H0V100.8z"/>
			<path class="st0" d="M20.6,108.8c0,5.3-1.1,8.5-4.5,8.5c-3.3,0-4.5-3.1-4.5-8.5c0-5.4,1.4-8.3,4.5-8.3
				C19.4,100.6,20.6,103.4,20.6,108.8z M12.7,108.8c0,5.2,1.2,7.5,3.4,7.5c2.3,0,3.4-2.4,3.4-7.5c0-5.4-1.2-7.3-3.4-7.3
				C13.9,101.6,12.7,103.9,12.7,108.8z"/>
			<path class="st0" d="M33.5,109.6c0-3.2,0-6.2,0.1-7.8h0c-0.6,2.7-2.5,10.3-3.9,15.4h-1.1c-1.1-4.2-3-12.4-3.7-15.4h0
				c0.1,1.9,0.2,5.6,0.2,8.4v7h-1.1v-16.3h1.6c1.6,5.5,3.2,12.8,3.7,14.8h0c0.3-1.5,2.2-9.5,3.8-14.8h1.6v16.3h-1.1V109.6z"/>
			<path class="st0" d="M45.1,108.9h-5.6v7.2h6.2l-0.2,1h-7.1v-16.3h6.9v1h-5.9v6.1h5.6V108.9z"/>
		</g>
	</g>
	<g>
		<path class="st0" d="M6.3,131.2c-0.1,0.9-0.2,1.9-1,3c-0.3,0.5-0.9,1.1-1.4,1.1c-0.6,0-0.6-0.6-0.6-0.7c0-0.5,0.3-0.7,0.6-0.9
			c0.3-0.2,0.8-0.6,1.4-1.3C5.9,131.8,6.1,131.4,6.3,131.2L6.3,131.2z M6.3,134.9c0.8,0.2,1.5,0.3,1.8,0.3c0.2,0,0.2-0.2,0.2-0.3
			c0-0.4,0.1-1.9,0.1-2.2c0-0.9,0-1.6,0-2.7c-0.8,0.1-2.6,0.3-3.2,0.6c-0.2,0.1-0.3,0.2-0.5,0.2c-0.2,0-0.5-0.3-0.7-0.5
			c-0.6-0.6-0.6-1-0.6-1.2c0-0.2,0-0.4,0.1-0.8c0.6,1.1,1.2,1.1,1.5,1.1c0.2,0,2.9-0.2,3.3-0.2c0-2.1,0-2.1-0.2-2.5
			c-0.2-0.5-0.8-0.7-1.3-0.8c0.6-0.4,0.8-0.4,1-0.4c0.4,0,1.9,0.5,1.9,1.1c0,0.1,0,0.1-0.2,0.5c-0.2,0.4-0.2,0.9-0.2,2.1
			c1-0.1,2.7-0.3,2.8-0.3c0.3-0.1,0.5-0.2,0.7-0.2c0.2,0,0.8,0.3,1,0.4c0.3,0.1,0.5,0.4,0.5,0.7c0,0.2-0.1,0.4-0.3,0.4
			c-0.2,0-0.5-0.1-0.9-0.1c-0.5-0.1-2.1-0.1-2.6-0.1c-0.7,0-1,0-1.2,0c0,1.2,0,1.3,0,1.7c0,0.6,0.1,3.4,0.1,4c0,0.3,0,1.1-0.5,1.7
			c-0.1,0.1-0.2,0.2-0.4,0.2c-0.5,0-0.6-0.4-0.8-1c-0.1-0.3-0.3-0.5-0.7-0.8c-0.1-0.1-0.6-0.6-0.9-0.8L6.3,134.9z M10.6,131.2
			c1,0.4,3.8,1.5,3.8,3.1c0,0.4-0.3,0.8-0.6,0.8c-0.3,0-0.4-0.2-0.8-0.8C12.2,133,11.8,132.4,10.6,131.2L10.6,131.2z"/>
		<path class="st0" d="M24.2,131.1c0.5,0,1.3,0,2.2-0.2c0.2,0,0.7-0.1,0.9-0.1c0.3,0,1.5,0.3,1.5,0.9c0,0.6-0.6,0.6-1.1,0.6
			c-0.2,0-1.7-0.1-2.1-0.1h-4c-1,0-1.9,0.1-2.6,0.2c-0.1,0-0.6,0.1-0.7,0.1c-0.4,0-1.3-1.2-1.3-1.8c0-0.2,0.1-0.5,0.2-0.8
			c0.3,0.7,0.6,1.2,2,1.2H24.2z"/>
		<path class="st0" d="M37.1,130.6c0.8,0.4,1.5,0.9,2.1,1.6c1.6,1.6,1.8,2.4,1.8,3.2c0,0.6-0.3,0.9-0.6,0.9c-0.5,0-0.6-0.4-0.8-1
			c-0.1-0.2-0.4-1-0.6-1.5c-2.1,0.8-5.1,1.4-6.6,1.9c-0.2,0.2-0.3,0.4-0.5,0.4c-0.4,0-1.3-1.2-1.3-2.1c0-0.1,0-0.2,0-0.4
			c0.5,0.5,0.7,0.6,1.3,0.6c0.2,0,0.4,0,0.5,0c1.2-2.5,2.4-5.5,2.4-5.8c0.1-0.4,0.2-0.8,0.2-1c0-0.6-0.3-0.8-1.2-1.2
			c0.4-0.1,0.7-0.2,1-0.2c0.7,0,1.9,0.8,1.9,1.5c0,0.3-0.1,0.3-0.4,0.6c-0.1,0.1-0.2,0.3-0.4,0.7c-0.6,1.4-2.1,3.9-3.1,5.3
			c0.5,0,2.6-0.3,3-0.3c0.5-0.1,2.4-0.4,2.8-0.4C38.1,131.9,37.4,131,37.1,130.6L37.1,130.6z"/>
	</g>
	<g>
		<g>
			<polygon class="st1" points="22,150.6 25.1,150.6 29.1,155.3 25.1,160 22.1,160 26.1,155.3 			"/>
			<polygon class="st1" points="16.1,150.6 19.1,150.6 23.1,155.3 19.1,160 16.1,160 20.1,155.3 			"/>
		</g>
	</g>
</g>
<g>
</g>
<g>
</g>
<g>
</g>
<g>
</g>
<g>
</g>
<g>
</g>
</svg>
