<?xml version="1.0" encoding="utf-8"?>
<!-- Generator: Adobe Illustrator 20.1.0, SVG Export Plug-In . SVG Version: 6.00 Build 0)  -->
<svg version="1.1" id="レイヤー_1" xmlns="http://www.w3.org/2000/svg" xmlns:xlink="http://www.w3.org/1999/xlink" x="0px"
	 y="0px" width="79.7px" height="59.4px" viewBox="0 0 79.7 59.4" style="enable-background:new 0 0 79.7 59.4;"
	 xml:space="preserve">
<style type="text/css">
	.st0{fill:#FFFFFF;}
	.st1{fill:#D7000E;}
</style>
<g>
	<g>
		<path class="st0" d="M8.5,12.2c-0.1,1-0.6,4.6-4.1,4.6C0.2,16.8,0,11.9,0,8.2C0,3.8,1.1,0,4.6,0c3.7,0,3.8,3.7,3.8,4.5H7.3
			C7.3,3.9,7.2,1,4.6,1c-3,0-3.4,4.3-3.4,7.2c0,3.7,0.4,7.6,3.3,7.6c2.4,0,2.9-2.6,3-3.6H8.5z"/>
		<path class="st0" d="M20,8.2c0,5.3-1.1,8.5-4.5,8.5c-3.3,0-4.5-3.1-4.5-8.5C11,2.9,12.4,0,15.5,0C18.8,0,20,2.8,20,8.2z M12.1,8.3
			c0,5.2,1.2,7.5,3.4,7.5c2.3,0,3.4-2.4,3.4-7.5c0-5.4-1.2-7.3-3.4-7.3C13.3,1,12.1,3.3,12.1,8.3z"/>
		<path class="st0" d="M32.9,9c0-3.2,0-6.2,0.1-7.8h0c-0.6,2.7-2.5,10.3-3.9,15.4h-1.1c-1.1-4.2-3-12.4-3.7-15.4h0
			c0.1,1.9,0.2,5.6,0.2,8.4v7h-1.1V0.2h1.6C26.5,5.7,28.1,13,28.6,15h0c0.3-1.5,2.2-9.5,3.8-14.8H34v16.3h-1.1V9z"/>
		<path class="st0" d="M37.9,0.2h3.8c2.5,0,4.1,1.6,4.1,4.4c0,2.7-1.4,4.7-4.4,4.7h-2.4v7.3h-1.1V0.2z M38.9,8.2h2.3
			c2.2,0,3.4-1.2,3.4-3.6c0-1.9-1-3.4-3.1-3.4h-2.6V8.2z"/>
		<path class="st0" d="M49.1,10.7l-1.4,5.9h-1.1l4.1-16.3h1.4l4.2,16.3h-1.2l-1.5-5.9H49.1z M53.4,9.7c-1.2-4.6-1.8-7.3-2-8.4h0
			c-0.2,1.4-1,4.6-1.9,8.4H53.4z"/>
		<path class="st0" d="M59,16.6V0.2h1.5C65.7,13,66.4,14.4,66.6,15h0c-0.1-2.4-0.1-4.8-0.1-7.5V0.2h1.1v16.3h-1.4
			c-5.4-13.3-6-14.7-6.2-15.2h0C60,3.4,60,6.2,60,9.2v7.4H59z"/>
		<path class="st0" d="M74.3,16.6v-6.5c0-0.1,0-0.3-0.1-0.3L70,0.2h1.2c1.2,2.9,3.1,7.2,3.6,8.4c0.6-1.3,2.4-5.7,3.6-8.4h1.2
			l-4.2,9.5c0,0.1-0.1,0.2-0.1,0.3v6.5H74.3z"/>
	</g>
</g>
<g>
	<path class="st0" d="M24.7,29.9c-0.2,0.1-0.6,0.2-1.1,0.7c-0.1,0.1-0.4,0.5-0.5,0.6c-2-0.8-4.1-3-5.3-6l-0.1,0
		c-2.3,3.7-3.4,4.7-7,6.5l-0.1-0.1c2.4-2.1,4.5-4.1,5.8-7c0.1-0.3,0.2-0.5,0.2-0.7l1.6,0.8c0.1,0,0.2,0.1,0.2,0.3
		c0,0.1-0.2,0.2-0.3,0.2C19.3,27.1,21.5,29,24.7,29.9L24.7,29.9z M18.5,28.8c0.1,0,0.2,0.1,0.2,0.2c0,0.1-0.2,0.3-0.4,0.5
		c0,0.7-0.1,1.2-0.1,3.3h1.1l0.6-0.8c0.1-0.1,0.1-0.2,0.2-0.2c0.1,0,0.2,0.1,0.3,0.1l1,0.8c0.1,0.1,0.1,0.1,0.1,0.2
		c0,0.2-0.1,0.2-0.2,0.2h-3.2v3.5h3l0.8-0.8c0.1-0.1,0.1-0.2,0.2-0.2c0.1,0,0.2,0.1,0.3,0.2l1.1,0.8c0,0,0.1,0.1,0.1,0.2
		c0,0.1-0.1,0.2-0.2,0.2H13.3c-0.9,0-1.2,0-1.6,0.1l-0.2-0.6c0.9,0.1,2,0.1,2.1,0.1h0.3c0-1.2,0-2.4,0-3.3c0-0.8-0.1-1.7-0.1-1.9
		c0-0.3-0.1-0.6-0.2-0.8l1.8,0.5c0.1,0,0.1,0,0.1,0.2c0,0.2-0.2,0.3-0.4,0.5C15,33,15,33.4,15,36.6H17c0-0.7,0-4,0-4.6
		c0-2.8-0.2-3.3-0.4-3.7L18.5,28.8z"/>
	<path class="st0" d="M28.5,30c-0.9,0-1.2,0-1.6,0.1l-0.2-0.6c0.9,0.1,2,0.1,2.1,0.1h1.5c-0.2-0.1-0.2-0.2-0.4-0.6
		c-0.3-0.7-0.4-1-0.7-1.5h-1.7c-0.9,0-1.2,0-1.6,0.1l-0.3-0.6c0.9,0.1,2,0.1,2.1,0.1h2.8c0-0.4,0-1.9-0.1-2.2c0-0.3-0.1-0.6-0.2-0.9
		l1.7,0.5c0.1,0,0.2,0.1,0.2,0.2c0,0.2-0.3,0.3-0.5,0.4c-0.1,0.8-0.1,1.6,0,2h0.9c0-0.3,0-1.4-0.1-2.1c0-0.4-0.1-0.7-0.2-1l1.7,0.5
		c0.1,0,0.3,0.1,0.3,0.2c0,0.2-0.3,0.3-0.5,0.4c0,0.1,0,0.2,0,1.1v0.9h0.5c0,0,0.8-1.4,0.8-2.8l1.5,0.7c0.1,0.1,0.2,0.1,0.2,0.2
		c0,0.2-0.3,0.3-0.5,0.3c-0.6,0.7-1.6,1.5-1.6,1.6h2.1l0.8-0.8c0.1-0.1,0.2-0.2,0.3-0.2c0.1,0,0.1,0,0.3,0.2l0.9,0.7
		c0.1,0.1,0.2,0.2,0.2,0.3c0,0.1-0.1,0.2-0.2,0.2h-4.8L35,28c0.1,0.1,0.2,0.2,0.2,0.3c0,0.2-0.4,0.2-0.5,0.2
		c-0.4,0.5-0.9,0.8-1.5,1.2h2.4l0.6-0.7c0.1-0.2,0.2-0.2,0.2-0.2c0.1,0,0.2,0.1,0.3,0.2l0.8,0.7c0.1,0.1,0.2,0.1,0.2,0.2
		c0,0.1-0.1,0.2-0.2,0.2h-4.7v0.1v1h1.9l0.6-0.6c0.1-0.1,0.2-0.2,0.2-0.2c0.1,0,0.1,0,0.3,0.2l0.9,0.6c0.1,0.1,0.2,0.1,0.2,0.2
		c0,0.1-0.1,0.2-0.2,0.2h-3.8l0,1.3h3.5l0.8-0.9c0.2-0.2,0.2-0.2,0.3-0.2c0.1,0,0.2,0.1,0.3,0.2l0.9,0.9c0.1,0.1,0.1,0.1,0.1,0.2
		c0,0.1-0.1,0.2-0.2,0.2h-5.4c0.8,0.9,2.8,2.4,5.8,2.7l0,0.1c-0.4,0.2-1.1,0.6-1.4,1.4c-2-0.7-3.6-2.3-4.6-4.2h0c0,0.5,0,2.5,0,2.9
		c0,0.2,0.1,0.9,0.1,1.1c0,0.5-0.6,0.6-0.9,0.6c-0.5,0-0.5-0.3-0.5-0.5c0-0.1,0-0.4,0-0.5c0-0.9,0.1-2.4,0.1-3.3
		c-1.3,1.8-3.7,3.4-5.9,3.8l0-0.1c2.2-1.2,3.4-2.4,4.7-4h-2.6c-0.9,0-1.2,0-1.6,0.1l-0.2-0.6c0.9,0.1,2,0.1,2.1,0.1h3.6v-1.3H29
		c-0.9,0-1.2,0-1.6,0.1l-0.3-0.6c0.9,0.1,2,0.1,2.1,0.1h2.4V30H28.5z M27.5,24.7c0.9,0.2,2.3,0.6,2.3,1.6c0,0.3-0.2,0.7-0.6,0.7
		c-0.4,0-0.6-0.3-0.9-1.1c-0.2-0.4-0.5-0.8-0.9-1.1L27.5,24.7z M32.8,29.6c0.6-1.1,0.7-1.8,0.8-2.1h-4c1.2,0.5,1.7,0.9,1.7,1.5
		c0,0.2,0,0.4-0.4,0.6H32.8z"/>
	<path class="st0" d="M41.2,27.6c0.2,0.2,0.5,0.9,0.5,1.7c0,0.9-0.5,1.6-1.1,1.6c-0.1,0-0.6,0-0.6-0.7c0-0.2,0-0.3,0.4-0.9
		C40.9,28.7,41.1,28.3,41.2,27.6L41.2,27.6z M43.6,24.5c0.1,0,0.3,0.1,0.3,0.3c0,0.2-0.2,0.3-0.5,0.4c0,2.5,0,6.1,0,8.4
		c0,0.4,0,1.5,0,1.7c0,0.3,0,1.3,0,1.5c0,0.3-0.1,0.9-0.9,0.9c-0.1,0-0.5-0.1-0.5-0.6c0-0.2,0.1-1.3,0.1-1.5c0-0.1,0-1,0-2.2
		c0-0.9,0-4.2,0-5.5c0-2.9-0.1-3.1-0.3-3.8L43.6,24.5z M43.4,27.1c0.5,0,2.1,0.3,2.1,1.4c0,0.5-0.5,0.7-0.7,0.7
		c-0.2,0-0.5-0.1-0.7-0.6c-0.2-0.5-0.4-1-0.7-1.3V27.1z M51.6,29.3l0.6-0.7c0.1-0.1,0.2-0.2,0.2-0.2c0.1,0,0.2,0.1,0.3,0.2l0.8,0.7
		c0.1,0.1,0.2,0.1,0.2,0.2c0,0.1-0.1,0.2-0.2,0.2h-7.1c-0.9,0-1.2,0-1.6,0.1l-0.3-0.6c0.9,0.1,2,0.1,2.1,0.1h1.6c0-0.7,0-1,0-1.4
		h-0.8c-0.9,0-1.2,0-1.6,0.1l-0.2-0.6c0.9,0.1,2,0.1,2.1,0.1h0.5c0-0.4,0-1,0-1.4h-1.4c-0.9,0-1.2,0-1.6,0.1l-0.2-0.6
		c0.9,0.1,2,0.1,2.1,0.1h1.1c0-0.8-0.2-1.2-0.4-1.7l1.8,0.5c0.1,0,0.2,0.1,0.2,0.2c0,0.2-0.2,0.3-0.5,0.4v0.6h2l0.5-0.7
		c0.1-0.1,0.1-0.2,0.2-0.2c0.1,0,0.2,0.1,0.3,0.2l0.9,0.7c0.1,0.1,0.2,0.1,0.2,0.2c0,0.2-0.1,0.2-0.2,0.2h-3.8v1.4h1l0.5-0.6
		c0.1-0.1,0.2-0.2,0.2-0.2c0.1,0,0.2,0.1,0.3,0.2l0.8,0.6c0.1,0.1,0.1,0.1,0.1,0.2c0,0.2-0.1,0.2-0.2,0.2h-2.7v1.4H51.6z M50.8,30.8
		l0.5-0.5c0.1-0.1,0.2-0.2,0.3-0.2s0.2,0.1,0.3,0.2l0.6,0.5c0.1,0.1,0.2,0.2,0.2,0.3c0,0.1-0.2,0.3-0.5,0.5c0,2.4,0,2.8,0,3.2
		c0,0.2,0,1,0,1.2c0,0.7-0.1,1-0.5,1.3c-0.1,0.1-0.6,0.4-1.3,0.6c-0.1-0.6-0.2-0.8-1.2-1.7v-0.1c0.2,0,1.2,0.1,1.4,0.1
		c0.1,0,0.3,0,0.3-0.3c0-0.2,0-0.8,0-1.2h-3.8c0,0.3,0,0.6,0,1c0,0.2,0,1,0,1.2c0,0.3-0.2,0.8-0.8,0.8c-0.2,0-0.6,0-0.6-0.5
		c0-0.1,0.1-0.7,0.1-0.8c0-0.2,0.1-3.2,0.1-4.7c0-0.2,0-0.5-0.1-0.8c0-0.2-0.1-0.5-0.1-0.7l1.4,0.6H50.8z M47.2,31.2v1.3H51v-1.3
		H47.2z M47.2,32.9v1.4H51v-1.4H47.2z"/>
	<path class="st0" d="M60.3,28.1l0.5-0.6c0.1-0.1,0.1-0.2,0.2-0.2s0.2,0.1,0.3,0.2l0.7,0.6c0.1,0.1,0.2,0.1,0.2,0.2
		c0,0.2-0.1,0.2-0.2,0.2h-2.2l1.3,0.7c0.1,0,0.2,0.1,0.2,0.2c0,0.1-0.1,0.2-0.5,0.2c-0.5,0.6-1.2,1.4-1.5,1.7h1.3l0.4-0.6
		c0.1-0.1,0.1-0.2,0.2-0.2c0.1,0,0.2,0.1,0.3,0.2l0.7,0.6c0.1,0.1,0.1,0.1,0.1,0.2c0,0.1-0.1,0.2-0.2,0.2h-2.8c0,0.3,0,1.9,0,2.2
		h0.7l0.5-0.6c0.1-0.1,0.2-0.2,0.2-0.2s0.2,0.1,0.3,0.2l0.8,0.6c0.1,0.1,0.2,0.1,0.2,0.2c0,0.1-0.1,0.2-0.2,0.2h-2.4
		c0,0.9,0,1.8,0,2.8c0,0.5-0.3,0.8-0.8,0.8c-0.5,0-0.5-0.3-0.5-0.5c0-0.4,0.1-2.3,0.1-3H57c-0.9,0-1.2,0-1.6,0.1l-0.2-0.6
		c0.9,0.1,2,0.1,2.1,0.1H58v-2.2h-1.3c-0.9,0-1.2,0-1.6,0.1l-0.2-0.6c0.9,0.1,2,0.1,2.1,0.1h1.7c0.3-0.7,0.7-1.9,0.7-2.6
		c0,0,0-0.2,0-0.3h-2.5c-0.9,0-1.2,0-1.6,0.1L55,28.1c0.9,0.1,2,0.1,2.1,0.1H58v-1.6h-0.6c-0.9,0-1.2,0-1.6,0.1l-0.2-0.6
		c0.9,0.1,2,0.1,2.1,0.1H58c0-0.3,0-1.5-0.3-2.1l1.7,0.4c0.2,0,0.3,0.1,0.3,0.3c0,0.2-0.2,0.3-0.5,0.5v1h0.6l0.5-0.6
		c0.1-0.1,0.2-0.2,0.2-0.2c0.1,0,0.2,0.1,0.3,0.2l0.7,0.6c0.1,0.1,0.2,0.1,0.2,0.2c0,0.1-0.1,0.2-0.2,0.2h-2.2c0,0.2,0,1.1,0,1.6
		H60.3z M56.6,28.7c0.3,0.1,0.9,0.4,1.4,0.9c0.2,0.1,0.4,0.4,0.4,0.8c0,0.6-0.5,0.7-0.7,0.7c-0.3,0-0.5-0.2-0.6-0.8
		C56.9,29.6,56.8,29.5,56.6,28.7L56.6,28.7z M66.1,29.9l0.5-0.5c0.1-0.1,0.2-0.2,0.3-0.2s0.2,0.1,0.3,0.1l0.8,0.6
		c0.1,0.1,0.2,0.1,0.2,0.3c0,0.2-0.3,0.3-0.6,0.6c-0.5,1.7-0.9,2.9-1.3,3.5c1,1.2,2.1,1.5,2.6,1.7v0c-0.6,0.2-1.2,0.6-1.4,1.2
		c-0.4-0.3-1.1-0.8-1.8-2c-0.4,0.4-0.9,1.1-2,1.7c0,0.5-0.4,0.8-0.9,0.8c-0.4,0-0.5-0.3-0.5-0.5c0-0.2,0.1-0.6,0.1-0.8
		c0-0.3,0.1-1.3,0.1-1.6c0-1.5,0-3.8,0-4.9c0-1,0-4.3-0.1-5.1c0-0.2-0.1-0.4-0.1-0.6l1.5,0.7h2.2l0.5-0.4c0.1-0.1,0.2-0.1,0.3-0.1
		c0.1,0,0.2,0.1,0.3,0.1l0.7,0.5c0.1,0.1,0.2,0.1,0.2,0.3s-0.3,0.3-0.6,0.5c0,0.3,0,1.9,0,2.2c-0.1,0.7-0.9,1.2-1.4,1.3
		c0-0.1,0-0.2-0.1-0.3c-0.1-0.4-0.6-0.8-1.2-1.2v-0.1c0.4,0,1,0,1.1,0c0.3,0,0.5,0,0.5-0.2v-2.1h-2.4c0,0.8,0,1.3,0,2.5
		c0,0.7,0,1.9,0,2.2H66.1z M63.5,30.2c0,0.2,0,0.3,0,0.6c0,1.9,0,3.9,0.1,5.8c0.8-0.9,1.4-1.7,1.6-2.2c-0.3-0.7-0.9-2-1-4.2H63.5z
		 M64.4,30.2c0.3,1.4,0.8,2.4,1.2,3.2c0.3-1,0.6-2.3,0.8-3.2H64.4z"/>
</g>
<g>
	<g>
		<polygon class="st1" points="39,50 42.1,50 46.1,54.7 42.1,59.4 39.1,59.4 43.1,54.7 		"/>
		<polygon class="st1" points="33.1,50 36.1,50 40.1,54.7 36.1,59.4 33.1,59.4 37.1,54.7 		"/>
	</g>
</g>
<g>
</g>
<g>
</g>
<g>
</g>
<g>
</g>
<g>
</g>
<g>
</g>
</svg>
