<?xml version="1.0" encoding="utf-8"?>
<!-- Generator: Adobe Illustrator 20.1.0, SVG Export Plug-In . SVG Version: 6.00 Build 0)  -->
<svg version="1.1" id="レイヤー_1" xmlns="http://www.w3.org/2000/svg" xmlns:xlink="http://www.w3.org/1999/xlink" x="0px"
	 y="0px" width="66.5px" height="59.4px" viewBox="0 0 66.5 59.4" style="enable-background:new 0 0 66.5 59.4;"
	 xml:space="preserve">
<style type="text/css">
	.st0{fill:#FFFFFF;}
	.st1{fill:#D7000E;}
</style>
<g>
	<g>
		<path class="st0" d="M1.1,12.5c0.1,1.9,1.1,3.3,3.1,3.3c1.9,0,3-1,3-3.3c0-1.9-0.7-3-3-4.1C1.7,7.3,0.5,6.2,0.5,3.8
			c0-2,1.3-3.8,3.8-3.8C7.1,0,7.9,2.1,8,3.9H6.9C6.8,3.2,6.6,1,4.2,1C2.4,1,1.6,2.3,1.6,3.7c0,1.8,0.8,2.7,2.9,3.7
			c2.8,1.4,3.7,2.8,3.7,5c0,2.6-1.4,4.3-4.1,4.3c-3,0-4-2-4.2-4.3H1.1z"/>
		<path class="st0" d="M17.9,8.4h-5.6v7.2h6.2l-0.2,1h-7.1V0.2h6.9v1h-5.9v6.1h5.6V8.4z"/>
		<path class="st0" d="M22.4,8.7v7.9h-1.1V0.2h3.8c2.6,0,3.9,1.6,3.9,4.1s-1.2,3.6-2.2,3.9c1.7,0.5,2,2,2,4.2V13
			c0,1.3,0,2.6,0.2,3.5H28c-0.2-0.7-0.2-2.3-0.2-3.6v-0.5c0-2.4-0.5-3.8-2.9-3.8H22.4z M22.4,7.7h2.5c2.1,0,2.9-1.4,2.9-3.4
			c0-1.8-0.8-3.1-2.8-3.1h-2.6V7.7z"/>
		<path class="st0" d="M35.1,16.6l-4-16.3h1.2l2,8.3c0.6,2.4,1.3,5.5,1.5,6.9h0c0.2-1.2,1.1-4.6,1.7-7l2.1-8.3h1.1l-4.3,16.3H35.1z"
			/>
		<path class="st0" d="M44.5,0.2v16.3h-1.1V0.2H44.5z"/>
		<path class="st0" d="M56.3,12.2c-0.1,1-0.6,4.6-4.1,4.6c-4.2,0-4.4-4.9-4.4-8.6c0-4.4,1.1-8.2,4.6-8.2c3.7,0,3.8,3.7,3.8,4.5h-1.1
			C55.1,3.9,55,1,52.4,1c-3,0-3.4,4.3-3.4,7.2c0,3.7,0.4,7.6,3.3,7.6c2.4,0,2.9-2.6,3-3.6H56.3z"/>
		<path class="st0" d="M65.9,8.4h-5.6v7.2h6.2l-0.2,1h-7.1V0.2h6.9v1h-5.9v6.1h5.6V8.4z"/>
	</g>
</g>
<g>
	<path class="st0" d="M14.4,27l0.4-0.4c0.1-0.1,0.2-0.2,0.3-0.2s0.2,0.1,0.3,0.1l0.6,0.5c0.1,0.1,0.2,0.1,0.2,0.3
		c0,0.1-0.3,0.3-0.4,0.4c0,0.5,0,1.1,0,1.4c0,0.3-0.5,0.6-0.8,0.6c-0.5,0-0.4-0.4-0.4-0.6v-0.1h-2.7c0,0.2,0,1.2,0,1.4h2.6l0.5-0.5
		c0.1-0.1,0.2-0.2,0.3-0.2s0.2,0.1,0.3,0.1l0.6,0.5c0.1,0.1,0.2,0.2,0.2,0.3c0,0.1-0.1,0.2-0.4,0.4c0,0.9,0,1,0,1.2h0.4l0.7-0.8
		c0.1-0.1,0.2-0.2,0.2-0.2c0.1,0,0.2,0.1,0.3,0.2l0.8,0.8c0.1,0.1,0.2,0.1,0.2,0.3c0,0.1-0.1,0.2-0.2,0.2h-2.4c0,0.4,0,0.7,0,0.9
		c0,0.2,0.1,1,0.1,1.1c0,0.5-0.5,0.7-0.9,0.7c-0.5,0-0.5-0.3-0.5-0.9h-2.7c0,0.4,0,1,0,1.3c0,1.6-1.3,2-1.9,2.1
		c-0.2-0.9-0.7-1.4-1.9-1.9l0-0.1c0.3,0,1.3,0.1,1.9,0.1c0.3,0,0.6-0.1,0.6-0.4c0-0.3,0-0.7,0-1.2H7.8c-0.9,0-1.2,0-1.6,0.1L6,34.1
		c0.9,0.1,2,0.1,2.1,0.1h2.5l0-1.5H6.2c-0.9,0-1.2,0-1.6,0.1l-0.2-0.6c0.9,0.1,2,0.1,2.1,0.1h4.2v-1.5h-3c-0.9,0-1.2,0-1.6,0.1
		l-0.2-0.6c0.9,0.1,2,0.1,2.1,0.1h2.7v-1.4H8v0.1v0.3C8,29.7,7.6,30,7.2,30c-0.3,0-0.5-0.2-0.5-0.4c0,0,0-0.1,0-0.2
		c0-0.1,0.1-0.6,0.1-1.1c0-1.3,0-1.5-0.1-1.9L8.1,27h2.5v-1.1h-4c-0.9,0-1.2,0-1.6,0.1l-0.2-0.6c0.9,0.1,2,0.1,2.1,0.1h3.7
		c0-0.3-0.1-1.1-0.3-1.8l1.8,0.6c0.1,0,0.3,0.1,0.3,0.2c0,0.2-0.4,0.3-0.6,0.4c0,0.1,0,0.5,0,0.6h3.4l0.6-0.8
		c0.1-0.1,0.1-0.2,0.2-0.2c0.1,0,0.2,0.1,0.3,0.2l1,0.8c0.1,0.1,0.2,0.1,0.2,0.2c0,0.1-0.1,0.2-0.2,0.2h-5.5c0,0.7,0,0.9,0,1.1H14.4
		z M10.7,28.8l0-1.4H8v1.4H10.7z M11.8,27.4c0,0.4,0,0.8,0,1.4h2.7v-1.4H11.8z M11.8,30.9l0,1.5h2.8v-1.5H11.8z M11.8,32.8l0,1.5
		h2.7v-1.5H11.8z"/>
	<path class="st0" d="M22.6,30c-0.9,0-1.2,0-1.6,0.1l-0.2-0.6c0.9,0.1,2,0.1,2.1,0.1h1.5c-0.2-0.1-0.2-0.2-0.4-0.6
		c-0.3-0.7-0.4-1-0.7-1.5h-1.7c-0.9,0-1.2,0-1.6,0.1l-0.3-0.6c0.9,0.1,2,0.1,2.1,0.1h2.8c0-0.4,0-1.9-0.1-2.2c0-0.3-0.1-0.6-0.2-0.9
		l1.7,0.5c0.1,0,0.2,0.1,0.2,0.2c0,0.2-0.3,0.3-0.5,0.4c-0.1,0.8-0.1,1.6,0,2h0.9c0-0.3,0-1.4-0.1-2.1c0-0.4-0.1-0.7-0.2-1l1.7,0.4
		c0.1,0,0.3,0.1,0.3,0.2c0,0.2-0.3,0.3-0.5,0.4c0,0.1,0,0.2,0,1.1v0.9h0.5c0,0,0.8-1.4,0.8-2.8l1.5,0.7c0.1,0.1,0.2,0.1,0.2,0.2
		c0,0.2-0.3,0.3-0.5,0.3c-0.6,0.7-1.6,1.5-1.6,1.6h2.1l0.8-0.8c0.1-0.1,0.2-0.2,0.3-0.2c0.1,0,0.1,0,0.3,0.2l0.9,0.7
		c0.1,0.1,0.2,0.2,0.2,0.3c0,0.1-0.1,0.2-0.2,0.2h-4.8l0.8,0.5c0.1,0.1,0.2,0.2,0.2,0.3c0,0.2-0.4,0.2-0.5,0.2
		c-0.4,0.5-0.9,0.8-1.5,1.2h2.4l0.6-0.7c0.1-0.2,0.2-0.2,0.2-0.2c0.1,0,0.2,0.1,0.3,0.2l0.8,0.7c0.1,0.1,0.2,0.1,0.2,0.2
		c0,0.1-0.1,0.2-0.2,0.2h-4.7v0.1v1.1h1.9l0.6-0.6c0.1-0.1,0.2-0.2,0.2-0.2c0.1,0,0.1,0,0.3,0.2l0.9,0.6c0.1,0.1,0.2,0.1,0.2,0.2
		c0,0.2-0.1,0.2-0.2,0.2h-3.8l0,1.3h3.5l0.8-0.9c0.2-0.2,0.2-0.2,0.3-0.2c0.1,0,0.2,0.1,0.3,0.2l0.9,0.9c0.1,0.1,0.1,0.1,0.1,0.2
		c0,0.1-0.1,0.2-0.2,0.2h-5.4c0.8,0.9,2.8,2.4,5.8,2.7l0,0.1c-0.4,0.2-1.1,0.6-1.4,1.4c-2-0.7-3.6-2.3-4.6-4.2h0c0,0.5,0,2.5,0,2.9
		c0,0.2,0.1,0.9,0.1,1.1c0,0.5-0.6,0.6-0.9,0.6c-0.5,0-0.5-0.3-0.5-0.5c0-0.1,0-0.4,0-0.5c0-0.9,0.1-2.4,0.1-3.3
		c-1.3,1.8-3.7,3.4-5.9,3.8l0-0.1c2.2-1.2,3.4-2.4,4.7-4h-2.6c-0.9,0-1.2,0-1.6,0.1L20,32.8c0.9,0.1,2,0.1,2.1,0.1h3.6v-1.3h-2.7
		c-0.9,0-1.2,0-1.6,0.1l-0.3-0.6c0.9,0.1,2,0.1,2.1,0.1h2.4V30H22.6z M21.6,24.7c0.9,0.2,2.3,0.6,2.3,1.6c0,0.3-0.2,0.7-0.6,0.7
		c-0.4,0-0.6-0.3-0.9-1.1c-0.2-0.4-0.5-0.8-0.9-1.1L21.6,24.7z M26.9,29.6c0.6-1.1,0.7-1.8,0.8-2.1h-4c1.2,0.5,1.7,0.9,1.7,1.5
		c0,0.2,0,0.4-0.4,0.6H26.9z"/>
	<path class="st0" d="M36.6,27.4c0,1,0,2.2,0,3.7c0,0.9,0,5,0,5.8c0,0.5-0.5,0.7-1,0.7c-0.4,0-0.5-0.3-0.5-0.7
		c0-0.3,0.1-1.9,0.1-2.4c0-1,0.1-3.9,0.1-4.7c0-1.6,0-2.7-0.2-3.7l1.6,0.9h3.6c0-0.2,0-0.5,0-1c0-1.2-0.1-1.7-0.3-2.2l1.8,0.5
		c0.1,0,0.2,0.1,0.2,0.2c0,0.2-0.2,0.3-0.5,0.4c0,0.2,0,0.4,0,0.7c0,0.6-0.1,1.1-0.1,1.3h3.7l0.5-0.5c0.1-0.1,0.2-0.2,0.3-0.2
		c0.1,0,0.2,0.1,0.3,0.2l0.7,0.6c0.1,0.1,0.2,0.2,0.2,0.3c0,0.2-0.3,0.3-0.5,0.4c0,0.3,0,0.7,0,1.3c0,1,0.1,5.1,0.1,6
		c0,1.5,0,2.1-1.9,2.6c-0.2-0.7-0.4-1.2-1.9-1.8l0-0.1c0.3,0,1.5,0.1,1.7,0.1c0.7,0,0.8,0,0.8-0.4c0-0.6,0-3.5,0-4l0-3.8v-0.2h-3.9
		c-0.2,1.2-0.3,1.8-0.5,2.4c2.4,0.6,3.7,2.2,3.7,3c0,0.2-0.1,0.8-0.7,0.8c-0.5,0-0.6-0.3-1.1-1.3c-0.2-0.4-0.8-1.6-1.9-2.3
		c-0.1,0.4-0.4,1-0.8,1.6c-1.2,1.8-3,2.2-3.6,2.4l0-0.1c2.5-1.7,3.4-3,3.6-6.4H36.6z"/>
	<path class="st0" d="M57.6,32.9l0.4-0.4c0.1-0.1,0.2-0.2,0.3-0.2c0.1,0,0.2,0.1,0.3,0.2l0.5,0.4c0.1,0.1,0.2,0.2,0.2,0.3
		c0,0.2-0.3,0.4-0.4,0.5c0,0.9,0.1,1.7,0.2,2.8c0,0.2,0,0.4,0,0.4c0,0.3,0,0.8-0.8,0.8c-0.4,0-0.5-0.4-0.5-0.7h-4.7V37
		c0,0.6-0.3,0.8-0.7,0.8c-0.3,0-0.6-0.1-0.6-0.4c0-0.2,0-0.4,0-0.6c0-0.2,0.1-1.8,0.1-2.7c0-0.6,0-0.7-0.1-1.4
		c-0.4,0.2-2.1,1.3-3.1,1.6l0-0.1c2.1-1.2,4.5-3.5,5.8-5.4c0.2-0.3,0.2-0.5,0.3-0.7l1.4,0.8c0.1,0.1,0.3,0.2,0.3,0.3
		c0,0.1-0.1,0.3-0.3,0.3c1.4,1.3,3.6,2.5,6.5,2.7v0.1c-0.9,0.4-1.3,1.2-1.4,1.4c-2.5-0.9-4.9-3.3-5.4-4.2c-0.6,0.8-2,2.1-3.4,2.8
		l1,0.6H57.6z M60.1,25.9l0.4-0.4c0.1-0.1,0.2-0.2,0.3-0.2s0.2,0.1,0.3,0.2l1,0.9c0.1,0.1,0.2,0.2,0.2,0.4c0,0.2-0.2,0.4-0.6,0.4
		c-0.1,0-0.3,0-0.5,0c-0.5,0.1-1.3,0.5-1.5,0.7l-0.1-0.1c0.1-0.1,0.5-1.3,0.6-1.5h-8.9c0,0.9-0.5,2.1-1.4,2.1
		c-0.5,0-0.7-0.3-0.7-0.6c0-0.4,0.4-0.7,0.8-1c0.9-0.6,1.1-1.2,1.2-1.5h0.1c0,0.3,0,0.4,0,0.7h3.8c-0.1-1-0.1-1.1-0.3-1.9l1.7,0.4
		c0.1,0,0.2,0.1,0.2,0.2c0,0.2-0.3,0.3-0.5,0.5c0,0.1,0,0.5,0,0.7H60.1z M54.5,27.6c0.1,0.1,0.1,0.1,0.1,0.2c0,0.2-0.1,0.2-0.7,0.3
		c-1.4,1.6-2.5,2.1-4.2,2.8l0-0.1c1.3-0.9,2.8-2.8,3.2-3.3c0.2-0.3,0.3-0.5,0.3-0.7L54.5,27.6z M53.2,33.2v3.4h4.7v-3.4H53.2z
		 M57,27.2c1.6,0.5,1.8,0.5,2.4,0.9c0.9,0.6,1,1,1,1.3c0,0.4-0.2,0.7-0.7,0.7c-0.4,0-0.5-0.1-1-0.9c-0.1-0.1-0.7-0.9-1-1.2
		C57.5,27.7,57.2,27.4,57,27.2L57,27.2z"/>
</g>
<g>
	<g>
		<polygon class="st1" points="33,50 36,50 40,54.7 36,59.4 33,59.4 37,54.7 		"/>
		<polygon class="st1" points="27,50 30,50 34,54.7 30,59.4 27,59.4 31,54.7 		"/>
	</g>
</g>
<g>
</g>
<g>
</g>
<g>
</g>
<g>
</g>
<g>
</g>
<g>
</g>
</svg>
