<?xml version="1.0" encoding="utf-8"?>
<!-- Generator: Adobe Illustrator 20.1.0, SVG Export Plug-In . SVG Version: 6.00 Build 0)  -->
<svg version="1.1" id="レイヤー_1" xmlns="http://www.w3.org/2000/svg" xmlns:xlink="http://www.w3.org/1999/xlink" x="0px"
	 y="0px" width="205.5px" height="59.4px" viewBox="0 0 205.5 59.4" style="enable-background:new 0 0 205.5 59.4;"
	 xml:space="preserve">
<style type="text/css">
	.st0{fill:#FFFFFF;}
	.st1{fill:#D7000E;}
</style>
<g>
	<g>
		<path class="st0" d="M0,16.6V0.2h1.5C6.7,13,7.4,14.4,7.6,15h0c-0.1-2.4-0.1-4.8-0.1-7.5V0.2h1.1v16.3H7.1
			C1.7,3.3,1.1,1.9,0.9,1.3h0C1,3.4,1.1,6.2,1.1,9.2v7.4H0z"/>
		<path class="st0" d="M19,8.4h-5.6v7.2h6.2l-0.2,1h-7.1V0.2h6.9v1h-5.9v6.1H19V8.4z"/>
		<path class="st0" d="M24.9,16.6L21.6,0.2h1.1c1.4,7.1,2.6,13.1,2.8,14.9h0c0.2-1.7,2.2-10.8,3-14.9h1.2c0.8,4.1,2.9,13.3,3,14.8h0
			c0.3-2.5,2.3-10.7,3.1-14.8H37l-3.6,16.3h-1.3c-0.8-3.9-2.7-12.8-3-14.8h0c-0.3,2.3-2.2,10.8-3,14.8H24.9z"/>
		<path class="st0" d="M39.9,12.5c0.1,1.9,1.1,3.3,3.1,3.3c1.9,0,3-1,3-3.3c0-1.9-0.7-3-3-4.1c-2.4-1.2-3.6-2.3-3.6-4.6
			c0-2,1.3-3.8,3.8-3.8c2.8,0,3.6,2.1,3.7,3.9h-1.1C45.6,3.2,45.4,1,43,1c-1.8,0-2.6,1.3-2.6,2.7c0,1.8,0.8,2.7,2.9,3.7
			c2.8,1.4,3.7,2.8,3.7,5c0,2.6-1.4,4.3-4.1,4.3c-3,0-4-2-4.2-4.3H39.9z"/>
		<path class="st0" d="M56.8,10.7l-1.4,5.9h-1.1l4.1-16.3h1.4l4.2,16.3h-1.2l-1.5-5.9H56.8z M61.1,9.7c-1.2-4.6-1.8-7.3-2-8.4h0
			c-0.2,1.4-1,4.6-1.9,8.4H61.1z"/>
		<path class="st0" d="M66.7,16.6V0.2h1.5C73.4,13,74,14.4,74.3,15h0c-0.1-2.4-0.1-4.8-0.1-7.5V0.2h1.1v16.3h-1.4
			c-5.4-13.3-6-14.7-6.2-15.2h0c0.1,2.1,0.1,4.9,0.1,7.9v7.4H66.7z"/>
		<path class="st0" d="M79.1,0.2h3.2c3.5,0,5.2,2.6,5.2,7.7c0,5.6-1.5,8.7-5.5,8.7h-3V0.2z M80.1,15.6h1.8c3.4,0,4.5-2.8,4.5-7.6
			c0-4.7-1.4-6.8-4.4-6.8h-1.8V15.6z"/>
		<path class="st0" d="M97.5,0.2v16.3h-1.1V0.2H97.5z"/>
		<path class="st0" d="M101.3,16.6V0.2h1.5c5.3,12.7,5.9,14.2,6.1,14.8h0c-0.1-2.4-0.1-4.8-0.1-7.5V0.2h1.1v16.3h-1.4
			c-5.4-13.3-6-14.7-6.2-15.2h0c0.1,2.1,0.1,4.9,0.1,7.9v7.4H101.3z"/>
		<path class="st0" d="M113.7,0.2h7v1h-5.9v6.2h5.5v1h-5.5v8.1h-1.1V0.2z"/>
		<path class="st0" d="M131.8,8.2c0,5.3-1.1,8.5-4.5,8.5c-3.3,0-4.5-3.1-4.5-8.5c0-5.4,1.4-8.3,4.5-8.3C130.6,0,131.8,2.8,131.8,8.2
			z M124,8.3c0,5.2,1.2,7.5,3.4,7.5c2.3,0,3.4-2.4,3.4-7.5c0-5.4-1.2-7.3-3.4-7.3C125.2,1,124,3.3,124,8.3z"/>
		<path class="st0" d="M136.2,8.7v7.9h-1.1V0.2h3.8c2.6,0,3.9,1.6,3.9,4.1s-1.2,3.6-2.2,3.9c1.7,0.5,2,2,2,4.2V13
			c0,1.3,0,2.6,0.2,3.5h-1.1c-0.2-0.7-0.2-2.3-0.2-3.6v-0.5c0-2.4-0.5-3.8-2.9-3.8H136.2z M136.2,7.7h2.5c2.1,0,2.9-1.4,2.9-3.4
			c0-1.8-0.8-3.1-2.8-3.1h-2.6V7.7z"/>
		<path class="st0" d="M155.8,9c0-3.2,0-6.2,0.1-7.8h0c-0.6,2.7-2.5,10.3-3.9,15.4h-1.1c-1.1-4.2-3-12.4-3.7-15.4h0
			c0.1,1.9,0.2,5.6,0.2,8.4v7h-1.1V0.2h1.6c1.6,5.5,3.2,12.8,3.7,14.8h0c0.3-1.5,2.2-9.5,3.8-14.8h1.6v16.3h-1.1V9z"/>
		<path class="st0" d="M162.2,10.7l-1.4,5.9h-1.1l4.1-16.3h1.4l4.2,16.3h-1.2l-1.5-5.9H162.2z M166.5,9.7c-1.2-4.6-1.8-7.3-2-8.4h0
			c-0.2,1.4-1,4.6-1.9,8.4H166.5z"/>
		<path class="st0" d="M173,1.2h-3.7v-1h8.6v1H174v15.3H173V1.2z"/>
		<path class="st0" d="M181.3,0.2v16.3h-1.1V0.2H181.3z"/>
		<path class="st0" d="M193.6,8.2c0,5.3-1.1,8.5-4.5,8.5c-3.3,0-4.5-3.1-4.5-8.5c0-5.4,1.4-8.3,4.5-8.3C192.4,0,193.6,2.8,193.6,8.2
			z M185.8,8.3c0,5.2,1.2,7.5,3.4,7.5c2.3,0,3.4-2.4,3.4-7.5c0-5.4-1.2-7.3-3.4-7.3C187,1,185.8,3.3,185.8,8.3z"/>
		<path class="st0" d="M197,16.6V0.2h1.5c5.3,12.7,5.9,14.2,6.1,14.8h0c-0.1-2.4-0.1-4.8-0.1-7.5V0.2h1.1v16.3h-1.4
			c-5.4-13.3-6-14.7-6.2-15.2h0c0.1,2.1,0.1,4.9,0.1,7.9v7.4H197z"/>
	</g>
</g>
<g>
	<path class="st0" d="M78.9,32.2l0.7-0.6c0.1-0.1,0.2-0.2,0.3-0.2c0.1,0,0.2,0.1,0.3,0.1l0.8,0.6c0.1,0.1,0.2,0.1,0.2,0.2
		c0,0.2-0.1,0.2-0.2,0.2h-2.8v0.7c1,0.1,2.1,0.6,2.1,1.5c0,0.5-0.4,0.7-0.6,0.7c-0.4,0-0.6-0.5-0.6-0.7c-0.2-0.4-0.4-1.1-0.8-1.4
		c0,1,0,1.5,0,1.7c0,0.3,0.1,1.7,0.1,2.1c0,0.4-0.4,0.5-0.8,0.5c-0.2,0-0.6-0.1-0.6-0.5c0-0.4,0.2-2.3,0.2-3.6
		c-1.1,1.6-2.4,2.4-3.4,2.9l-0.1-0.1c1-0.9,1.8-2,2.4-2.9c0.2-0.4,0.4-0.8,0.6-1H76c-0.9,0-1.2,0-1.6,0.1l-0.3-0.6
		c0.9,0.1,2,0.1,2.1,0.1H77c0-1.3,0-1.5-0.2-2.2h-1c-0.9,0-1.2,0-1.6,0.1L74,29.6c0.9,0.1,2,0.1,2.1,0.1h1.8c0.5-1,0.8-2.1,0.8-3.2
		h-2.3c-0.9,0-1.2,0-1.6,0.1L74.5,26c0.9,0.1,2,0.1,2.1,0.1h0.6c0-0.8,0-1.3-0.3-2.1l1.7,0.4c0.1,0,0.2,0.1,0.2,0.2
		c0,0.2-0.3,0.3-0.5,0.4c0,0.2,0,0.9,0,1H79l0.6-0.7c0.1-0.1,0.2-0.2,0.2-0.2s0.2,0.1,0.3,0.2l0.8,0.7c0.1,0.1,0.2,0.2,0.2,0.3
		c0,0.1-0.1,0.2-0.2,0.2h-2.1l1.4,0.8c0.1,0.1,0.2,0.1,0.2,0.3c0,0.2-0.2,0.2-0.6,0.3c-0.3,0.4-0.9,1.1-1.7,1.8h1.2l0.5-0.6
		c0.1-0.1,0.2-0.2,0.2-0.2c0.1,0,0.2,0.1,0.3,0.1l0.7,0.6c0.1,0.1,0.2,0.1,0.2,0.2c0,0.1-0.1,0.2-0.2,0.2h-3.9l1.4,0.4
		c0.1,0,0.2,0.1,0.2,0.2c0,0.2-0.4,0.4-0.5,0.5c0,0.2,0,1,0,1.2H78.9z M75.7,26.7c0.9,0.5,1.8,1.1,1.8,1.9c0,0.3-0.2,0.8-0.6,0.8
		c-0.7,0-0.8-0.7-0.8-0.9c0-0.5-0.1-0.8-0.5-1.6L75.7,26.7z M85.3,29.2l0.7-0.8c0.1-0.1,0.2-0.2,0.2-0.2s0.2,0.1,0.3,0.1l1,0.8
		c0.1,0.1,0.2,0.1,0.2,0.2c0,0.2-0.1,0.2-0.2,0.2h-2.1c0,2.5,0,4.7,0.1,5.9c0,0.4,0,1.1,0,1.7c0,0.3-0.5,0.6-0.9,0.6
		c-0.4,0-0.5-0.2-0.5-0.4c0-0.4,0.1-1.8,0.1-2.1c0-0.5,0-3.7,0-5.7h-1.4c0,0.5-0.1,1.5-0.2,2.8c-0.2,1.3-0.7,3.3-3.4,5l-0.1-0.1
		c1.9-1.9,2.6-3.7,2.6-8.9c0-0.9,0-3-0.3-3.7l1.5,0.7c0.9-0.3,1.7-0.7,2.1-0.9c0.3-0.2,0.4-0.3,0.5-0.5l1.2,1.1
		c0.1,0.1,0.1,0.2,0.1,0.3c0,0.2-0.2,0.2-0.3,0.2c-0.1,0-0.2,0-0.6-0.1c-1.1,0.3-2.5,0.4-3.1,0.3c0,1.2,0,2.4,0,3.5H85.3z"/>
	<path class="st0" d="M96.3,28.3h1.9l0.6-0.8c0.1-0.1,0.1-0.2,0.2-0.2s0.2,0.1,0.3,0.2l0.9,0.8c0.1,0.1,0.1,0.1,0.1,0.2
		c0,0.2-0.1,0.2-0.2,0.2h-3.8v1.5h3.6l0.7-0.8c0.1-0.1,0.2-0.2,0.2-0.2c0.1,0,0.2,0.1,0.3,0.1l0.9,0.8c0.1,0.1,0.2,0.1,0.2,0.2
		c0,0.2-0.1,0.2-0.2,0.2h-7.6c-0.2,0.5-0.3,0.6-0.5,0.9l0.8,0.3h3.9l0.5-0.5c0.1-0.1,0.2-0.2,0.3-0.2c0.1,0,0.2,0.1,0.3,0.1l0.6,0.5
		c0.1,0.1,0.2,0.2,0.2,0.3c0,0.2-0.4,0.4-0.6,0.5c0,1.2,0,1.7,0,1.9c0,0.4,0.1,2.5,0.1,2.9c0,0.4-0.5,0.6-0.8,0.6
		c-0.4,0-0.5-0.2-0.5-0.7v-0.1h-4.3v0.1c0,0.3,0,0.7-0.7,0.7c-0.5,0-0.6-0.1-0.6-0.4c0-0.1,0-0.7,0-0.8c0-1.2,0.1-3.1,0.1-4.3
		c-0.5,0.7-1.2,1.8-2.5,2.8c-0.9,0.7-1.5,1-2,1.2l-0.1-0.1c1.9-1.6,3.1-3.4,4.2-5.8h-2c-0.9,0-1.2,0-1.6,0.1L89,30.1
		c0.9,0.1,2,0.1,2.1,0.1h4v-1.5h-2.4c-0.9,0-1.2,0-1.6,0.1l-0.2-0.6c0.9,0.1,2,0.1,2.1,0.1h2.1v-1.4h-3.5c-0.9,0-1.2,0-1.6,0.1
		l-0.2-0.6c0.9,0.1,2,0.1,2.1,0.1h4.4c0.3-0.4,0.9-1.6,0.9-2.7l1.5,0.8c0.1,0,0.2,0.1,0.2,0.3c0,0.2-0.2,0.2-0.5,0.3
		c-0.6,0.5-1,0.8-1.7,1.3h3l0.5-0.8c0.1-0.1,0.1-0.2,0.2-0.2c0.1,0,0.2,0.1,0.3,0.1l0.9,0.7c0.1,0.1,0.2,0.2,0.2,0.3
		c0,0.1-0.1,0.2-0.2,0.2h-5.3V28.3z M92.5,24.1c1.3,0.1,2.5,0.8,2.5,1.7c0,0.5-0.4,0.7-0.7,0.7c-0.4,0-0.5-0.2-0.9-1
		c-0.4-0.8-0.7-1.1-1-1.3V24.1z M94.5,32.1v1.2h4.3v-1.2H94.5z M94.5,33.7v1.2h4.3v-1.2H94.5z M94.5,35.3v1.5h4.3v-1.5H94.5z"/>
	<path class="st0" d="M105,27.6c0.1,0.2,0.5,0.9,0.5,1.7c0,0.9-0.5,1.6-1.1,1.6c-0.1,0-0.6,0-0.6-0.7c0-0.2,0-0.3,0.4-0.9
		C104.8,28.7,104.9,28.3,105,27.6L105,27.6z M107.4,24.5c0.1,0,0.3,0.1,0.3,0.3c0,0.2-0.2,0.3-0.5,0.4c0,2.5,0,6.1,0,8.4
		c0,0.4,0,1.5,0,1.7c0,0.3,0,1.3,0,1.5c0,0.3-0.1,0.9-0.9,0.9c-0.1,0-0.5-0.1-0.5-0.6c0-0.2,0.1-1.3,0.1-1.5c0-0.1,0-1,0-2.2
		c0-0.9,0-4.2,0-5.5c0-2.8-0.1-3.1-0.3-3.8L107.4,24.5z M107.2,27.1c0.5,0,2.1,0.3,2.1,1.4c0,0.5-0.5,0.7-0.7,0.7
		c-0.2,0-0.5-0.1-0.7-0.6c-0.2-0.5-0.4-1-0.7-1.3V27.1z M115.4,29.3l0.6-0.7c0.1-0.1,0.2-0.2,0.2-0.2c0.1,0,0.2,0.1,0.3,0.2l0.8,0.7
		c0.1,0.1,0.2,0.1,0.2,0.2c0,0.1-0.1,0.2-0.2,0.2h-7.1c-0.9,0-1.2,0-1.6,0.1l-0.3-0.6c0.9,0.1,2,0.1,2.1,0.1h1.6c0-0.7,0-1,0-1.4
		h-0.8c-0.9,0-1.2,0-1.6,0.1l-0.2-0.6c0.9,0.1,2,0.1,2.1,0.1h0.5c0-0.4,0-1,0-1.4h-1.4c-0.9,0-1.2,0-1.6,0.1l-0.2-0.6
		c0.9,0.1,2,0.1,2.1,0.1h1.1c0-0.8-0.2-1.2-0.4-1.7l1.8,0.5c0.1,0,0.2,0.1,0.2,0.2c0,0.2-0.2,0.3-0.5,0.4v0.6h2l0.5-0.7
		c0.1-0.1,0.1-0.2,0.2-0.2c0.1,0,0.2,0.1,0.3,0.2l0.9,0.7c0.1,0.1,0.2,0.1,0.2,0.2c0,0.2-0.1,0.2-0.2,0.2h-3.8v1.4h1l0.5-0.6
		c0.1-0.1,0.2-0.2,0.2-0.2c0.1,0,0.2,0.1,0.3,0.2l0.8,0.6c0.1,0.1,0.1,0.1,0.1,0.2c0,0.1-0.1,0.2-0.2,0.2h-2.7v1.4H115.4z
		 M114.6,30.8l0.5-0.5c0.1-0.1,0.2-0.2,0.3-0.2s0.2,0.1,0.3,0.2l0.6,0.5c0.1,0.1,0.2,0.2,0.2,0.3s-0.2,0.3-0.5,0.4
		c0,2.4,0,2.8,0,3.2c0,0.2,0,1,0,1.2c0,0.7-0.1,1-0.5,1.3c-0.1,0.1-0.6,0.4-1.3,0.6c-0.1-0.6-0.2-0.8-1.2-1.7v-0.1
		c0.2,0,1.2,0.1,1.4,0.1c0.1,0,0.3,0,0.3-0.3c0-0.2,0-0.8,0-1.2H111c0,0.3,0,0.6,0,1c0,0.2,0,1,0,1.2c0,0.3-0.2,0.8-0.8,0.8
		c-0.2,0-0.6,0-0.6-0.5c0-0.1,0.1-0.7,0.1-0.8c0-0.2,0.1-3.2,0.1-4.7c0-0.2,0-0.5-0.1-0.8c0-0.2-0.1-0.5-0.1-0.7l1.4,0.6H114.6z
		 M111,31.2v1.3h3.8v-1.3H111z M111,32.9v1.4h3.8v-1.4H111z"/>
	<path class="st0" d="M124.1,28.1l0.5-0.6c0.1-0.1,0.1-0.2,0.2-0.2s0.2,0.1,0.3,0.2l0.7,0.6c0.1,0.1,0.2,0.1,0.2,0.2
		c0,0.1-0.1,0.2-0.2,0.2h-2.2l1.3,0.7c0.1,0,0.2,0.1,0.2,0.2c0,0.1-0.1,0.2-0.5,0.2c-0.5,0.6-1.2,1.4-1.5,1.7h1.3l0.4-0.6
		c0.1-0.1,0.1-0.2,0.2-0.2c0.1,0,0.2,0.1,0.3,0.2l0.7,0.6c0.1,0.1,0.1,0.1,0.1,0.2c0,0.2-0.1,0.2-0.2,0.2H123c0,0.3,0,1.9,0,2.2h0.7
		l0.5-0.6c0.1-0.1,0.2-0.2,0.2-0.2s0.2,0.1,0.3,0.2l0.8,0.6c0.1,0.1,0.2,0.1,0.2,0.2c0,0.1-0.1,0.2-0.2,0.2H123c0,0.9,0,1.8,0,2.8
		c0,0.5-0.3,0.8-0.8,0.8c-0.5,0-0.5-0.3-0.5-0.5c0-0.4,0.1-2.3,0.1-3h-1.1c-0.9,0-1.2,0-1.6,0.1l-0.2-0.6c0.9,0.1,2,0.1,2.1,0.1h0.8
		v-2.2h-1.3c-0.9,0-1.2,0-1.6,0.1l-0.2-0.6c0.9,0.1,2,0.1,2.1,0.1h1.7c0.3-0.7,0.7-1.9,0.7-2.6c0,0,0-0.2,0-0.3h-2.5
		c-0.9,0-1.2,0-1.6,0.1l-0.2-0.6c0.9,0.1,2,0.1,2.1,0.1h0.9v-1.6h-0.6c-0.9,0-1.2,0-1.6,0.1l-0.2-0.6c0.9,0.1,2,0.1,2.1,0.1h0.3
		c0-0.3,0-1.5-0.3-2.1l1.7,0.4c0.2,0,0.3,0.1,0.3,0.3c0,0.2-0.2,0.3-0.5,0.5v1h0.6l0.5-0.6c0.1-0.1,0.2-0.2,0.2-0.2
		c0.1,0,0.2,0.1,0.3,0.2l0.7,0.6c0.1,0.1,0.2,0.1,0.2,0.2c0,0.2-0.1,0.2-0.2,0.2H123c0,0.2,0,1.1,0,1.6H124.1z M120.4,28.7
		c0.3,0.1,0.9,0.4,1.4,0.9c0.2,0.2,0.4,0.4,0.4,0.8c0,0.6-0.5,0.7-0.7,0.7c-0.3,0-0.5-0.2-0.6-0.8C120.7,29.6,120.7,29.5,120.4,28.7
		L120.4,28.7z M129.9,29.9l0.5-0.5c0.1-0.1,0.2-0.1,0.3-0.1s0.2,0.1,0.3,0.1l0.8,0.6c0.1,0.1,0.2,0.1,0.2,0.3c0,0.2-0.3,0.3-0.6,0.6
		c-0.5,1.7-0.9,2.9-1.3,3.5c1,1.2,2.1,1.5,2.6,1.7v0c-0.6,0.2-1.2,0.6-1.4,1.2c-0.4-0.3-1.1-0.8-1.8-2c-0.4,0.4-0.9,1-2,1.7
		c0,0.5-0.4,0.8-0.9,0.8c-0.4,0-0.5-0.3-0.5-0.5c0-0.2,0.1-0.6,0.1-0.8c0-0.3,0.1-1.3,0.1-1.6c0-1.5,0-3.8,0-4.9c0-1,0-4.3-0.1-5.1
		c0-0.2-0.1-0.4-0.1-0.6l1.5,0.7h2.2l0.5-0.4c0.1-0.1,0.2-0.1,0.3-0.1c0.1,0,0.2,0.1,0.3,0.1l0.7,0.5c0.1,0.1,0.2,0.1,0.2,0.3
		c0,0.1-0.3,0.3-0.6,0.5c0,0.3,0,1.9,0,2.2c-0.1,0.7-0.9,1.2-1.4,1.3c0-0.1,0-0.2-0.1-0.3c-0.1-0.4-0.6-0.8-1.2-1.2v-0.1
		c0.4,0,1,0,1.1,0c0.3,0,0.5,0,0.5-0.2v-2.1h-2.4c0,0.8,0,1.3,0,2.5c0,0.7,0,1.9,0,2.2H129.9z M127.3,30.2c0,0.2,0,0.3,0,0.6
		c0,1.9,0,3.9,0.1,5.8c0.8-0.9,1.4-1.7,1.6-2.2c-0.3-0.7-0.9-2-1-4.2H127.3z M128.2,30.2c0.3,1.4,0.8,2.4,1.2,3.1
		c0.3-1,0.6-2.3,0.8-3.1H128.2z"/>
</g>
<g>
	<g>
		<polygon class="st1" points="102.6,50 105.6,50 109.6,54.7 105.6,59.4 102.6,59.4 106.6,54.7 		"/>
		<polygon class="st1" points="96.6,50 99.6,50 103.6,54.7 99.6,59.4 96.6,59.4 100.6,54.7 		"/>
	</g>
</g>
<g>
</g>
<g>
</g>
<g>
</g>
<g>
</g>
<g>
</g>
<g>
</g>
</svg>
