<?xml version="1.0" encoding="utf-8"?>
<!-- Generator: Adobe Illustrator 20.1.0, SVG Export Plug-In . SVG Version: 6.00 Build 0)  -->
<svg version="1.1" id="レイヤー_1" xmlns="http://www.w3.org/2000/svg" xmlns:xlink="http://www.w3.org/1999/xlink" x="0px"
	 y="0px" width="73px" height="59.4px" viewBox="0 0 73 59.4" style="enable-background:new 0 0 73 59.4;" xml:space="preserve">
<style type="text/css">
	.st0{fill:#FFFFFF;}
	.st1{fill:#D7000E;}
</style>
<g>
	<g>
		<path class="st0" d="M8.5,12.2c-0.1,1-0.6,4.6-4.1,4.6C0.2,16.8,0,11.9,0,8.2C0,3.8,1.1,0,4.6,0c3.7,0,3.8,3.7,3.8,4.5H7.3
			C7.3,3.9,7.2,1,4.6,1c-3,0-3.4,4.3-3.4,7.2c0,3.7,0.4,7.6,3.3,7.6c2.4,0,2.9-2.6,3-3.6H8.5z"/>
		<path class="st0" d="M20,8.2c0,5.3-1.1,8.5-4.5,8.5c-3.3,0-4.5-3.1-4.5-8.5C11,2.9,12.4,0,15.5,0C18.8,0,20,2.8,20,8.2z M12.1,8.3
			c0,5.2,1.2,7.5,3.4,7.5c2.3,0,3.4-2.4,3.4-7.5c0-5.4-1.2-7.3-3.4-7.3C13.3,1,12.1,3.3,12.1,8.3z"/>
		<path class="st0" d="M23.3,16.6V0.2h1.5C30.1,13,30.7,14.4,30.9,15h0c-0.1-2.4-0.1-4.8-0.1-7.5V0.2h1.1v16.3h-1.4
			C25,3.3,24.4,1.9,24.2,1.3h0c0.1,2.1,0.1,4.9,0.1,7.9v7.4H23.3z"/>
		<path class="st0" d="M38.1,1.2h-3.7v-1H43v1h-3.7v15.3h-1.1V1.2z"/>
		<path class="st0" d="M45.4,10.7l-1.4,5.9h-1.1l4.1-16.3h1.4l4.2,16.3h-1.2l-1.5-5.9H45.4z M49.6,9.7c-1.2-4.6-1.8-7.3-2-8.4h0
			c-0.2,1.4-1,4.6-1.9,8.4H49.6z"/>
		<path class="st0" d="M62.8,12.2c-0.1,1-0.6,4.6-4.1,4.6c-4.2,0-4.4-4.9-4.4-8.6c0-4.4,1.1-8.2,4.6-8.2c3.7,0,3.8,3.7,3.8,4.5h-1.1
			c0-0.6-0.2-3.5-2.8-3.5c-3,0-3.4,4.3-3.4,7.2c0,3.7,0.4,7.6,3.3,7.6c2.4,0,2.9-2.6,3-3.6H62.8z"/>
		<path class="st0" d="M68.2,1.2h-3.7v-1H73v1h-3.7v15.3h-1.1V1.2z"/>
	</g>
</g>
<g>
	<path class="st0" d="M14.1,33.8c0.3,0.5,0.9,1.3,2.2,1.3c1.5,0,2.1-1,2.1-2c0-1.8-1.8-1.9-2.2-1.9c-1.3,0-2.5,0.4-3.6,1.1
		c0,0.5,0.2,2.8,0.2,3c0,1.1-0.6,1.7-0.9,1.7c-0.2,0-0.3-0.1-0.6-0.6c-0.4-0.5-0.5-0.7-1-1.2c-0.2-0.2-0.2-0.2-0.4-0.3
		c-0.2,0.2-0.4,0.6-0.6,0.9C9.4,35.9,9.3,36,9.1,36s-0.5-0.1-0.8-0.3C8,35.4,8,35,8,34.7C8,34.4,8,34.2,8.1,34
		c0.3,0.3,0.4,0.5,0.6,0.5c0.1,0,0.2-0.1,0.6-0.4c0.4-0.3,1.5-1.2,2.4-1.8c0-1,0-1.4,0-2.7c-0.3,0.1-0.8,0.3-1.3,0.3
		c-1.4,0-1.5-1-1.5-1.3c0.5,0.3,0.7,0.4,1.1,0.4c0.3,0,0.8,0,1.8-0.4c0-0.3,0-1.6,0-1.9c0-0.5,0-1-0.5-1.2c-0.1-0.1-0.5-0.3-0.6-0.3
		c0.3-0.3,0.7-0.4,1-0.4c0.4,0,1.6,0.4,1.6,0.9c0,0.1,0,0.2-0.3,0.9c-0.1,0.4-0.3,1.4-0.3,1.6c0.1-0.1,0.5-0.2,0.8-0.4
		c0.4-0.3,0.5-0.4,0.8-0.4c0.4,0,0.7,0.3,0.7,0.5c0,0.3-0.3,0.5-0.5,0.6c-0.5,0.2-1.3,0.5-1.9,0.8c-0.1,1.2,0,2.2,0,2.5
		c1.5-0.9,3.3-1.2,4.3-1.2c1.4,0,2.9,0.8,2.9,2.7c0,1.5-1.2,2.9-3,2.9c-1.2,0-1.8-0.5-2.2-1C14.3,34.6,14.2,34.2,14.1,33.8
		L14.1,33.8z M10.1,34.8c0.7,0.3,1.3,0.5,1.5,0.5c0.2,0,0.2-0.1,0.2-0.5c0-0.4,0-1.3-0.1-1.9C10.9,33.7,10.5,34.2,10.1,34.8z
		 M17,29.3c0.1-0.1,0.8-0.5,0.9-0.6c0.2-0.1,0.3-0.3,0.3-0.5c0-0.2-0.2-0.5-0.6-0.7c-0.5-0.3-1.1-0.4-1.5-0.4
		c0.2-0.1,0.5-0.3,1.2-0.3c1.5,0,2.6,1.1,2.6,2.2c0,0.1,0,0.6-0.6,0.6c-0.2,0-0.3,0-0.8-0.3C18.4,29.1,17.3,29.3,17,29.3L17,29.3z"
		/>
	<path class="st0" d="M26.2,25l0.4-0.4c0.1-0.1,0.1-0.2,0.3-0.2c0,0,0.1,0,0.2,0.1l0.7,0.7c0.1,0.1,0.2,0.2,0.2,0.3
		c0,0.2-0.2,0.3-0.4,0.4c0,0.5,0,0.9,0,1.5c0,0.4,0.1,2,0.1,2.4c0,0.4-0.6,0.6-0.9,0.6c-0.1,0-0.4-0.1-0.4-0.3c0-0.1,0-0.4,0-0.5
		h-2.4c0,0.9,0,5.1,0,5.9c0,0.9,0,1.4,0,1.7c0,0.5-0.6,0.6-0.8,0.6c-0.6,0-0.5-0.6-0.5-0.9c0-0.2,0.1-1.6,0.1-2.1c0-0.8,0-3.2,0-5.3
		v-3.9c0-0.3-0.1-0.6-0.1-0.8c0-0.2-0.1-0.4-0.1-0.5l1.6,0.7H26.2z M23.9,27.4l0,1.9h2.4v-1.9H23.9z M23.9,25.4v1.7h2.4v-1.7H23.9z
		 M29.3,31.4l0.4-0.4c0.1-0.1,0.2-0.2,0.3-0.2c0.1,0,0.2,0.1,0.3,0.2l0.6,0.4c0.1,0.1,0.2,0.2,0.2,0.3s-0.2,0.2-0.4,0.4
		c0,0.4,0,0.9,0,1.6c0,0.2,0,1.2,0,1.4c0,0.6-0.7,0.6-0.8,0.6c-0.2,0-0.5,0-0.5-0.4c0-0.1,0-0.4,0-0.5h-2.7c0,0.1,0,0.3,0,0.4
		c0,0.5-0.4,0.7-0.8,0.7c-0.3,0-0.4-0.2-0.4-0.4c0-0.2,0.1-1.7,0.1-2.5c0-1-0.1-1.6-0.1-2.3l1.5,0.7H29.3z M26.8,31.8v2.7h2.7v-2.7
		H26.8z M32.6,25.1l0.6-0.5c0.1-0.1,0.2-0.2,0.3-0.2c0.1,0,0.1,0.1,0.2,0.1l0.7,0.7c0.1,0.1,0.2,0.2,0.2,0.3c0,0.2-0.3,0.4-0.5,0.6
		c0,6,0,6.7,0,10c0,0.6-0.1,0.9-0.5,1.2c-0.1,0.1-0.5,0.4-1.3,0.5c-0.1-0.2-0.1-0.7-0.4-0.8c-0.6-0.5-0.8-0.7-1-0.8V36
		c0.3,0,0.7,0.1,1.2,0.1c0.5,0,0.8,0,0.8-0.5v-6h-2.6c0.1,0.6-0.5,0.7-0.8,0.7c-0.3,0-0.4-0.2-0.4-0.4c0-0.4,0.1-2.2,0.1-2.6
		c0-0.6,0-2.5-0.2-3l1.6,0.7H32.6z M30.4,25.4v1.6h2.6v-1.6H30.4z M30.4,27.4v1.9h2.6v-1.9H30.4z"/>
	<path class="st0" d="M50.2,29.5c-0.6,0.3-1,0.6-1.5,1.4c-2.6-1.2-4.6-3.4-5.4-5.5c-0.5,0.9-1.3,2-2.9,3.4c-0.8,0.7-2.6,2.1-4.5,2.7
		l0-0.1c2.7-1.8,4.7-4.1,5.9-6.2c0.3-0.6,0.4-0.9,0.4-1.1l1.4,0.6c0.2,0.1,0.3,0.1,0.3,0.3c0,0.2-0.2,0.3-0.3,0.4
		c1,1.5,3.3,3.5,6.7,4.2V29.5z M45.5,32.3l0.5-0.6c0.1-0.1,0.2-0.2,0.3-0.2c0.1,0,0.2,0.1,0.3,0.1l0.7,0.6c0.1,0.1,0.3,0.2,0.3,0.3
		c0,0.2-0.4,0.4-0.6,0.5c0,1.1,0,2.8,0,3.3c0,0.3,0,0.5,0,0.7c0,0.5-0.8,0.7-1,0.7c-0.5,0-0.4-0.4-0.4-0.6v-0.1h-5.2
		c0,0.3,0,0.8-1,0.8c-0.2,0-0.5,0-0.5-0.4c0-0.2,0.1-0.8,0.1-1.1c0-0.4,0.1-1.3,0.1-2.5c0-1.2,0-1.9-0.1-2.2l1.5,0.9H45.5z M44.3,30
		l0.5-0.7c0.1-0.1,0.2-0.2,0.2-0.2c0.1,0,0.2,0.1,0.3,0.2l0.9,0.7c0.1,0.1,0.2,0.1,0.2,0.2c0,0.1-0.1,0.2-0.2,0.2h-4.6
		c-0.9,0-1.2,0-1.6,0.1l-0.2-0.6c0.9,0.1,2,0.1,2.1,0.1H44.3z M40.5,32.7v3.8h5.2v-3.8H40.5z"/>
	<path class="st0" d="M57.6,31.9c0.7,0.2,1.3,0.3,1.8,0.3c0.3,0,0.4,0,0.6-0.7c0.2-0.6,0.2-1.8,0.2-1.9c-1.2,0.2-2.5,0.4-3.6,0.8
		c0,1.2,0,3.3,0.2,3.9c0.3,1.2,1.3,1.2,2,1.2c1.4,0,2.2-0.1,3-0.3c0.2,0,0.3,0,0.4,0c1,0,1,0.7,1,0.8c0,0.2-0.2,0.3-0.4,0.4
		c-0.4,0.2-1.8,0.2-2.2,0.2c-4.8,0-5.1-1.2-5.1-5.8c-0.3,0.1-1.8,0.7-2.2,1c-0.1,0.1-0.3,0.2-0.5,0.2c-0.5,0-1.2-0.8-1.2-1.5
		c0-0.2,0.1-0.4,0.1-0.6c0.4,0.5,0.6,0.7,1.1,0.7c0.3,0,0.8-0.1,0.9-0.1c0.3-0.1,1.5-0.4,1.8-0.5c0-2.2-0.2-2.3-1.1-2.7
		c0.2-0.2,0.4-0.3,0.9-0.3c0.7,0,1.3,0.5,1.4,0.6c0.2,0.2,0.2,0.3,0.2,0.4c0,0.1,0,0.2,0,0.4c-0.1,0.3-0.1,0.6-0.2,1.4
		c1.3-0.3,3-0.6,3.6-0.8c0-0.6,0-2.2-0.2-2.7c-0.1-0.3-0.5-0.6-1.2-0.8c0.4-0.5,1.2-0.5,1.2-0.5c0.7,0,1.2,0.5,1.3,0.7
		c0.1,0.1,0.1,0.3,0.1,0.4c0,0-0.1,0.5-0.1,0.6c0,0.3-0.1,1.8-0.1,2.1c1.1-0.2,1.2-0.2,1.6-0.4c0.2-0.1,0.5-0.1,0.9-0.1
		c1,0,1.4,0.5,1.4,0.8c0,0.5-0.5,0.5-0.9,0.5c-0.2,0-0.8-0.1-1-0.1c-0.9,0-1.7,0.1-2,0.1c-0.1,0.9-0.2,2.7-0.5,3.4
		c-0.1,0.2-0.4,0.9-1,0.9c-0.4,0-0.4-0.1-0.7-0.6C58.7,32.7,58.4,32.5,57.6,31.9L57.6,31.9z"/>
</g>
<g>
	<g>
		<polygon class="st1" points="35.7,50 38.7,50 42.7,54.7 38.7,59.4 35.7,59.4 39.7,54.7 		"/>
		<polygon class="st1" points="29.7,50 32.8,50 36.8,54.7 32.8,59.4 29.8,59.4 33.8,54.7 		"/>
	</g>
</g>
<g>
</g>
<g>
</g>
<g>
</g>
<g>
</g>
<g>
</g>
<g>
</g>
</svg>
