<?xml version="1.0" encoding="utf-8"?>
<!-- Generator: Adobe Illustrator 21.1.0, SVG Export Plug-In . SVG Version: 6.00 Build 0)  -->
<svg version="1.1" id="レイヤー_1" xmlns="http://www.w3.org/2000/svg" xmlns:xlink="http://www.w3.org/1999/xlink" x="0px"
	 y="0px" viewBox="0 0 66.5 59.4" style="enable-background:new 0 0 66.5 59.4;" xml:space="preserve">
<style type="text/css">
	.st0{fill:#FFFFFF;}
	.st1{fill:#D7000E;}
</style>
<g>
	<path class="st0" d="M37.1,21.8v9h-1.3V12.1h4.3c3,0,4.5,1.8,4.5,4.7s-1.4,4.1-2.5,4.5c1.9,0.6,2.3,2.3,2.3,4.8v0.7
		c0,1.5,0,3,0.2,4h-1.1c-0.2-0.8-0.2-2.6-0.2-4.1v-0.6c0-2.7-0.6-4.3-3.3-4.3h-2.9V21.8z M37.1,20.7H40c2.4,0,3.3-1.6,3.3-3.9
		c0-2.1-0.9-3.5-3.2-3.5h-3V20.7z"/>
	<path class="st0" d="M27.9,30.9l-4.6-18.6h1.4l2.3,9.5c0.7,2.7,1.5,6.3,1.7,7.9l0,0c0.2-1.4,1.3-5.3,1.9-8l2.4-9.5h1.3l-4.9,18.6
		h-1.5V30.9z"/>
</g>
<g>
	<g>
		<polygon class="st1" points="33,50 36,50 40,54.7 36,59.4 33,59.4 37,54.7 		"/>
		<polygon class="st1" points="27,50 30,50 34,54.7 30,59.4 27,59.4 31,54.7 		"/>
	</g>
</g>
</svg>
