<?xml version="1.0" encoding="utf-8"?>
<!-- Generator: Adobe Illustrator 21.1.0, SVG Export Plug-In . SVG Version: 6.00 Build 0)  -->
<svg version="1.1" id="レイヤー_1" xmlns="http://www.w3.org/2000/svg" xmlns:xlink="http://www.w3.org/1999/xlink" x="0px"
	 y="0px" viewBox="0 0 66.5 59.4" style="enable-background:new 0 0 66.5 59.4;" xml:space="preserve">
<style type="text/css">
	.st0{fill:#FFFFFF;}
	.st1{fill:#D7000E;}
</style>
<g>
	<path class="st0" d="M35.9,28.6v7.9h-1.1V20.1h3.8c2.6,0,3.9,1.6,3.9,4.1s-1.2,3.6-2.2,3.9c1.7,0.5,2,2,2,4.2v0.6
		c0,1.3,0,2.6,0.2,3.5h-1c-0.2-0.7-0.2-2.3-0.2-3.6v-0.5c0-2.4-0.5-3.8-2.9-3.8h-2.5V28.6z M35.9,27.6h2.5c2.1,0,2.9-1.4,2.9-3.4
		c0-1.8-0.8-3.1-2.8-3.1h-2.6V27.6z"/>
	<path class="st0" d="M27.8,36.5l-4-16.3H25l2,8.3c0.6,2.4,1.3,5.5,1.5,6.9l0,0c0.2-1.2,1.1-4.6,1.7-7l2.1-8.3h1.1l-4.3,16.3h-1.3
		V36.5z"/>
</g>
<g>
	<g>
		<polygon class="st1" points="33,50 36,50 40,54.7 36,59.4 33,59.4 37,54.7 		"/>
		<polygon class="st1" points="27,50 30,50 34,54.7 30,59.4 27,59.4 31,54.7 		"/>
	</g>
</g>
</svg>
