<?xml version="1.0" encoding="utf-8"?>
<!-- Generator: Adobe Illustrator 20.1.0, SVG Export Plug-In . SVG Version: 6.00 Build 0)  -->
<svg version="1.1" id="レイヤー_1" xmlns="http://www.w3.org/2000/svg" xmlns:xlink="http://www.w3.org/1999/xlink" x="0px"
	 y="0px" width="420px" height="150px" viewBox="0 0 420 150" style="enable-background:new 0 0 420 150;" xml:space="preserve">
<style type="text/css">
	.st0{fill:#D7000E;}
	.st1{fill:#FFFFFF;}
</style>
<g>
	<g>
		<g>
			<polygon class="st0" points="213.5,128.5 213.5,132.9 206.5,138.8 199.6,132.9 199.6,128.5 206.5,134.4 			"/>
			<polygon class="st0" points="213.5,119.6 213.5,124.1 206.5,130.1 199.6,124.1 199.6,119.6 206.5,125.6 			"/>
		</g>
	</g>
	<g>
		<g>
			<g>
				<path class="st1" d="M55.9,26.2c0,1.2,0.1,3.6,0.2,4.5H52c-0.1-0.5-0.2-1.5-0.2-2.2c-0.8,1.5-2.4,2.6-5.1,2.6
					c-4.2,0-5.9-3.4-5.9-6.5c0-4.4,3-7.3,8.7-7.3c0.8,0,1.4,0,2,0.1v-2.6c0-1.4-0.3-3.2-2.7-3.2c-2.5,0-2.8,1.7-2.9,3.2h-4.2
					c0.1-3.2,1.6-6.7,7.3-6.7c4.6,0,6.9,2.2,6.9,6.3V26.2z M51.6,20.7c-0.5-0.1-1-0.1-1.9-0.1c-3.2,0-4.5,1.6-4.5,3.6
					c0,1.6,0.8,3.2,2.9,3.2c2.8,0,3.5-2.1,3.5-5.8V20.7z"/>
				<path class="st1" d="M61.6,15.2c0-4.2,0-5.7,0-6.7h4.3C66,9,66,10.2,66,11c1-1.8,2.6-2.9,4.9-2.9c2.4,0,3.8,1.1,4.5,3.1
					c0.9-1.6,2.5-3.1,5.4-3.1c3,0,5.5,1.5,5.5,6.6v16H82V15.4c0-1.9-0.6-3.5-2.6-3.5c-2.3,0-3.1,1.9-3.1,4.7v14h-4.5V15.5
					c0-2.3-0.7-3.5-2.6-3.5c-2.2,0-3.2,1.8-3.2,4.9v13.8h-4.4V15.2z"/>
				<path class="st1" d="M107.6,19.4c0,8-2.9,11.7-8.2,11.7s-8.1-3.6-8.1-11.7c0-7.8,3.2-11.4,8.3-11.4
					C104.8,8.1,107.6,12,107.6,19.4z M95.9,19.5c0,5.2,1,7.9,3.6,7.9c2.5,0,3.5-2.7,3.5-7.8c0-5.2-1-7.6-3.5-7.6
					C97.1,11.9,95.9,14.3,95.9,19.5z"/>
				<path class="st1" d="M112.5,16c0-3.6,0-5.9,0-7.5h4.3c0,0.4,0.1,1.4,0.1,3.8c0.9-2.6,2.9-4.1,5.8-4.1v5c-3.7,0-5.7,1.5-5.7,5.7
					v11.9h-4.5V16z"/>
				<path class="st1" d="M126.9,38.8V14.9c0-3,0-5.1,0-6.4h4.3c0.1,0.5,0.1,1.7,0.1,2.6c0.7-1.6,2.1-3,5.1-3c4.1,0,6.5,3.6,6.5,11.1
					c0,8.4-2.9,11.9-7.1,11.9c-2.4,0-3.7-1.1-4.4-2.3v10H126.9z M134.7,12c-2.9,0-3.5,2.7-3.5,7.4c0,5.1,0.3,7.9,3.5,7.9
					c2.5,0,3.7-2.8,3.7-7.8C138.3,14.1,137.1,12,134.7,12z"/>
				<path class="st1" d="M152.3,0v10.8c0.8-1.6,2.3-2.7,5.1-2.7c3.5,0,5.6,2.2,5.6,6.9v15.7h-4.5V15.9c0-2.4-0.5-3.9-2.9-3.9
					c-2.5,0-3.3,2-3.3,5.3v13.5h-4.4V0H152.3z"/>
				<path class="st1" d="M171.3,8.5c1.9,7.9,3.5,14.1,3.8,16.7h0c0.5-3,2.2-9.8,3.8-16.7h4.5l-6.4,23.2c-1.9,6.8-4.1,7.3-7.2,7.3
					c-0.6,0-1.3,0-1.9-0.2v-3.8c0.3,0,1,0.1,1.6,0.1c2.1,0,2.7-1.2,3.4-4.1l-6.6-22.5H171.3z"/>
				<path class="st1" d="M207.4,10.7v8.4h8.1v1.8h-8.1v8.6h-1.8v-8.6h-8.1v-1.8h8.1v-8.4H207.4z"/>
				<path class="st1" d="M232.4,23.3c0.2,3.4,1.9,6,5.5,6c3.4,0,5.3-1.7,5.3-5.9c0-3.5-1.3-5.3-5.5-7.3c-4.3-2.1-6.4-4.1-6.4-8.3
					c0-3.6,2.3-6.9,6.8-6.9c5.1,0,6.5,3.8,6.6,7h-1.9c-0.1-1.3-0.6-5.3-4.8-5.3c-3.3,0-4.7,2.3-4.7,4.9c0,3.3,1.4,4.8,5.3,6.7
					c5.1,2.5,6.7,5,6.7,9c0,4.7-2.5,7.8-7.4,7.8c-5.4,0-7.2-3.5-7.5-7.7H232.4z"/>
				<path class="st1" d="M266.2,15.7c0,9.6-2,15.4-8.1,15.4c-5.9,0-8-5.5-8-15.2c0-9.7,2.5-14.9,8.1-14.9
					C264.1,0.9,266.2,5.9,266.2,15.7z M252.1,15.8c0,9.3,2.1,13.6,6.1,13.6c4.1,0,6-4.3,6-13.5c0-9.7-2.2-13.2-6.1-13.2
					C254.3,2.7,252.1,6.8,252.1,15.8z"/>
				<path class="st1" d="M272.4,1.3h1.9v27.6h10.8l-0.4,1.8h-12.3V1.3z"/>
				<path class="st1" d="M291,1.3v20.9c0,3.8,1.2,7.2,5.5,7.2c4.4,0,5.5-2.9,5.5-7.2V1.3h1.9v20.9c0,5.4-1.9,8.9-7.5,8.9
					c-5.4,0-7.3-3.3-7.3-8.6V1.3H291z"/>
				<path class="st1" d="M315.2,3.1h-6.7V1.3h15.4v1.8h-6.7v27.6h-1.9V3.1z"/>
				<path class="st1" d="M330.5,1.3v29.4h-1.9V1.3H330.5z"/>
				<path class="st1" d="M352.8,15.7c0,9.6-2,15.4-8.1,15.4c-5.9,0-8-5.5-8-15.2c0-9.7,2.5-14.9,8.1-14.9
					C350.6,0.9,352.8,5.9,352.8,15.7z M338.7,15.8c0,9.3,2.1,13.6,6.1,13.6c4.1,0,6-4.3,6-13.5c0-9.7-2.2-13.2-6.1-13.2
					C340.8,2.7,338.7,6.8,338.7,15.8z"/>
				<path class="st1" d="M359,30.7V1.3h2.7c9.5,22.9,10.6,25.5,11,26.7h0c-0.2-4.2-0.3-8.7-0.3-13.5V1.3h1.9v29.4h-2.6
					c-9.8-23.9-10.8-26.4-11.1-27.4h0c0.2,3.7,0.3,8.9,0.3,14.2v13.3H359z"/>
			</g>
		</g>
		<g>
			<path class="st1" d="M32.8,58.7l0-0.5c-0.1-1.6-0.1-3.4-0.1-5.4c1.3,0.1,2,0.3,2,0.6c0,0.2-0.3,0.3-0.8,0.5c0,1.5,0,2.9,0.1,4
				v0.8l3.4-0.5l0.7-1.3c0.2,0.2,0.6,0.5,1.1,0.9l0.3,0.3l-0.2,0.4L34,59.1c0.2,2.4,0.4,4.2,0.7,5.5c0.9-1.3,1.7-2.8,2.4-4.7
				c1,0.5,1.5,0.9,1.5,1.1c0,0.2-0.3,0.3-0.8,0.3c-0.8,1.7-1.7,3.1-2.7,4.3c0.4,0.9,1,1.8,1.7,2.6c0.3,0.3,0.5,0.4,0.6,0.4
				c0.3,0,0.6-1.3,0.9-3.8l0.5,0.3c-0.1,1.6-0.2,2.6-0.2,3.2c0,0.8,0.2,1.2,0.6,1.3c-0.1,0.6-0.4,0.9-0.9,0.9c-0.6,0-1.2-0.3-2-1
				c-0.8-0.7-1.4-1.7-2-2.8c-1.3,1.5-3.1,2.8-5.2,3.7L28.9,70c2-1,3.7-2.5,5.1-4.3c-0.6-1.5-0.9-3.7-1.1-6.4L30,59.7v4.8h-1.2v-1
				h-2.4v2.7H29l1-1.2c0.4,0.4,0.9,0.8,1.3,1.3l-0.2,0.4h-4.7v4.1h-1.1v-4.1h-4.6l-0.2-0.5h4.8v-2.7h-2.3v1.2h-1.2v-8.2
				c0.3,0.1,0.7,0.3,1.3,0.6h4.2c0,0,0.1-0.1,0.1-0.2c0.7-1.2,1.3-2.7,1.9-4.6c1.2,0.4,1.7,0.8,1.7,1.1c0,0.2-0.3,0.3-0.9,0.4
				c-0.6,1.1-1.3,2.3-2.2,3.3h0.9l0.6-0.7c0.7,0.6,1.1,1,1.1,1.2c0,0.1,0,0.1-0.1,0.2L30,58.1v1.1L32.8,58.7z M21.2,52.7
				c1.8,1,2.6,2,2.6,3.1c0,0.5-0.2,0.8-0.8,0.8c-0.3,0-0.4-0.2-0.5-0.5c-0.2-1.1-0.8-2.1-1.7-3L21.2,52.7z M22.9,57.6V60h2.3v-2.3
				H22.9z M25.3,60.5h-2.3V63h2.3V60.5z M24.5,52.4c1.4,1,2.2,2.1,2.2,3.2c0,0.6-0.3,0.8-0.8,0.8c-0.3,0-0.4-0.3-0.5-0.8
				c-0.1-1-0.5-2-1.2-2.9L24.5,52.4z M28.8,60v-2.3h-2.4V60H28.8z M28.8,63v-2.5h-2.4V63H28.8z M35,53.8c1.8,0.7,2.7,1.5,2.7,2.3
				c0,0.5-0.2,0.7-0.7,0.7c-0.3,0-0.6-0.2-0.7-0.6c-0.2-0.6-0.7-1.3-1.6-2L35,53.8z"/>
			<path class="st1" d="M47.8,54.7l0.7-0.9c0.8,0.6,1.1,1,1.1,1.2c0,0.1-0.1,0.2-0.1,0.3L49,55.6v12.8h-1.1v-1.7H44v2.1h-1.1V54.1
				c0.4,0.1,0.8,0.3,1.3,0.6H47.8z M44,55.2v5.1h1.4v-5.1H44z M45.4,60.8H44v5.4h1.4V60.8z M47.9,60.3v-5.1h-1.5v5.1H47.9z
				 M47.9,66.2v-5.4h-1.5v5.4H47.9z M61.2,62.4c-0.4,0.4-0.7,0.7-0.8,1.1c-2-1-3.5-2.1-4.7-3.3c-0.1,0-0.2,0.2-0.5,0.4
				c-1.4,1.4-3.3,2.6-5.7,3.7l-0.3-0.5c2-1,3.9-2.5,5.6-4.5c-0.7-0.9-1.3-1.9-1.9-3l-0.1-0.2c-0.7,1.2-1.7,2.4-3.1,3.7l-0.4-0.4
				c1.7-1.9,2.9-4.3,3.9-7.3c1.2,0.2,1.9,0.4,1.9,0.7c0,0.2-0.3,0.3-0.9,0.4c-0.1,0.2-0.3,0.6-0.5,1.2h3.7l0.8-0.9
				c0.9,0.7,1.3,1.1,1.3,1.3c0,0.1-0.1,0.2-0.3,0.3l-0.4,0.3c-0.8,1.7-1.7,3-2.6,4.1C57.6,60.7,59.3,61.7,61.2,62.4z M57.9,64
				l0.7-0.8c0.8,0.6,1.2,0.9,1.2,1c0,0.1-0.1,0.2-0.2,0.3l-0.4,0.4v6h-1.2v-1.2h-5.3v1.2h-1.2v-7.4c0.6,0.2,1,0.4,1.4,0.5H57.9z
				 M52.7,64.6v4.6h5.3v-4.6H52.7z M55.6,58.5c0.9-1.2,1.5-2.4,1.9-3.5h-4c0,0-0.1,0.2-0.2,0.3c-0.1,0.1-0.1,0.2-0.1,0.3
				c0.6,1.1,1.4,2.2,2.3,3.1C55.5,58.7,55.6,58.6,55.6,58.5z"/>
			<path class="st1" d="M69.8,60.5c0.3,0.3,0.4,0.6,0.4,1c0,0.3,0,0.6-0.2,0.8c-0.3,0.5-0.8,0.7-1.3,0.7c-0.3,0-0.7-0.1-0.9-0.3
				c-0.4-0.3-0.6-0.7-0.6-1.1c0-0.5,0.2-0.9,0.6-1.2c0.3-0.2,0.5-0.3,0.9-0.3C69.1,60.1,69.5,60.2,69.8,60.5z"/>
			<path class="st1" d="M83.1,60.5c1.1,0.5,1.7,0.9,1.7,1.2c0,0.2-0.3,0.3-0.9,0.3c-0.3,0.8-0.6,1.6-1.1,2.5l0.1,0.1
				c1.5,1.5,2.4,2.5,2.4,3.2c0,0.4-0.2,0.6-0.6,0.6c-0.2,0-0.5-0.3-0.8-0.8c-0.4-0.7-0.9-1.4-1.6-2.2c-1.4,2.1-3.1,3.9-5.3,5.2
				l-0.3-0.4c2.1-1.6,3.7-3.5,4.8-5.7c-0.8-0.8-1.7-1.6-2.8-2.4l0.3-0.4c1.3,0.8,2.3,1.4,2.9,2C82.3,63,82.8,61.9,83.1,60.5z
				 M81.4,55.9v-3.6c1.4,0,2.1,0.2,2.1,0.5c0,0.2-0.3,0.4-0.9,0.6v2.5h2.5l1-1.4c0.4,0.4,0.8,0.8,1.1,1.3l0.2,0.2l-0.2,0.4H76.9
				l-0.1-0.5H81.4z M76.7,62.1c1.2-1.4,2.2-3.1,2.8-5c1.1,0.5,1.7,0.9,1.7,1.1c0,0.2-0.3,0.3-0.9,0.3c-0.8,1.6-1.9,2.9-3.3,3.9
				L76.7,62.1z M83.4,57.1c1.2,0.6,2,1.4,2.7,2.2c0.4,0.6,0.6,1,0.6,1.4c0,0.5-0.3,0.8-0.7,0.8c-0.3,0-0.5-0.2-0.7-0.7
				c-0.4-1.2-1.1-2.3-2.2-3.3L83.4,57.1z M90.3,58.2c-0.1,2.6-0.4,4.8-1,6.4c-0.9,2.6-2.6,4.7-5.1,6.3l-0.3-0.4
				c3.4-2.8,5.2-6.8,5.2-12.2h-3l-0.2-0.5h3.2v-5.3c1.4,0,2,0.2,2,0.5c0,0.2-0.3,0.4-0.9,0.6v4.1h2.6l0.8-1c0.8,0.7,1.2,1.1,1.2,1.3
				c0,0.1-0.1,0.2-0.2,0.2l-0.5,0.3c0,4.9-0.3,8.3-0.7,10.2c-0.3,1-0.9,1.7-1.9,2c-0.2,0.1-0.4,0.1-0.6,0.1c0-0.4-0.2-0.7-0.7-0.9
				c-0.3-0.1-0.9-0.3-2-0.5v-0.6c0.8,0.1,1.7,0.2,2.6,0.2c0.8,0,1.2-0.3,1.4-0.9c0.4-1.5,0.7-4.8,0.7-9.9H90.3z"/>
			<path class="st1" d="M107.6,66.6v4.3h-1.2v-4.3H98l-0.2-0.5h8.6v-1.9c1.4,0,2,0.2,2,0.6c0,0.2-0.3,0.3-0.8,0.5v0.9h6.1l1.1-1.3
				c0.5,0.4,1,0.9,1.5,1.4l-0.3,0.5H107.6z M106.4,55.4v-3.1c1.4,0,2.1,0.2,2.1,0.5c0,0.2-0.3,0.4-0.9,0.6v2h5.5l1.1-1.3
				c0.5,0.4,1,0.9,1.4,1.4l-0.3,0.4H98.8l-0.2-0.5H106.4z M104,61.1c-1.2,1-2.5,2-3.9,2.8c0,0.6-0.1,0.8-0.3,0.8
				c-0.3,0-0.6-0.5-1.1-1.6c1.9-0.8,3.6-1.6,5.1-2.5L104,61.1z M99.2,56.9c2.2,0.8,3.2,1.6,3.2,2.6c0,0.5-0.2,0.7-0.6,0.7
				c-0.3,0-0.5-0.2-0.6-0.6c-0.3-0.9-1.1-1.6-2.2-2.3L99.2,56.9z M109.4,63.1c-1.6,0.3-3.5,0.6-5.6,0.9c-0.1,0.4-0.3,0.7-0.4,0.7
				c-0.3,0-0.5-0.6-0.7-1.7c0.6,0,1.4,0,2.4-0.1c1.4-1.5,2.6-3.2,3.6-4.9c0.9,0.6,1.4,0.9,1.4,1.2c0,0.2-0.3,0.3-0.9,0.3
				c-0.9,1.1-2,2.2-3.2,3.3l-0.2,0.2c1-0.1,2.2-0.2,3.6-0.3c-0.2-0.4-0.6-0.8-1.1-1.3l0.3-0.3c1.7,0.9,2.6,1.8,2.6,2.8
				c0,0.5-0.2,0.7-0.7,0.7c-0.3,0-0.5-0.2-0.6-0.7c0-0.1-0.1-0.3-0.2-0.6L109.4,63.1z M106.3,56c1.1,0.4,1.7,0.8,1.7,1.1
				c0,0.2-0.3,0.3-0.8,0.3c-0.4,0.7-1,1.4-1.6,2.1c0.6,0.5,0.9,0.9,0.9,1.4c0,0.4-0.2,0.7-0.7,0.7c-0.2,0-0.4-0.2-0.6-0.6
				c-0.3-0.8-1-1.5-2.1-2.2l0.2-0.4c0.8,0.3,1.4,0.6,1.8,0.9C105.6,58.1,106,57.1,106.3,56z M110.6,60.7c3.1,0.8,4.6,1.7,4.6,2.7
				c0,0.4-0.2,0.6-0.6,0.6c-0.2,0-0.5-0.2-0.7-0.5c-0.8-0.9-1.9-1.7-3.5-2.4L110.6,60.7z M110.4,59.7c1.3-1,2.4-2,3.4-3.2
				c0.9,0.6,1.3,1.1,1.3,1.4c0,0.1-0.1,0.2-0.3,0.2c-0.2,0-0.3,0-0.6-0.1c-1,0.7-2.1,1.4-3.5,2.1L110.4,59.7z"/>
			<path class="st1" d="M133.4,60.4c-0.3,0.5-1,0.9-1.7,1.3c-0.7,0.3-1.8,0.7-2.7,1.1c-0.2,0.1-0.5,0.2-0.7,0.3
				c0,0.3,0.1,0.5,0.1,0.8c0.1,0.9,0,1.6-0.3,2c-0.2,0.4-0.5,0.7-0.9,0.8c-0.5,0-0.7-0.3-0.5-0.8c0.2-0.5,0.3-1.3,0.3-2.1
				c0,0,0-0.1,0-0.1c-0.4,0.2-0.8,0.3-1.1,0.5c-0.7,0.4-1.3,0.8-1.8,1.5c-0.4,0.6-0.7,1.4-0.3,2c0.4,0.6,1.4,1,2.3,1
				c0.9,0,1.5-0.1,2.2-0.2c0.6-0.1,1.2-0.3,1.5-0.3c0.7,0,1,0.1,1.4,0.4c0.4,0.3,0.4,0.7,0,0.8c-0.2,0.1-0.4,0.2-1.2,0.3
				c-0.8,0.1-2.3,0.3-3.3,0.2c-1.1,0-2.2-0.3-3.1-0.9c-0.8-0.5-1-1.2-1-2.1c0-0.9,0.4-1.4,1-2c0.6-0.6,1.3-1.1,2.2-1.5
				c0.4-0.2,0.8-0.4,1.3-0.6c0-0.4-0.1-0.6-0.3-0.9c-0.4-0.5-1-0.8-1.5-0.8c-0.5-0.1-1,0-1.5,0.2c-0.2,0.1-0.3,0.1-0.4,0.2
				c-0.3,0.4-0.6,0.7-0.9,1.1c-0.6,0.8-1.2,1.2-1.7,1.2c-0.5,0-0.6-0.3-0.6-0.7c0-0.4,0.2-0.8,0.5-1c0.3-0.2,0.7-0.4,1.2-0.7
				c0.9-0.6,1.7-1.8,2.4-2.9c0.3-0.6,0.6-1,0.7-1.5c-0.2,0-0.4,0-0.6,0.1c-0.7,0.1-1.4,0-1.9-0.3c-0.5-0.3-0.6-1-0.4-1.3
				c0.3-0.4,0.7-0.1,1.2,0.1c0.5,0.2,1.1,0.2,1.8,0c0.1,0,0.2,0,0.3-0.1c0.1-0.6-0.1-0.9-0.3-1.1c-0.3-0.3-0.3-0.6-0.1-0.8
				c0.2-0.1,0.5-0.2,0.9,0c0.1,0.1,0.2,0.2,0.3,0.3c0.3,0,0.7,0.1,0.9,0.2c0.2,0,0.7,0.1,0.9,0.3c0.2,0.2,0.1,0.4-0.1,0.7
				c-0.2,0.3-0.7,1-1.2,1.3c-0.1,0.1-0.3,0.2-0.4,0.2c-0.1,0.5-0.3,0.9-0.6,1.3c-0.5,1-0.8,1.5-1.4,2.4c-0.1,0.1-0.1,0.2-0.2,0.3
				c0.2-0.1,0.4-0.2,0.5-0.2c0.5-0.2,1-0.3,1.6-0.1c0.5,0.1,0.9,0.3,1.2,0.7c0.1-0.1,0.2-0.3,0.3-0.4c0.8-1,1.4-1.6,2.5-2.1
				c1-0.5,2.3-0.6,3.2,0C134,59,133.7,59.9,133.4,60.4z M126.5,55c0.1-0.1,0.2-0.1,0.3-0.2c0.3-0.2,0.5-0.4,0.4-0.5
				c-0.1-0.1-0.2-0.2-0.6-0.2c-0.1,0-0.2,0-0.3,0c0.1,0.2,0.1,0.4,0.1,0.6C126.5,54.8,126.5,54.9,126.5,55z M132.4,59
				c-0.1-0.3-0.6-0.5-1.4-0.3c-0.8,0.2-1.4,0.6-1.9,1.1c-0.5,0.5-1,1.2-1.2,1.9c0.1,0.1,0.1,0.3,0.2,0.4c0.2-0.1,0.4-0.2,0.6-0.3
				c1-0.4,2.1-0.9,3-1.4C132.6,59.9,132.6,59.3,132.4,59z"/>
			<path class="st1" d="M144.5,56.1c0.4-1,0.8-2.3,1-3.8c1.4,0.3,2.1,0.6,2.1,0.9c0,0.2-0.3,0.3-0.9,0.4c-0.4,0.7-0.9,1.6-1.5,2.5h8
				l0.8-1c0.9,0.7,1.3,1.1,1.3,1.3c0,0.1,0,0.2-0.2,0.3l-0.5,0.4v11.8c0,1.2-0.8,1.8-2.3,1.8c0-0.4-0.3-0.7-0.9-0.9
				c-0.4-0.1-1.2-0.3-2.3-0.4v-0.6c1.3,0.1,2.5,0.2,3.4,0.2c0.5,0,0.8-0.2,0.8-0.7V56.7h-13.3v14.3h-1.2V55.5
				c0.7,0.3,1.2,0.5,1.5,0.7H144.5z M148.7,60.1l0.8-0.9c0.9,0.6,1.3,1.1,1.3,1.3c0,0.1,0,0.2-0.2,0.3l-0.5,0.4v5.7h-1.2v-1.3h-4.6
				V67h-1.1v-7.5c0.5,0.2,0.9,0.4,1.4,0.6H148.7z M144.3,60.6v4.2h4.6v-4.2H144.3z"/>
			<path class="st1" d="M167.7,60.7v8h6.1l1.3-1.7c0.5,0.5,1,1.1,1.5,1.8l-0.2,0.4h-17.6l-0.2-0.5h7.8V53.3c1.6,0.1,2.4,0.3,2.4,0.6
				c0,0.2-0.4,0.4-1.1,0.7v5.6h4.9l1.1-1.5c0.5,0.5,1,1,1.5,1.7l-0.2,0.4H167.7z"/>
			<path class="st1" d="M192.6,56.1c-0.1,0.3-0.7,1-1.4,1.5c-0.5,0.3-1.2,0.6-2,0.9c0.3,0.6,0.6,1.2,0.7,1.6
				c0.3,0.6,0.7,1.8,0.9,2.3c0.2,0.5,0.4,0.9,0.4,1.3c0,0.3,0,0.7-0.5,1c-0.7,0.5-1.6,0-2.7-0.7c-0.5-0.3-1.1-0.6-1.8-0.7
				c-0.9-0.2-1.9-0.2-2.7,0c-0.8,0.2-1.4,0.9-1.4,1.8c0.1,0.8,0.6,1.5,1.2,2c0.6,0.4,1.2,0.7,2,0.9c0.8,0.2,1.7,0.2,2.2,0.1
				c0.5-0.1,1.1-0.2,1.5-0.2c0.4,0,0.9,0.2,1.1,0.6c0.2,0.4,0,0.7-0.8,0.8s-2.1,0.2-3.3,0.1s-2.5-0.6-3.3-1.4
				c-0.9-0.7-1.4-1.8-1.4-2.9c0-1.1,0.8-2,1.8-2.4c0.9-0.3,2.2-0.3,2.8-0.3c0.6,0.1,1.5,0.3,2,0.4c0.5,0.1,1,0.3,1.3,0.3
				c0.3,0,0.5-0.2,0.5-0.7c0-0.2-0.1-0.6-0.3-0.9c-0.2-0.3-0.6-1.2-1-2.1c-0.1-0.2-0.2-0.4-0.3-0.6c-0.2,0-0.3,0.1-0.5,0.1
				c-1,0.3-2.3,0.5-3.2,0.6c-0.9,0.1-2,0.1-2.9-0.2s-1.3-0.5-1.6-0.8c-0.3-0.2-0.4-0.5-0.3-0.6c0.2-0.2,0.6,0.1,0.8,0.2
				c0.3,0.2,0.7,0.4,1.4,0.5c0.7,0.1,1.5,0,2.3-0.1s1.5-0.3,2.2-0.5c0.4-0.1,0.8-0.2,1.2-0.4c-0.3-0.4-0.5-0.8-0.7-1
				c-0.4-0.6-0.9-1.2-1.3-1.6c-0.3-0.3-0.5-0.8-0.3-1.1c0.3-0.4,0.8-0.3,1.2-0.2c0.3,0.2,0.8,0.4,1.3,0.6c0.5,0.2,1.5,0.6,2.2,0.7
				c0.6,0.1,1.4,0.1,1.9,0.1C192.7,55.3,192.8,55.7,192.6,56.1z M190.6,56c-0.3-0.1-0.9-0.3-1.5-0.5c-0.6-0.2-1-0.3-1.3-0.5
				c-0.3-0.2-0.5-0.3-0.7-0.2c-0.1,0.1,0.2,0.5,0.4,0.8c0.2,0.3,0.7,1.2,1,1.8c0.1-0.1,0.3-0.1,0.4-0.2c0.7-0.3,1.3-0.7,1.6-0.8
				C190.8,56.3,190.8,56.1,190.6,56z"/>
			<path class="st1" d="M214,59.1c0.2,0.3,0,0.7-0.6,0.9c-0.6,0.2-1.6,0.1-2.2,0c-0.6,0-1.2,0-2.3,0c-0.2,0-0.4,0-0.6,0
				c0,0.9-0.1,1.9-0.1,2c0,0.2,0,0.9-0.1,1.1c-0.1,0.3-0.4,0.6-0.9,1c-0.5,0.4-0.8,0.5-1.1,0.3c-0.2-0.2-0.4-0.8-0.6-1.1
				c-0.2-0.4-0.5-0.7-0.8-0.9c-0.2-0.2-0.3-0.3-0.3-0.5c0-0.1,0.2-0.2,0.5-0.1c0.3,0.1,0.9,0.6,1.1,0.7c0.2,0.2,0.3,0.2,0.5,0.1
				s0.4-0.3,0.5-0.8c0.1-0.3,0.1-1.1,0.2-1.8c-0.7,0-1.5,0.1-2.1,0.1c-1,0-2.4,0.2-3.2,0.3c0,0,0,0-0.1,0c0,0.4,0,0.7,0,0.9
				c0,0.5-0.2,2.2-0.2,3c0,0.8,0.3,1.7,0.8,2.2c0.4,0.5,1.4,0.9,2.2,1c0.8,0.1,1.8,0.1,2.4,0.1c0.6,0,1.2,0,1.5,0.2
				c0.3,0.2,0.5,0.6,0.4,0.8c-0.1,0.3-0.5,0.4-1.2,0.3c-0.7,0-1.6-0.1-2.4-0.2c-0.8-0.1-1.7-0.3-2.3-0.5c-0.6-0.3-1.3-0.7-1.7-1.3
				c-0.3-0.5-0.6-1.2-0.6-1.8c0-0.7,0-2,0-2.6c0-0.3,0-1.1,0-1.9c-0.7,0.1-1.4,0.2-1.9,0.3c-0.9,0.1-1.7,0.1-2.2-0.2
				c-0.5-0.3-0.7-1.1-0.4-1.3c0.2-0.1,0.3-0.2,0.4-0.2c0.1,0,0.6,0.2,0.9,0.3c0.3,0.1,0.6,0.2,1.1,0.2c0.4,0,1.3,0,2.1-0.1
				c0-0.1,0-0.2,0-0.2c0-0.7,0-1.8-0.1-2.3s-0.4-1.2-0.7-1.4c-0.3-0.2-0.5-0.5-0.4-0.6c0.2-0.4,1-0.1,1.4,0c0.4,0.1,0.8,0.5,1,1
				c0.2,0.5,0,1.6,0.1,2.3c0,0.3,0,0.7,0,1.1c0.9-0.1,2-0.3,2.7-0.3c0.8,0,2-0.3,2.7-0.3c0-0.9,0-2-0.1-2.4c-0.1-0.5-0.3-1-0.5-1.3
				c-0.3-0.3-0.3-0.7-0.2-0.9c0.2-0.2,0.5-0.1,0.8,0c0.3,0.1,0.6,0.5,0.9,1c0.3,0.5,0.2,0.9,0.2,1.4c0,0,0,0.1,0,0.2
				c0.2,0.2,0.4,0.4,0.6,0.6c0.4,0.3,0.9,0.7,1.1,0.8c0.3,0.2,0.7,0.3,0.9,0.3c0.3,0,1-0.1,1.6-0.1C213.4,58.5,213.8,58.8,214,59.1z
				 M209.8,58.7c-0.4-0.3-0.9-0.7-1.3-1.1c0,0.4,0,0.8,0,1.2C209,58.8,209.8,58.7,209.8,58.7z"/>
			<path class="st1" d="M229.2,67.2c-0.9,1-1.9,1.5-3.1,1.8c-1.2,0.3-2.3,0.3-3.7,0c-1.4-0.3-2-0.8-2-1.5c0-0.7,0.9-1.2,1.6-1.4
				c0.8-0.2,1.7-0.1,2.4,0.4c0.6,0.5,0.6,1,0.3,1.6c1.1-0.1,2.1-0.5,2.9-1.1c0.9-0.7,1.3-1.8,1.3-2.8c0-1.1-0.8-2.3-2-2.9
				c-1.3-0.6-2.7-0.6-4.1-0.1c-1.4,0.5-2.4,1.2-3.1,2.1c-0.7,0.9-1.2,2-1.4,2.6c-0.2,0.6-0.4,0.9-0.7,1.1c-0.1,0.1-0.4,0.2-0.8-0.1
				c-0.3-0.2-0.3-0.7-0.3-1c0-0.3,0.6-1,1-1.6c0.4-0.6,1-1.4,1.8-2.3c0.8-0.9,2-2.4,2.5-2.9c0.5-0.6,2.1-2.5,2.3-2.9
				c0.3-0.3,0.4-0.6,0.3-0.7c-0.1-0.1-0.5,0-0.7,0.2c-0.3,0.2-1.4,0.8-2,1.2c-0.7,0.3-1.1,0.5-1.7,0.5c-0.6,0-1-0.3-1.2-0.5
				c-0.2-0.2-0.3-0.6-0.3-0.7c0.1-0.2,0.3-0.3,0.5-0.2c0.2,0,0.5,0.1,0.8,0.1c0.3,0,0.6,0,1.3-0.3c0.7-0.3,1.6-0.7,2.4-1.1
				c0.8-0.4,1.3-0.7,1.7-0.7c0.5,0,0.9,0.3,1.2,0.6c0.3,0.3,0.3,0.5,0.3,0.7c0,0.2-0.2,0.3-0.5,0.5c-0.3,0.2-1,0.8-1.6,1.4
				c-0.6,0.6-1.4,1.6-1.9,2.2c0,0-0.6,0.6-1.6,1.7c0.3-0.2,0.6-0.4,1.3-0.6c0.9-0.3,1.8-0.5,3-0.4c1.2,0.1,2.2,0.5,3,1.1
				s1.6,1.5,1.7,2.9C230.3,65.4,230,66.3,229.2,67.2z M222.6,66.8c-0.7,0-1.2,0.5-0.9,0.9c0.2,0.3,0.8,0.5,1.7,0.5
				C224.3,67.4,223.5,66.8,222.6,66.8z"/>
			<path class="st1" d="M245.9,52.3v0.9h-4.2v14h-0.9V52.3H245.9z"/>
			<path class="st1" d="M253.5,68.6c0.3-0.1,0.7-0.2,1.4-0.5c1.3-0.5,2.1-0.9,3.3-1.7c1.2-0.8,1.9-1.4,3-2.5c1.1-1,2.3-2.6,2.8-3.7
				c0.5-1.1,0.8-2.2,0.9-2.9c0.1-0.6-0.1-1.1-0.5-1.4c-0.4-0.3-0.6-0.7-0.4-1c0.3-0.3,1.1-0.2,1.5,0.1c0.4,0.3,0.9,0.6,1,1.1
				c0.2,0.4,0.2,0.7,0.1,1c-0.1,0.2-0.2,0.6-0.3,0.9c-0.2,0.7-0.5,1.7-1.1,2.7c-0.7,1.2-1.7,2.6-3.1,3.8c-1.3,1.2-2,1.7-3,2.3
				c-0.9,0.6-1.9,1.1-2.8,1.4c-1,0.4-2,0.7-2.8,0.8c-0.3,0-0.6,0-0.6-0.1C253,68.8,253.2,68.7,253.5,68.6z M257.1,56.6
				c0.4,0.4,0.7,1,1,1.7c0.2,0.8,0.2,1.4-0.4,1.7c-0.7,0.3-1.2-0.4-1.4-0.8c-0.1-0.5,0-0.9-0.2-1.5c-0.1-0.6-0.3-0.9-0.6-1.2
				c-0.2-0.3-0.4-0.6-0.3-0.7c0.1-0.2,0.4-0.1,0.7,0.1C256.3,55.9,256.7,56.2,257.1,56.6z"/>
			<path class="st1" d="M272.4,69.4c0.4-0.1,0.9-0.3,2.1-0.9c1.2-0.5,2.2-1.3,3.2-2.3c1-1.1,1.5-2.1,1.9-3.5c0.3-1.1,0.5-2.5,0.5-4
				c0-1.4-0.1-2.6-0.2-3.3c0-0.7-0.3-0.9-0.6-1.2c-0.3-0.3-0.6-0.5-0.3-0.8c0.2-0.2,0.6-0.3,1.4,0c0.3,0.1,0.6,0.2,0.9,0.6
				c0.3,0.3,0.5,0.6,0.4,0.9c0,0.2-0.1,0.6-0.1,0.9c0,0.5,0.1,1.5,0.1,2.9c0,1.4-0.1,2.9-0.7,4.4c-0.6,1.4-1.1,2.3-2,3.3
				c-0.9,0.9-1.8,1.6-2.9,2.2c-1,0.6-2.4,1-3.5,1.3c-0.3,0.1-0.6,0-0.6-0.1C271.9,69.6,272.1,69.5,272.4,69.4z M276,56.5
				c-0.1,0.4,0,1.3,0,2.6c0,1.3,0.1,2.6,0.1,3.2c0,0.6-0.2,1.1-0.4,1.5c-0.3,0.4-0.6,0.3-0.8,0.1c-0.2-0.2-0.3-0.5-0.2-1.3
				c0-0.8,0.1-2,0.1-3.3c0.1-1.3,0-1.9,0-2.7c0-0.7-0.2-0.9-0.5-1.2c-0.3-0.2-0.6-0.4-0.5-0.7c0.1-0.2,0.3-0.3,0.9-0.2
				c0.6,0.1,1.1,0.4,1.4,0.8C276.4,55.6,276.1,56.1,276,56.5z"/>
			<path class="st1" d="M301.7,67c-0.2,0.2-0.6,0-1.3,0c-0.7,0-1.5,0-2.6,0c-1.1,0-2.6,0.1-4,0.1c-1.4,0-2.1,0.1-2.8,0.1
				c-0.7,0.1-1.6,0.2-2.2,0.2c-0.7,0-1.2-0.3-1.5-0.6c-0.3-0.3-0.4-0.7-0.2-0.8c0.2-0.2,0.4,0,0.8,0.1c0.3,0.2,0.6,0.2,1.1,0.3
				c0.5,0.1,1.6,0,2.7,0c1.1,0,2.1-0.1,2.9-0.1c0.5,0,1-0.1,1.5-0.1c0.1-0.6,0.3-1.8,0.4-2.5c0.1-0.8,0.3-1.9,0.3-2.1
				c0-0.2-0.2-0.3-0.5-0.4c-0.2,0-0.6,0-1.1,0.1c-0.6,0.1-1.5,0.2-2,0.3c-0.6,0-1.4,0.1-1.9,0.2c-0.5,0-1.1-0.1-1.4-0.4
				c-0.4-0.2-0.6-0.7-0.4-0.9c0.1-0.2,0.3-0.2,0.6-0.1c0.3,0.1,0.6,0.2,1.1,0.2c0.6,0.1,1.3,0,2,0c0.8,0,1.9-0.1,2.4-0.2
				c0.5,0,0.7-0.2,0.9-0.3c0.2-0.2,0.3-0.3,0.5-0.3c0.2,0,0.5,0,0.8,0.2c0.4,0.2,0.8,0.5,1.1,0.8c0.2,0.2,0.2,0.4,0.1,0.5
				c-0.1,0.1-0.3,0.3-0.5,0.4c-0.2,0.1-0.4,0.2-0.4,0.4c0,0.2-0.1,0.5-0.3,1.1c-0.2,0.6-0.5,1.9-0.7,3c0.1,0,0.1,0,0.2,0
				c0.5,0,1.5-0.2,2.1-0.3c0.6-0.1,1.2-0.1,1.8,0.2C301.6,66.4,301.9,66.8,301.7,67z"/>
			<path class="st1" d="M321,62c0,0.3-0.4,0.4-0.9,0.3c-0.5-0.1-1.8-0.2-2.6-0.3c-0.8-0.1-2.6-0.2-3.5-0.1c-0.8,0.1-2.5,0.1-3.6,0.2
				c-0.9,0.1-1.8,0.3-2.6,0.3c-0.8,0-1.6-0.3-2.1-0.6c-0.5-0.3-0.6-0.9-0.4-1.1c0.4-0.3,1.1,0,1.6,0.1c0.5,0.2,1.6,0.3,2.5,0.3
				c0.9,0,2.9-0.1,3.9-0.2c1,0,3.7-0.1,4.6-0.2c0.9,0,1.9,0,2.4,0.2C320.9,61.3,321.1,61.7,321,62z"/>
			<path class="st1" d="M325,60c0-0.3,0.8-0.2,1.4-0.2c0.6,0,1.3,0.1,1.9,0.4c0.6,0.3,0.8,0.4,1.2,0.8c0.4,0.4,0.5,1,0.1,1.4
				c-0.4,0.3-1,0.1-1.3-0.3c-0.4-0.4-0.7-0.8-1.2-1.1c-0.3-0.2-0.8-0.5-1.5-0.7C325.1,60.2,325,60.2,325,60z M331.4,57.6
				c0.4,0.4,0.5,0.9,0.2,1.3c-0.3,0.3-0.7,0.3-1.2,0c-0.5-0.3-0.9-0.7-1.2-1.1c-0.6-0.7-1.2-1-2.1-1.2c-0.3-0.1-0.5-0.2-0.5-0.3
				c0-0.2,0.3-0.3,0.6-0.3c0.2,0,0.5,0,1,0.1c0.6,0.1,1.1,0.2,1.7,0.5C330.5,56.8,330.9,57.1,331.4,57.6z M340.7,57.8
				c-0.5,0.7-1.4,2-2.3,3c-0.9,1-1.4,1.5-2.8,2.9c-1.4,1.3-3.1,2.5-4.4,3.3c-1,0.6-1.7,0.9-2.5,0.9c-0.8,0-1.2-0.5-1.4-1
				c-0.2-0.5-0.3-1,0-1.2c0.2-0.2,0.4,0,0.7,0.2c0.3,0.2,0.6,0.3,1.1,0.4c0.6,0,1.5-0.4,3-1.3c0.9-0.5,1.7-1.1,2.9-2.1
				c1.2-0.9,2.2-1.8,3-2.7c0.8-0.9,1.8-2.2,2.2-2.8c0.3-0.5,0.8-1.1,1-0.9C341.3,56.6,341.2,57,340.7,57.8z"/>
			<path class="st1" d="M356.3,59.1c0.2,0.2,0.1,0.5,0,0.6c-0.2,0.1-0.3,0.6-0.4,1.1c-0.1,0.4-0.2,1.4-0.4,2.2
				c-0.1,0.9-0.4,2.4-0.5,3.2c-0.1,0.8,0,1.5,0,1.8c0,0.2,0,0.5-0.1,0.5c-0.1,0-0.3,0.1-0.6,0.2c-0.3,0.1-0.5,0-0.6-0.1
				s-0.4-0.1-0.9-0.1c-0.4,0-1.7,0.2-2.5,0.3c-0.7,0.1-1.9,0.3-2.5,0c-0.7-0.4-0.8-0.9-0.6-1.1c0.2-0.2,0.4,0,0.8,0.1
				c0.4,0.1,1.4,0.1,2.3,0c0.9,0,2-0.1,2.5-0.1c0.4,0,0.7-0.1,0.8-0.2c0.1-0.1,0.2-0.5,0.2-1.1c0.1-0.6,0.2-1.5,0.3-2.7
				c-0.4,0-1.2,0.2-1.9,0.3c-0.8,0.1-1.8,0.3-2.8,0.3c-0.9,0.1-1.5,0.1-2-0.3c-0.4-0.4-0.6-0.9-0.3-1.1s0.6,0,0.9,0.2
				c0.3,0.2,0.7,0.3,1.5,0.2c0.8,0,1.7-0.1,2.3-0.1c0.5,0,1.1-0.1,2.3-0.3c0.1-1.1,0.2-1.9,0.2-2.3c0-0.4,0-0.7-0.1-0.9
				c-0.2-0.2-0.5-0.1-1.1,0s-1.4,0.2-2.3,0.3s-1.8,0.3-2.4,0.4c-0.6,0-1.2-0.2-1.6-0.5c-0.4-0.3-0.6-0.9-0.4-1
				c0.1-0.1,0.3-0.1,0.6,0c0.3,0.2,0.7,0.3,1.3,0.3c0.6,0,1.5-0.1,2.4-0.1c0.9,0,2.1,0,2.4,0c0.3,0,0.7,0,0.8-0.1
				c0.1-0.1,0.3-0.2,0.4-0.4c0.2-0.2,0.4-0.3,0.8-0.1C355.6,58.6,356.1,58.9,356.3,59.1z"/>
			<path class="st1" d="M362.3,57.2c-0.5-0.3-0.8-0.4-0.7-0.6c0.1-0.2,0.5-0.2,0.9-0.1c0.5,0,1,0.2,1.7,0.4c0.6,0.3,1,0.5,1.6,1
				c0.6,0.5,0.9,1.4,0.3,1.7c-0.5,0.3-1.1,0-1.7-0.7C363.6,58,363,57.6,362.3,57.2z M377,56.9c-0.3,0.5-0.7,1.1-1.6,2.4
				c-0.8,1.1-1.7,2.3-2.9,3.4c-1.2,1.2-2.5,2.1-3.9,3.1c-1.4,0.9-2.6,1.4-3.6,1.7c-1,0.3-1.4,0.1-1.8-0.4s-0.5-1.3-0.3-1.5l0.8,0.2
				c0.2,0.1,0.6,0.2,1.1,0.1c0.8,0,2.3-0.6,3.3-1.3c1.1-0.7,2.5-1.8,3.6-2.8c1.1-0.9,1.8-1.6,2.9-2.9c1.1-1.4,1.7-2.1,1.8-2.3
				c0.2-0.2,0.3-0.3,0.5-0.3C377.1,56.5,377.2,56.6,377,56.9z"/>
			<path class="st1" d="M383.7,70.8v-0.9h4.2v-14h0.9v14.9H383.7z"/>
			<path class="st1" d="M398.2,66.3c0.9,0.5,1.3,1.2,1.3,2.2c0,0.6-0.3,1.3-0.7,1.8c-0.5,0.6-1.1,0.8-1.9,0.8
				c-0.4,0-0.8-0.1-1.1-0.3c-1-0.5-1.5-1.3-1.5-2.3c0-0.9,0.4-1.7,1.2-2.2c0.4-0.3,0.9-0.4,1.3-0.4C397.4,65.9,397.8,66,398.2,66.3z
				 M395.5,67.2c-0.3,0.3-0.5,0.8-0.5,1.3c0,0.3,0.1,0.7,0.3,1c0.4,0.6,0.9,0.9,1.6,0.9c0.5,0,0.9-0.2,1.2-0.5
				c0.4-0.4,0.6-0.9,0.6-1.4c0-0.6-0.3-1.1-0.8-1.5c-0.3-0.2-0.7-0.3-1.1-0.3C396.4,66.6,395.9,66.8,395.5,67.2z"/>
		</g>
	</g>
</g>
<g>
</g>
<g>
</g>
<g>
</g>
<g>
</g>
<g>
</g>
<g>
</g>
</svg>
