<?xml version="1.0" encoding="utf-8"?>
<!-- Generator: Adobe Illustrator 20.1.0, SVG Export Plug-In . SVG Version: 6.00 Build 0)  -->
<svg version="1.1" id="レイヤー_1" xmlns="http://www.w3.org/2000/svg" xmlns:xlink="http://www.w3.org/1999/xlink" x="0px"
	 y="0px" width="420px" height="150px" viewBox="0 0 420 150" style="enable-background:new 0 0 420 150;" xml:space="preserve">
<style type="text/css">
	.st0{fill:#FFFFFF;}
	.st1{fill:#D7000E;}
</style>
<g>
	<g>
		<g>
			<g>
				<path class="st0" d="M42.4,26.2c0,1.2,0.1,3.6,0.2,4.5h-4.1c-0.1-0.5-0.2-1.5-0.2-2.2c-0.8,1.5-2.4,2.6-5.1,2.6
					c-4.2,0-5.9-3.4-5.9-6.5c0-4.4,3-7.3,8.7-7.3c0.8,0,1.4,0,2,0.1v-2.6c0-1.4-0.3-3.2-2.7-3.2c-2.5,0-2.8,1.7-2.9,3.2h-4.2
					c0.1-3.2,1.6-6.7,7.3-6.7c4.6,0,6.9,2.2,6.9,6.4V26.2z M38.1,20.7c-0.5-0.1-1-0.1-1.9-0.1c-3.2,0-4.5,1.6-4.5,3.6
					c0,1.6,0.8,3.2,2.9,3.2c2.8,0,3.5-2.1,3.5-5.8V20.7z"/>
				<path class="st0" d="M48.2,15.2c0-4.2,0-5.7,0-6.7h4.3c0.1,0.5,0.1,1.6,0.1,2.5c1-1.8,2.6-2.9,4.9-2.9c2.4,0,3.8,1.1,4.5,3.1
					c0.9-1.6,2.5-3.1,5.4-3.1c3,0,5.5,1.5,5.5,6.6v16h-4.4V15.4c0-1.9-0.6-3.5-2.6-3.5c-2.3,0-3.1,1.9-3.1,4.7v14h-4.5V15.5
					c0-2.3-0.7-3.5-2.6-3.5c-2.2,0-3.2,1.8-3.2,4.9v13.8h-4.4V15.2z"/>
				<path class="st0" d="M94.2,19.4c0,8-2.9,11.8-8.2,11.8s-8.1-3.6-8.1-11.7c0-7.8,3.2-11.4,8.3-11.4C91.4,8.1,94.2,12,94.2,19.4z
					 M82.5,19.5c0,5.2,1,7.9,3.6,7.9c2.5,0,3.5-2.7,3.5-7.8c0-5.2-1-7.6-3.5-7.6C83.6,11.9,82.5,14.3,82.5,19.5z"/>
				<path class="st0" d="M99.1,16c0-3.6,0-5.9,0-7.5h4.3c0,0.4,0.1,1.4,0.1,3.8c0.9-2.6,2.9-4.1,5.8-4.1v5c-3.7,0-5.7,1.5-5.7,5.7
					v11.9h-4.5V16z"/>
				<path class="st0" d="M113.4,38.8V14.9c0-3,0-5.1,0-6.4h4.3c0.1,0.5,0.1,1.7,0.1,2.6c0.7-1.6,2.1-3,5.1-3c4.1,0,6.5,3.6,6.5,11.1
					c0,8.4-2.9,11.9-7.1,11.9c-2.4,0-3.7-1.1-4.4-2.3v10H113.4z M121.3,12c-2.9,0-3.5,2.7-3.5,7.4c0,5.1,0.3,7.9,3.5,7.9
					c2.5,0,3.7-2.8,3.7-7.8C124.9,14.1,123.7,12,121.3,12z"/>
				<path class="st0" d="M138.9,0v10.8c0.8-1.6,2.3-2.7,5.1-2.7c3.5,0,5.6,2.2,5.6,6.9v15.7H145V15.9c0-2.4-0.5-3.9-2.9-3.9
					c-2.5,0-3.3,2-3.3,5.3v13.5h-4.4V0H138.9z"/>
				<path class="st0" d="M157.9,8.5c1.9,7.9,3.5,14.1,3.8,16.7h0c0.5-3,2.2-9.8,3.8-16.7h4.5l-6.4,23.2c-1.9,6.8-4.1,7.3-7.2,7.3
					c-0.6,0-1.3,0-1.9-0.2v-3.8c0.3,0,1,0.1,1.6,0.1c2.1,0,2.7-1.2,3.4-4.1L153,8.5H157.9z"/>
				<path class="st0" d="M194,10.7v8.4h8.1v1.8H194v8.6h-1.8v-8.6H184v-1.8h8.1v-8.4H194z"/>
				<path class="st0" d="M220.8,1.3v29.4h-1.9V1.3H220.8z"/>
				<path class="st0" d="M227.8,30.7V1.3h2.7c9.5,22.9,10.6,25.5,11,26.7h0c-0.2-4.2-0.3-8.7-0.3-13.5V1.3h1.9v29.4h-2.6
					c-9.8-23.9-10.8-26.4-11.1-27.4h0c0.2,3.7,0.3,8.9,0.3,14.2v13.3H227.8z"/>
				<path class="st0" d="M250.3,30.7V1.3h2.7c9.5,22.9,10.6,25.5,11,26.7h0c-0.2-4.2-0.3-8.7-0.3-13.5V1.3h1.9v29.4h-2.6
					C253.3,6.8,252.3,4.3,252,3.3h0c0.2,3.7,0.3,8.9,0.3,14.2v13.3H250.3z"/>
				<path class="st0" d="M288,15.7c0,9.6-2,15.4-8.1,15.4c-5.9,0-8-5.5-8-15.2c0-9.7,2.5-14.9,8.1-14.9C285.8,0.9,288,5.9,288,15.7z
					 M273.8,15.8c0,9.3,2.1,13.6,6.1,13.6c4.1,0,6-4.3,6-13.5c0-9.7-2.2-13.2-6.1-13.2C276,2.7,273.8,6.8,273.8,15.8z"/>
				<path class="st0" d="M298.6,30.7l-7.3-29.4h2.1l3.6,14.9c1,4.2,2.4,9.8,2.8,12.5h0.1c0.4-2.2,2-8.2,3.1-12.5l3.8-14.9h2
					l-7.7,29.4H298.6z"/>
				<path class="st0" d="M314,20.2l-2.5,10.5h-1.9l7.3-29.4h2.5l7.6,29.4h-2.1l-2.6-10.5H314z M321.7,18.4
					c-2.1-8.2-3.3-13.1-3.7-15.2H318c-0.4,2.5-1.8,8.3-3.5,15.2H321.7z"/>
				<path class="st0" d="M333.6,3.1h-6.7V1.3h15.4v1.8h-6.7v27.6h-1.9V3.1z"/>
				<path class="st0" d="M348.9,1.3v29.4H347V1.3H348.9z"/>
				<path class="st0" d="M371.1,15.7c0,9.6-2,15.4-8.1,15.4c-5.9,0-8-5.5-8-15.2c0-9.7,2.5-14.9,8.1-14.9
					C368.9,0.9,371.1,5.9,371.1,15.7z M357,15.8c0,9.3,2.1,13.6,6.1,13.6c4.1,0,6-4.3,6-13.5c0-9.7-2.2-13.2-6.1-13.2
					C359.1,2.7,357,6.8,357,15.8z"/>
				<path class="st0" d="M377.3,30.7V1.3h2.7c9.5,22.9,10.6,25.5,11,26.7h0c-0.2-4.2-0.3-8.7-0.3-13.5V1.3h1.9v29.4h-2.6
					C380.3,6.8,379.3,4.3,379,3.3h0c0.2,3.7,0.3,8.9,0.3,14.2v13.3H377.3z"/>
			</g>
		</g>
		<g>
			<path class="st0" d="M45.7,67.9C45,68,44.5,68,42.9,68.1c-1.5,0.1-2.7,0.2-4.2-0.1c-1.4-0.3-2.1-0.7-2.7-1.3
				c-0.5-0.6-0.5-1.8-0.4-3.2c0.1-1.4,0.1-2.5,0.1-3.7c0.1-1.1,0-2,0-2.7c-0.1-0.7-0.5-1.3-0.7-1.5c-0.3-0.2-0.4-0.4-0.3-0.6
				c0.1-0.3,1-0.2,1.6-0.1c0.5,0.1,0.8,0.4,1,0.9c0.2,0.5-0.1,1.1-0.1,1.4c-0.2,0.9-0.3,2.5-0.3,3.5c0,0,0,0.1,0,0.1
				c0.3,0,0.6-0.1,1-0.3c1-0.3,1.8-0.6,3.2-1.2c1.3-0.6,2.2-1,2.7-1.4c0.5-0.3,0.5-0.8,0.4-1c-0.1-0.2-0.2-0.6,0-0.7
				c0.2-0.1,0.7-0.1,1.2,0.3c0.5,0.4,0.7,0.9,0.3,1.7c-0.4,0.8-1.4,1.2-2.9,1.8c-1.3,0.5-2.3,0.9-4,1.2c-0.8,0.2-1.4,0.2-1.8,0.2
				c-0.1,1.1-0.1,2.6-0.1,3.4c0,1.1,0.7,1.5,1.5,1.9c0.8,0.4,1.7,0.4,2.7,0.4c1,0,1.9-0.1,2.7-0.4c0.7-0.2,1.2-0.5,2-0.4
				c0.8,0,1.2,0.6,1.1,0.9C46.7,67.6,46.4,67.8,45.7,67.9z M46.2,55.3c-0.3-0.3-0.8-0.7-1.4-1.1c-0.2-0.1-0.3-0.3-0.2-0.4
				c0.1-0.1,0.3-0.1,0.4-0.1c0.4,0,0.8,0.1,1.3,0.3c0.5,0.2,1.1,0.5,1.4,0.9c0.2,0.4,0,0.8-0.3,0.8C47,55.8,46.5,55.6,46.2,55.3z
				 M48,54.4c-0.3-0.4-0.7-0.6-1.4-1c-0.2-0.1-0.3-0.3-0.2-0.4c0-0.1,0.3-0.1,0.4-0.1c0.4,0,0.8,0.1,1.3,0.2
				c0.5,0.2,1.2,0.5,1.4,0.9c0.2,0.4,0,0.7-0.3,0.9C48.8,54.9,48.3,54.7,48,54.4z"/>
			<path class="st0" d="M52.2,60c0-0.3,0.8-0.3,1.4-0.2c0.6,0,1.3,0.1,1.9,0.4c0.6,0.3,0.8,0.4,1.2,0.8c0.4,0.4,0.5,1,0.1,1.4
				c-0.4,0.3-1,0.1-1.3-0.3c-0.4-0.4-0.8-0.7-1.2-1.1c-0.3-0.2-0.8-0.5-1.5-0.7C52.3,60.2,52.2,60.1,52.2,60z M58.6,57.5
				c0.4,0.4,0.5,0.9,0.2,1.3c-0.3,0.3-0.7,0.3-1.2,0c-0.5-0.3-0.9-0.6-1.2-1.1c-0.6-0.7-1.2-1-2.1-1.2c-0.3-0.1-0.5-0.2-0.5-0.3
				c0-0.2,0.3-0.3,0.6-0.3c0.2,0,0.5,0,1,0.1c0.6,0.1,1.1,0.2,1.7,0.5C57.7,56.7,58.1,57,58.6,57.5z M67.8,57.7
				c-0.5,0.7-1.4,2-2.3,3c-0.9,1-1.4,1.5-2.8,2.9c-1.4,1.3-3.1,2.5-4.4,3.3c-1,0.6-1.7,0.9-2.5,0.9c-0.8,0-1.2-0.5-1.4-1
				c-0.2-0.4-0.3-1,0-1.2c0.2-0.1,0.4,0,0.7,0.2c0.3,0.2,0.6,0.3,1.1,0.4c0.6,0,1.5-0.4,3-1.3c0.9-0.5,1.7-1.1,2.9-2
				c1.2-0.9,2.2-1.8,3-2.8c0.8-0.9,1.8-2.2,2.2-2.7c0.3-0.5,0.8-1.1,1-1C68.5,56.5,68.4,56.9,67.8,57.7z M64.5,55.4
				c-0.3-0.3-0.8-0.7-1.4-1.1c-0.2-0.1-0.3-0.3-0.2-0.5c0.1-0.1,0.3-0.1,0.4-0.1c0.4,0,0.8,0.1,1.3,0.3c0.5,0.2,1.2,0.6,1.4,0.9
				c0.2,0.4,0,0.7-0.3,0.8C65.3,55.9,64.8,55.7,64.5,55.4z M66.3,54.4c-0.3-0.4-0.7-0.6-1.4-0.9c-0.2-0.1-0.3-0.3-0.2-0.5
				c0.1-0.1,0.3-0.1,0.4-0.1c0.3,0,0.8,0.1,1.3,0.2c0.5,0.1,1.2,0.5,1.4,0.9c0.3,0.4,0,0.7-0.3,0.8C67.1,55,66.6,54.8,66.3,54.4z"/>
			<path class="st0" d="M72.1,66.6c-0.5,0.1-0.8,0.1-0.9,0c-0.1-0.2,0.3-0.4,0.6-0.6c1.3-0.6,2.1-1.1,3-1.7c0.9-0.6,1.6-1,2.3-1.5
				c0.7-0.5,1.4-1.1,2.2-2c0.9-1,1.2-1.4,1.5-1.9s0.5-0.7,0.3-0.8c-0.2-0.1-0.5-0.1-1.1,0c-0.6,0.1-1.3,0.2-1.9,0.3
				c-0.5,0.1-1,0.2-1.7,0.3c-0.7,0-1.1-0.1-1.7-0.5c-0.5-0.4-0.7-0.9-0.4-1.1c0.4-0.3,1.2,0.2,1.8,0.4c0.6,0.1,1.3,0.1,2,0
				c0.8,0,1.7-0.2,2.4-0.3c0.7-0.2,1-0.4,1.4-0.6c0.4-0.2,0.9,0,1.2,0.2c0.3,0.2,0.6,0.4,0.9,0.7c0.3,0.3,0.2,0.6,0,0.8
				c-0.2,0.2-0.7,0.3-1.1,0.3c-0.4,0.1-0.6,0.4-0.8,0.7c-0.5,0.6-1.1,1.2-2,2.1c-0.4,0.4-0.9,0.9-1.4,1.2c0.3,0.1,0.5,0.3,0.8,0.5
				c0.4,0.3,0.4,0.7,0.4,1.4c0,0.8,0,1.8,0.1,2.5c0,0.8,0.2,1.4,0.2,1.9c0,0.6-0.3,1.3-0.9,1.3c-0.6,0-0.7-0.5-0.7-1.1
				c0-0.6,0.1-1.8,0.1-2.7c0-0.9,0.1-1.6,0-2.2c0-0.4-0.3-0.9-0.6-1.1c-0.4,0.3-0.7,0.5-1.1,0.8c-0.9,0.6-1.6,0.9-2.8,1.6
				C73.1,66.2,72.6,66.4,72.1,66.6z M80.3,54.8c0.2,0.6,0,1.1-0.3,1.2c-0.4,0.1-0.8-0.1-1-0.4c-0.2-0.3-0.3-0.6-0.4-1
				c-0.3-0.6-0.6-1-0.9-1.2c-0.3-0.2-0.4-0.4-0.4-0.6c0.1-0.1,0.4-0.1,0.6,0c0.5,0.1,0.9,0.3,1.3,0.7C79.8,53.9,80.2,54.2,80.3,54.8
				z M87,64.4c0.3,0.6,0.2,1.1-0.2,1.4c-0.4,0.3-0.9,0-1.2-0.5c-0.3-0.5-0.6-1-1.1-1.5c-0.5-0.6-1.4-1.2-2.4-1.4
				c-0.3-0.1-0.6-0.2-0.5-0.4c0-0.2,0.3-0.2,0.6-0.1c0.3,0,0.7,0.2,1.2,0.3c0.9,0.3,1.4,0.5,2.2,0.9C86.1,63.4,86.6,63.8,87,64.4z"
				/>
			<path class="st0" d="M90.1,68.6c0-0.1,0.3-0.3,0.5-0.4c0.9-0.4,1.7-0.8,2.4-1.3c0.7-0.4,1.4-1,2.4-1.9c1-0.9,1.6-1.6,2.3-2.3
				c0.7-0.8,1.6-2.1,2.3-3.1c0.6-1,1-1.7,1.2-2.2c0.1-0.5-0.2-0.8-0.9-0.6c-0.4,0.1-0.7,0.2-1.5,0.4s-1.4,0.3-2.1,0.3
				c-0.7,0-1.4-0.3-1.9-0.6c-0.6-0.5-0.7-1-0.4-1.3c0.2-0.2,0.6-0.3,0.9-0.1c0.3,0.2,0.7,0.4,1.1,0.5c0.7,0.2,1.7,0.1,2.8,0
				s1.8-0.4,2.1-0.5c0.3-0.1,0.7-0.4,1.2-0.1c0.5,0.3,0.8,0.7,0.9,1.5c0.1,0.8-0.2,1.2-0.7,1.6c-0.4,0.3-0.7,0.6-1.2,1.3
				c-0.5,0.6-1.1,1.5-1.9,2.5c0.8,0.2,1.7,0.5,2.5,1.1c1,0.6,1.7,1.3,2.1,1.8c0.5,0.6,0.9,1.8,0.2,2.2c-0.7,0.4-1.4-0.3-1.7-0.9
				c-0.4-0.6-0.7-1.4-1.4-2.2c-0.6-0.8-1.2-1.2-2-1.6c0,0,0,0.1,0,0.1c-1.1,1.2-1.9,2-2.9,2.8c-0.9,0.8-1.7,1.4-2.8,2
				c-0.7,0.4-1.9,0.9-2.6,1.2C90.5,68.8,90.2,68.8,90.1,68.6z"/>
			<path class="st0" d="M123,60.4c-0.3,0.5-1,0.9-1.7,1.3c-0.7,0.3-1.8,0.7-2.7,1.1c-0.2,0.1-0.5,0.2-0.7,0.3c0,0.3,0.1,0.5,0.1,0.8
				c0.1,0.9,0,1.6-0.3,2c-0.2,0.4-0.5,0.7-0.9,0.8c-0.5,0-0.7-0.3-0.5-0.8c0.2-0.5,0.3-1.3,0.3-2.1c0,0,0-0.1,0-0.1
				c-0.4,0.2-0.8,0.3-1.1,0.5c-0.7,0.4-1.3,0.8-1.8,1.5c-0.4,0.6-0.7,1.4-0.3,2c0.4,0.6,1.4,1,2.3,1c0.9,0,1.5-0.1,2.2-0.2
				c0.6-0.1,1.2-0.3,1.5-0.3c0.7,0,1,0.1,1.4,0.4c0.4,0.3,0.4,0.7,0,0.8c-0.2,0.1-0.4,0.2-1.2,0.3c-0.8,0.1-2.3,0.3-3.3,0.2
				c-1.1,0-2.2-0.3-3.1-0.9c-0.8-0.5-1-1.2-1-2.1c0-0.9,0.4-1.4,1-2c0.6-0.6,1.3-1.1,2.2-1.5c0.4-0.2,0.8-0.4,1.3-0.6
				c0-0.4-0.1-0.6-0.3-0.9c-0.4-0.5-1-0.8-1.5-0.8c-0.5-0.1-1,0-1.5,0.2c-0.2,0.1-0.3,0.1-0.4,0.2c-0.3,0.4-0.6,0.7-0.9,1.1
				c-0.6,0.8-1.2,1.2-1.7,1.2c-0.5,0-0.6-0.3-0.6-0.7c0-0.4,0.2-0.8,0.5-1c0.3-0.2,0.7-0.4,1.2-0.7c0.9-0.6,1.7-1.8,2.4-2.9
				c0.3-0.6,0.6-1,0.7-1.5c-0.2,0-0.4,0-0.6,0.1c-0.7,0.1-1.4,0-1.9-0.3c-0.5-0.3-0.6-1-0.4-1.3c0.3-0.4,0.7-0.1,1.2,0.1
				c0.5,0.2,1.1,0.2,1.8,0c0.1,0,0.2,0,0.3-0.1c0.1-0.6-0.1-0.9-0.3-1.1c-0.3-0.3-0.3-0.6-0.1-0.8c0.2-0.1,0.5-0.2,0.9,0
				c0.1,0.1,0.2,0.2,0.3,0.3c0.3,0,0.7,0.1,0.9,0.2c0.2,0,0.7,0.1,0.9,0.3c0.2,0.2,0.1,0.4-0.1,0.7c-0.2,0.3-0.7,1-1.2,1.3
				c-0.1,0.1-0.3,0.2-0.4,0.2c-0.1,0.5-0.3,0.9-0.6,1.3c-0.5,1-0.8,1.5-1.4,2.4c-0.1,0.1-0.1,0.2-0.2,0.3c0.2-0.1,0.4-0.2,0.5-0.2
				c0.5-0.2,1-0.3,1.6-0.1c0.5,0.1,0.9,0.3,1.2,0.7c0.1-0.1,0.2-0.3,0.3-0.4c0.8-1,1.4-1.6,2.5-2.1c1-0.5,2.3-0.6,3.2,0
				C123.6,59,123.3,59.9,123,60.4z M116.1,55c0.1-0.1,0.2-0.1,0.3-0.2c0.3-0.2,0.5-0.4,0.4-0.5c-0.1-0.1-0.2-0.2-0.6-0.2
				c-0.1,0-0.2,0-0.3,0c0.1,0.2,0.1,0.4,0.1,0.6C116.1,54.8,116.1,54.9,116.1,55z M122.1,59c-0.1-0.3-0.6-0.5-1.4-0.3
				c-0.8,0.2-1.4,0.6-1.9,1.1c-0.5,0.5-1,1.2-1.2,1.9c0.1,0.1,0.1,0.3,0.2,0.4c0.2-0.1,0.4-0.2,0.6-0.3c1-0.4,2.1-0.9,3-1.4
				C122.2,59.9,122.2,59.3,122.1,59z"/>
			<path class="st0" d="M127.4,57.4l-0.2-0.5h3.5v-4.6c1.4,0,2.1,0.3,2.1,0.6c0,0.2-0.3,0.4-0.9,0.6v3.3h2.7l0.8-1.1
				c0.9,0.8,1.3,1.2,1.3,1.4c0,0.1-0.1,0.1-0.2,0.2l-0.5,0.3v1.1c0,5.4-0.3,8.7-0.7,10c-0.4,1.1-1.2,1.6-2.4,1.6
				c0-0.4-0.2-0.6-0.4-0.8c-0.3-0.2-0.9-0.4-1.8-0.6v-0.6c1.1,0.2,1.9,0.3,2.5,0.3c0.7,0,1.1-0.3,1.2-1c0.4-1.7,0.6-4.7,0.6-9.1
				v-1.2H132c0,6-1.5,10.5-4.7,13.3l-0.4-0.4c1.8-2.2,3-4.9,3.5-8c0.2-1.3,0.3-2.9,0.4-4.8H127.4z M143.2,55.6l0.8-1
				c0.9,0.7,1.3,1.1,1.3,1.4c0,0.1,0,0.1-0.1,0.2l-0.6,0.4v13.3h-1.2v-1.7h-4v2h-1.2V54.9c0.5,0.2,0.9,0.4,1.4,0.7H143.2z
				 M139.5,56.1v11.4h4V56.1H139.5z"/>
			<path class="st0" d="M152.5,66.7c0.6,0.9,1.5,1.6,2.9,2c1.3,0.4,3.2,0.6,5.8,0.6c1.7,0,3.6-0.1,5.8-0.3c-0.3,0.5-0.5,0.9-0.6,1.4
				h-4.9c-3.1,0-5.3-0.3-6.7-0.9c-1.3-0.5-2.2-1.3-2.7-2.3c-0.7,1-1.4,2-2.2,2.9c0,0.6-0.1,0.8-0.3,0.8c-0.3,0-0.7-0.6-1.3-1.7
				c1.2-0.6,2.2-1.3,3-2v-5.5h-2.8l-0.2-0.5h2.8l0.8-1c0.9,0.6,1.3,1.1,1.3,1.3c0,0.1,0,0.2-0.2,0.2l-0.5,0.3V66.7z M149.5,53.2
				c1.2,0.5,2,1.1,2.7,1.8c0.4,0.5,0.6,0.9,0.6,1.3c0,0.5-0.3,0.8-0.8,0.8c-0.3,0-0.6-0.3-0.8-0.7c-0.3-1-1-1.9-2-2.8L149.5,53.2z
				 M163.7,61.6h-3.3v1.1c1.4,0.5,2.7,1,3.7,1.7c1,0.6,1.5,1.2,1.5,1.7c0,0.5-0.2,0.7-0.6,0.7c-0.2,0-0.4-0.2-0.7-0.5
				c-0.9-1-2.2-2-3.9-3v5h-1.2v-5.4c-1.3,1.7-3.2,3.1-5.6,4.3l-0.3-0.5c2.4-1.4,4.2-3.1,5.5-5.2H156v1.1h-1.2V57
				c0.6,0.2,1,0.4,1.4,0.6h3v-2h-5.7l-0.2-0.5h5.9v-2.7c1.4,0,2.1,0.2,2.1,0.5c0,0.2-0.3,0.4-0.9,0.6v1.7h3.9l1-1.3
				c0.5,0.4,0.9,0.9,1.4,1.4l-0.2,0.4h-6v2h3.2l0.7-0.9c0.8,0.7,1.3,1.1,1.3,1.2c0,0.1-0.1,0.2-0.2,0.3l-0.4,0.3v4h-1.2V61.6z
				 M159.2,58.2H156v2.9h3.2V58.2z M163.7,61.1v-2.9h-3.3v2.9H163.7z"/>
			<path class="st0" d="M183.5,56.1c-0.1,0.3-0.7,1-1.4,1.5c-0.5,0.3-1.2,0.6-2,0.9c0.3,0.6,0.6,1.2,0.7,1.6
				c0.3,0.6,0.7,1.8,0.9,2.3c0.2,0.5,0.4,0.9,0.4,1.3c0,0.3,0,0.7-0.5,1c-0.7,0.5-1.6,0-2.7-0.7c-0.5-0.3-1.1-0.6-1.8-0.7
				c-0.9-0.2-1.9-0.2-2.7,0c-0.8,0.2-1.4,0.9-1.4,1.8c0.1,0.8,0.6,1.5,1.2,2s1.2,0.7,2,0.9c0.8,0.2,1.7,0.2,2.2,0.1
				c0.5-0.1,1.1-0.2,1.5-0.2c0.4,0,0.9,0.2,1.1,0.6c0.2,0.4,0,0.7-0.8,0.8c-0.7,0.1-2.1,0.2-3.3,0.1c-1.2-0.1-2.5-0.6-3.3-1.4
				c-0.9-0.7-1.4-1.8-1.4-2.9c0-1.1,0.8-2,1.8-2.4c0.9-0.3,2.2-0.3,2.8-0.3c0.6,0.1,1.5,0.3,2,0.4c0.5,0.1,1,0.3,1.3,0.3
				c0.3,0,0.5-0.2,0.5-0.7c0-0.2-0.1-0.6-0.3-0.9c-0.2-0.3-0.6-1.2-1-2.1c-0.1-0.2-0.2-0.4-0.3-0.6c-0.2,0-0.3,0.1-0.5,0.1
				c-1,0.3-2.3,0.5-3.2,0.6s-2,0.1-2.9-0.2s-1.3-0.5-1.6-0.8c-0.3-0.2-0.4-0.5-0.3-0.6c0.2-0.2,0.6,0.1,0.8,0.2
				c0.3,0.2,0.7,0.4,1.4,0.5c0.7,0.1,1.5,0,2.3-0.1s1.5-0.3,2.2-0.5c0.4-0.1,0.8-0.2,1.2-0.4c-0.3-0.4-0.5-0.8-0.7-1
				c-0.4-0.6-0.9-1.2-1.3-1.6c-0.3-0.3-0.5-0.8-0.3-1.1c0.3-0.4,0.8-0.3,1.2-0.2c0.3,0.2,0.8,0.4,1.3,0.6s1.5,0.6,2.2,0.7
				c0.6,0.1,1.4,0.1,1.9,0.1C183.5,55.3,183.6,55.7,183.5,56.1z M181.4,56c-0.3-0.1-0.9-0.3-1.5-0.5c-0.6-0.2-1-0.3-1.3-0.5
				c-0.3-0.2-0.5-0.3-0.7-0.2c-0.1,0.1,0.2,0.5,0.4,0.8c0.2,0.3,0.7,1.2,1,1.8c0.1-0.1,0.3-0.1,0.4-0.2c0.7-0.3,1.3-0.7,1.6-0.8
				C181.7,56.3,181.7,56.1,181.4,56z"/>
			<path class="st0" d="M204.9,59.1c0.2,0.3,0,0.7-0.6,0.9c-0.6,0.2-1.6,0.1-2.2,0c-0.6,0-1.2,0-2.3,0c-0.2,0-0.4,0-0.6,0
				c0,0.9-0.1,1.9-0.1,2c0,0.2,0,0.9-0.1,1.1c-0.1,0.3-0.4,0.6-0.9,1c-0.5,0.4-0.8,0.5-1.1,0.3c-0.2-0.2-0.4-0.8-0.6-1.1
				c-0.2-0.4-0.5-0.7-0.8-0.9c-0.2-0.2-0.3-0.3-0.3-0.5c0-0.1,0.2-0.2,0.5-0.1c0.3,0.1,0.9,0.6,1.1,0.7c0.2,0.2,0.3,0.2,0.5,0.1
				c0.2-0.1,0.4-0.3,0.5-0.8c0.1-0.3,0.1-1.1,0.2-1.8c-0.7,0-1.5,0.1-2.1,0.1c-1,0-2.4,0.2-3.2,0.3c0,0,0,0-0.1,0c0,0.4,0,0.7,0,0.9
				c0,0.5-0.2,2.2-0.2,3c0,0.8,0.3,1.7,0.8,2.2c0.4,0.5,1.4,0.9,2.2,1c0.8,0.1,1.8,0.1,2.4,0.1c0.6,0,1.2,0,1.5,0.2
				c0.3,0.2,0.5,0.6,0.4,0.8c-0.1,0.3-0.5,0.4-1.2,0.3c-0.7,0-1.6-0.1-2.4-0.2c-0.8-0.1-1.7-0.3-2.3-0.5c-0.6-0.3-1.3-0.7-1.7-1.3
				c-0.3-0.5-0.6-1.2-0.6-1.8c0-0.7,0-2,0-2.6c0-0.3,0-1.1,0-1.9c-0.7,0.1-1.4,0.2-1.9,0.3c-0.9,0.1-1.7,0.1-2.2-0.2
				c-0.5-0.3-0.7-1.1-0.4-1.3c0.2-0.1,0.3-0.2,0.4-0.2c0.1,0,0.6,0.2,0.9,0.3c0.3,0.1,0.6,0.2,1.1,0.2c0.4,0,1.3,0,2.1-0.1
				c0-0.1,0-0.2,0-0.2c0-0.7,0-1.8-0.1-2.3s-0.4-1.2-0.7-1.4c-0.3-0.2-0.5-0.5-0.4-0.6c0.2-0.4,1-0.1,1.4,0c0.4,0.1,0.8,0.5,1,1
				c0.2,0.5,0,1.6,0.1,2.3c0,0.3,0,0.7,0,1.1c0.9-0.1,2-0.3,2.7-0.3c0.8,0,2-0.3,2.7-0.3c0-0.9,0-2-0.1-2.4c-0.1-0.5-0.3-1-0.5-1.3
				c-0.3-0.3-0.3-0.7-0.2-0.9c0.2-0.2,0.5-0.1,0.8,0c0.3,0.1,0.6,0.5,0.9,1c0.3,0.5,0.2,0.9,0.2,1.4c0,0,0,0.1,0,0.2
				c0.2,0.2,0.4,0.4,0.6,0.6c0.4,0.3,0.9,0.7,1.1,0.8c0.3,0.2,0.7,0.3,0.9,0.3c0.3,0,1-0.1,1.6-0.1
				C204.2,58.5,204.7,58.8,204.9,59.1z M200.6,58.7c-0.4-0.3-0.9-0.7-1.3-1.1c0,0.4,0,0.8,0,1.2C199.9,58.8,200.6,58.7,200.6,58.7z"
				/>
			<path class="st0" d="M220,67.2c-0.9,1-1.9,1.5-3.1,1.8c-1.2,0.3-2.3,0.3-3.7,0c-1.4-0.3-2-0.8-2-1.5c0-0.7,0.9-1.2,1.6-1.4
				c0.8-0.2,1.7-0.1,2.4,0.4c0.6,0.5,0.6,1,0.3,1.6c1.1-0.1,2.1-0.5,2.9-1.1c0.9-0.7,1.3-1.8,1.3-2.8c0-1.1-0.8-2.3-2-2.9
				c-1.3-0.6-2.7-0.6-4.1-0.1c-1.4,0.5-2.4,1.2-3.1,2.1c-0.7,0.9-1.2,2-1.4,2.6c-0.2,0.6-0.4,0.9-0.7,1.1c-0.1,0.1-0.4,0.2-0.8-0.1
				c-0.3-0.2-0.3-0.7-0.3-1c0-0.3,0.6-1,1-1.6c0.4-0.6,1-1.4,1.8-2.3c0.8-0.9,2-2.4,2.5-2.9c0.5-0.6,2.1-2.5,2.3-2.9
				c0.3-0.3,0.4-0.6,0.3-0.7c-0.1-0.1-0.5,0-0.7,0.2c-0.3,0.2-1.4,0.8-2,1.2c-0.7,0.3-1.1,0.5-1.7,0.5c-0.6,0-1-0.3-1.2-0.5
				c-0.2-0.2-0.3-0.6-0.3-0.7c0.1-0.2,0.3-0.3,0.5-0.2c0.2,0,0.5,0.1,0.8,0.1c0.3,0,0.6,0,1.3-0.3c0.7-0.3,1.6-0.7,2.4-1.1
				s1.3-0.7,1.7-0.7c0.5,0,0.9,0.3,1.2,0.6c0.3,0.3,0.3,0.5,0.3,0.7c0,0.2-0.2,0.3-0.5,0.5c-0.3,0.2-1,0.8-1.6,1.4
				c-0.6,0.6-1.4,1.6-1.9,2.2c0,0-0.6,0.6-1.6,1.7c0.3-0.2,0.6-0.4,1.3-0.6c0.9-0.3,1.8-0.5,3-0.4c1.2,0.1,2.2,0.5,3,1.1
				c0.9,0.6,1.6,1.5,1.7,2.9C221.2,65.4,220.8,66.3,220,67.2z M213.4,66.8c-0.7,0-1.2,0.5-0.9,0.9c0.2,0.3,0.8,0.5,1.7,0.5
				C215.2,67.4,214.4,66.8,213.4,66.8z"/>
			<path class="st0" d="M237.2,52.3v0.9H233v14h-0.9V52.3H237.2z"/>
			<path class="st0" d="M244,63.7c0.5-0.2,0.8-0.4,1.5-0.8c1.2-0.7,2.1-1.3,3.5-2.4c1.3-1.1,2.6-2.2,3.6-3.2c1-1,1.7-1.8,2.1-2.3
				c0.4-0.5,0.4-0.8,0.3-1.1c-0.2-0.3-0.2-0.6,0-0.7c0.5-0.3,1.4,0.2,1.7,0.6c0.3,0.3,0.4,0.8,0.2,1.1c-0.2,0.3-0.5,0.6-0.9,0.9
				c-0.4,0.3-1.2,1-1.9,1.7c-0.3,0.3-0.7,0.7-1.1,1c0.3,0,0.6,0.1,0.8,0.2c0.5,0.2,0.9,0.5,0.9,0.9c0.1,0.4-0.1,0.6-0.2,0.9
				c-0.1,0.4-0.1,1.3-0.1,2.1c0,0.7,0,1.8,0,2.8c0,1,0.1,2.1,0.1,2.9c0,0.8-0.2,1.4-0.8,1.3c-0.6,0-0.8-0.9-0.7-1.3
				c0.1-0.4,0.2-1.3,0.2-2.3c0-0.9,0.1-2,0.1-3.1c0-1,0-1.6,0-2.3c0-0.6-0.1-1.1-0.3-1.5c-0.1-0.2-0.3-0.3-0.5-0.3
				c-0.2,0.2-0.4,0.4-0.6,0.6c-0.8,0.7-2.2,1.6-3.3,2.3c-1.1,0.7-1.7,1-2.4,1.3c-0.6,0.3-1.2,0.6-2,0.8
				C243.9,64.2,243.7,63.9,244,63.7z"/>
			<path class="st0" d="M263,67.9c1.2-0.7,1.9-1.2,2.8-2.1c0.9-0.9,1.8-1.8,2.9-3.1s1.8-2.2,2.4-3.5c0.7-1.4,0.9-2,1-2.6
				c0.1-0.6,0.2-1-0.2-1.4c-0.2-0.2-0.3-0.3-0.2-0.5c0-0.2,0.2-0.4,0.7-0.3c0.5,0.1,1.1,0.3,1.5,0.9c0.5,0.7,0.1,1.8-0.5,2.9
				c-0.6,1.1-1.1,1.7-1.7,2.7c-0.7,1-1.3,1.7-2.4,2.9c-1.1,1.1-2.1,2-3.3,2.9c-1.2,0.9-2.2,1.4-2.6,1.6c-0.5,0.2-0.9,0.3-0.9,0.1
				C262.4,68.4,262.8,68.1,263,67.9z"/>
			<path class="st0" d="M295,64.7c0.2,0.3-0.1,0.9-0.7,1.1c-0.9,0.3-1.7,0.2-2.5-0.3c-0.8-0.4-1.9-1.7-2.6-2.4
				c-0.7-0.7-1.2-1.3-2.3-2.4c-0.8-0.9-1.3-1.4-1.7-1.9c-0.3-0.4-0.5-0.7-0.9-0.7c-0.3,0-0.5,0.3-0.7,0.6c-0.4,0.5-0.9,1.2-1.4,1.9
				c-0.5,0.7-0.8,1-1.3,1.6c-0.5,0.6-1.6,0.6-2.2,0.4c-0.6-0.3-0.9-0.7-0.7-0.9c0.1-0.3,0.5-0.3,0.8-0.3c0.3,0.1,0.6,0,0.9-0.1
				c0.4-0.2,1-0.7,1.8-1.6c0.9-0.9,1.5-1.8,1.8-2.1c0.3-0.3,0.6-0.7,1-0.7c0.4,0,0.6,0.2,0.9,0.5c0.5,0.6,0.9,1,1.6,1.7
				c0.7,0.6,1.6,1.4,2.6,2.5c1.1,1,1.9,1.6,2.6,2.1c0.7,0.5,1.2,0.7,1.7,0.7C294.3,64.6,294.9,64.4,295,64.7z M290.6,58.2
				c-0.3-0.3-0.8-0.7-1.3-1c-0.2-0.1-0.3-0.3-0.2-0.5c0.1-0.1,0.3-0.1,0.4-0.1c0.3,0,0.8,0.1,1.2,0.3c0.5,0.2,1.1,0.5,1.4,0.9
				c0.2,0.4,0,0.8-0.3,0.8C291.4,58.7,290.9,58.5,290.6,58.2z M292.4,57.2c-0.3-0.4-0.8-0.6-1.4-0.9c-0.2-0.1-0.3-0.3-0.2-0.4
				c0.1-0.1,0.3-0.1,0.4-0.1c0.3,0,0.8,0.1,1.2,0.2c0.5,0.1,1.2,0.5,1.4,0.9c0.2,0.4,0,0.7-0.3,0.9
				C293.3,57.7,292.7,57.6,292.4,57.2z"/>
			<path class="st0" d="M313.8,62c0,0.3-0.4,0.4-0.9,0.3c-0.5-0.1-1.8-0.2-2.6-0.3c-0.8-0.1-2.6-0.2-3.5-0.1
				c-0.8,0.1-2.5,0.1-3.6,0.2c-0.9,0.1-1.8,0.3-2.6,0.3c-0.8,0-1.6-0.3-2.1-0.6c-0.5-0.3-0.6-0.9-0.4-1.1c0.4-0.3,1.1,0,1.6,0.1
				c0.5,0.2,1.6,0.3,2.5,0.3c0.9,0,2.9-0.1,3.9-0.2c1,0,3.7-0.1,4.6-0.2c0.9,0,1.9,0,2.4,0.2C313.6,61.3,313.8,61.7,313.8,62z"/>
			<path class="st0" d="M317.7,60c0-0.3,0.8-0.2,1.4-0.2c0.6,0,1.3,0.1,1.9,0.4c0.6,0.3,0.8,0.4,1.2,0.8c0.4,0.4,0.5,1,0.1,1.4
				c-0.4,0.3-1,0.1-1.3-0.3c-0.4-0.4-0.7-0.8-1.2-1.1c-0.3-0.2-0.8-0.5-1.5-0.7C317.9,60.2,317.7,60.2,317.7,60z M324.1,57.6
				c0.4,0.4,0.5,0.9,0.2,1.3c-0.3,0.3-0.7,0.3-1.2,0c-0.5-0.3-0.9-0.7-1.2-1.1c-0.6-0.7-1.2-1-2.1-1.2c-0.3-0.1-0.5-0.2-0.5-0.3
				c0-0.2,0.3-0.3,0.6-0.3c0.2,0,0.5,0,1,0.1c0.6,0.1,1.1,0.2,1.7,0.5C323.2,56.8,323.6,57.1,324.1,57.6z M333.4,57.8
				c-0.5,0.7-1.4,2-2.3,3c-0.9,1-1.4,1.5-2.8,2.9c-1.4,1.3-3.1,2.5-4.4,3.3c-1,0.6-1.7,0.9-2.5,0.9c-0.8,0-1.2-0.5-1.4-1
				c-0.2-0.5-0.3-1,0-1.2c0.2-0.2,0.4,0,0.7,0.2c0.3,0.2,0.6,0.3,1.1,0.4c0.6,0,1.5-0.4,3-1.3c0.9-0.5,1.7-1.1,2.9-2.1
				c1.2-0.9,2.2-1.8,3-2.7c0.8-0.9,1.8-2.2,2.2-2.8c0.3-0.5,0.8-1.1,1-0.9C334,56.6,333.9,57,333.4,57.8z"/>
			<path class="st0" d="M349,59.1c0.2,0.2,0.1,0.5,0,0.6c-0.2,0.1-0.3,0.6-0.4,1.1c-0.1,0.4-0.2,1.4-0.4,2.2
				c-0.1,0.9-0.4,2.4-0.5,3.2c-0.1,0.8,0,1.5,0,1.8c0,0.2,0,0.5-0.1,0.5c-0.1,0-0.3,0.1-0.6,0.2c-0.3,0.1-0.5,0-0.6-0.1
				c-0.2-0.1-0.4-0.1-0.9-0.1c-0.4,0-1.7,0.2-2.5,0.3c-0.7,0.1-1.9,0.3-2.5,0c-0.7-0.4-0.8-0.9-0.6-1.1c0.2-0.2,0.4,0,0.8,0.1
				c0.4,0.1,1.4,0.1,2.3,0c0.9,0,2-0.1,2.5-0.1c0.4,0,0.7-0.1,0.8-0.2c0.1-0.1,0.2-0.5,0.2-1.1c0.1-0.6,0.2-1.5,0.3-2.7
				c-0.4,0-1.2,0.2-1.9,0.3c-0.8,0.1-1.8,0.3-2.8,0.3c-0.9,0.1-1.5,0.1-2-0.3c-0.4-0.4-0.6-0.9-0.3-1.1c0.3-0.2,0.6,0,0.9,0.2
				c0.3,0.2,0.7,0.3,1.5,0.2c0.8,0,1.7-0.1,2.3-0.1c0.5,0,1.1-0.1,2.3-0.3c0.1-1.1,0.2-1.9,0.2-2.3c0-0.4,0-0.7-0.1-0.9
				c-0.2-0.2-0.5-0.1-1.1,0c-0.6,0.1-1.4,0.2-2.3,0.3c-0.9,0.1-1.8,0.3-2.4,0.4c-0.6,0-1.2-0.2-1.6-0.5c-0.4-0.3-0.6-0.9-0.4-1
				c0.1-0.1,0.3-0.1,0.6,0c0.3,0.2,0.7,0.3,1.3,0.3c0.6,0,1.5-0.1,2.4-0.1c0.9,0,2.1,0,2.4,0s0.7,0,0.8-0.1c0.1-0.1,0.3-0.2,0.4-0.4
				c0.2-0.2,0.4-0.3,0.8-0.1C348.3,58.6,348.8,58.9,349,59.1z"/>
			<path class="st0" d="M355,57.2c-0.5-0.3-0.8-0.4-0.7-0.6c0.1-0.2,0.5-0.2,0.9-0.1c0.5,0,1,0.2,1.7,0.4c0.6,0.3,1,0.5,1.6,1
				c0.6,0.5,0.9,1.4,0.3,1.7c-0.5,0.3-1.1,0-1.7-0.7C356.3,58,355.7,57.6,355,57.2z M369.7,56.9c-0.3,0.5-0.7,1.1-1.6,2.4
				c-0.8,1.1-1.7,2.3-2.9,3.4c-1.2,1.2-2.5,2.1-3.9,3.1c-1.4,0.9-2.6,1.4-3.6,1.7c-1,0.3-1.4,0.1-1.8-0.4c-0.4-0.5-0.5-1.3-0.3-1.5
				l0.8,0.2c0.2,0.1,0.6,0.2,1.1,0.1c0.8,0,2.3-0.6,3.3-1.3c1.1-0.7,2.5-1.8,3.6-2.8c1.1-0.9,1.8-1.6,2.9-2.9
				c1.1-1.4,1.7-2.1,1.8-2.3c0.2-0.2,0.3-0.3,0.5-0.3C369.9,56.5,369.9,56.6,369.7,56.9z"/>
			<path class="st0" d="M376.4,70.8v-0.9h4.2v-14h0.9v14.9H376.4z"/>
			<path class="st0" d="M391,66.3c0.9,0.5,1.3,1.2,1.3,2.2c0,0.6-0.3,1.3-0.7,1.8c-0.5,0.6-1.1,0.8-1.9,0.8c-0.4,0-0.8-0.1-1.1-0.3
				c-1-0.5-1.5-1.3-1.5-2.3c0-0.9,0.4-1.7,1.2-2.2c0.4-0.3,0.9-0.4,1.3-0.4C390.1,65.9,390.5,66,391,66.3z M388.3,67.2
				c-0.3,0.3-0.5,0.8-0.5,1.3c0,0.3,0.1,0.7,0.3,1c0.4,0.6,0.9,0.9,1.6,0.9c0.5,0,0.9-0.2,1.2-0.5c0.4-0.4,0.6-0.9,0.6-1.4
				c0-0.6-0.3-1.1-0.8-1.5c-0.3-0.2-0.7-0.3-1.1-0.3C389.1,66.6,388.7,66.8,388.3,67.2z"/>
		</g>
	</g>
	<g>
		<g>
			<polygon class="st1" points="215.2,128.5 215.2,132.9 208.2,138.8 201.3,132.9 201.3,128.5 208.2,134.4 			"/>
			<polygon class="st1" points="215.2,119.6 215.2,124.1 208.2,130.1 201.3,124.1 201.3,119.6 208.2,125.6 			"/>
		</g>
	</g>
</g>
<g>
</g>
<g>
</g>
<g>
</g>
<g>
</g>
<g>
</g>
<g>
</g>
</svg>
