<?xml version="1.0" encoding="utf-8"?>
<!-- Generator: Adobe Illustrator 20.1.0, SVG Export Plug-In . SVG Version: 6.00 Build 0)  -->
<svg version="1.1" id="レイヤー_1" xmlns="http://www.w3.org/2000/svg" xmlns:xlink="http://www.w3.org/1999/xlink" x="0px"
	 y="0px" width="420px" height="150px" viewBox="0 0 420 150" style="enable-background:new 0 0 420 150;" xml:space="preserve">
<style type="text/css">
	.st0{fill:#D7000E;}
	.st1{fill:#FFFFFF;}
</style>
<g>
	<g>
		<polygon class="st0" points="217.1,128.5 217.1,132.9 210,138.8 203.1,132.9 203.1,128.5 210,134.4 		"/>
		<polygon class="st0" points="217.1,119.6 217.1,124.1 210,130.1 203.1,124.1 203.1,119.6 210,125.6 		"/>
	</g>
</g>
<g>
	<g>
		<g>
			<path class="st1" d="M55.1,26.2c0,1.2,0.1,3.6,0.2,4.5h-4.1c-0.1-0.5-0.2-1.5-0.2-2.2c-0.8,1.5-2.4,2.6-5.1,2.6
				c-4.2,0-5.9-3.4-5.9-6.5c0-4.4,3-7.3,8.7-7.3c0.8,0,1.4,0,2,0.1v-2.6c0-1.4-0.3-3.2-2.7-3.2c-2.5,0-2.8,1.7-2.9,3.2h-4.2
				c0.1-3.2,1.6-6.7,7.3-6.7c4.6,0,6.9,2.2,6.9,6.3V26.2z M50.8,20.7c-0.5-0.1-1-0.1-1.9-0.1c-3.2,0-4.5,1.6-4.5,3.6
				c0,1.6,0.8,3.2,2.9,3.2c2.8,0,3.5-2.1,3.5-5.8V20.7z"/>
			<path class="st1" d="M60.8,15.2c0-4.2,0-5.7,0-6.7h4.3c0.1,0.5,0.1,1.6,0.1,2.5c1-1.8,2.6-2.9,4.9-2.9c2.4,0,3.8,1.1,4.5,3.1
				c0.9-1.6,2.5-3.1,5.4-3.1c3,0,5.5,1.5,5.5,6.6v16h-4.4V15.4c0-1.9-0.6-3.5-2.6-3.5c-2.3,0-3.1,1.9-3.1,4.7v14H71V15.5
				c0-2.3-0.7-3.5-2.6-3.5c-2.2,0-3.2,1.8-3.2,4.9v13.8h-4.4V15.2z"/>
			<path class="st1" d="M106.8,19.4c0,8-2.9,11.7-8.2,11.7c-5.3,0-8.1-3.6-8.1-11.7c0-7.8,3.2-11.4,8.3-11.4
				C104,8.1,106.8,12,106.8,19.4z M95.1,19.5c0,5.2,1,7.9,3.6,7.9c2.5,0,3.5-2.7,3.5-7.8c0-5.2-1-7.6-3.5-7.6
				C96.3,11.9,95.1,14.3,95.1,19.5z"/>
			<path class="st1" d="M111.7,16c0-3.6,0-5.9,0-7.5h4.3c0,0.4,0.1,1.4,0.1,3.8c0.9-2.6,2.9-4.1,5.8-4.1v5c-3.7,0-5.7,1.5-5.7,5.7
				v11.9h-4.5V16z"/>
			<path class="st1" d="M126.1,38.8V14.9c0-3,0-5.1,0-6.4h4.3c0.1,0.5,0.1,1.7,0.1,2.6c0.7-1.6,2.1-3,5.1-3c4.1,0,6.5,3.6,6.5,11.1
				c0,8.4-2.9,11.9-7.1,11.9c-2.4,0-3.7-1.1-4.4-2.3v10H126.1z M133.9,12c-2.9,0-3.5,2.7-3.5,7.4c0,5.1,0.3,7.9,3.5,7.9
				c2.5,0,3.7-2.8,3.7-7.8C137.5,14.1,136.3,12,133.9,12z"/>
			<path class="st1" d="M151.5,0v10.8c0.8-1.6,2.3-2.7,5.1-2.7c3.5,0,5.6,2.2,5.6,6.9v15.7h-4.5V15.9c0-2.4-0.5-3.9-2.9-3.9
				c-2.5,0-3.3,2-3.3,5.3v13.5h-4.4V0H151.5z"/>
			<path class="st1" d="M170.5,8.5c1.9,7.9,3.5,14.1,3.8,16.7h0c0.5-3,2.2-9.8,3.8-16.7h4.5l-6.4,23.2c-1.9,6.8-4.1,7.3-7.2,7.3
				c-0.6,0-1.3,0-1.9-0.2v-3.8c0.3,0,1,0.1,1.6,0.1c2.1,0,2.7-1.2,3.4-4.1l-6.6-22.5H170.5z"/>
			<path class="st1" d="M206.6,10.7v8.4h8.1v1.8h-8.1v8.6h-1.8v-8.6h-8.1v-1.8h8.1v-8.4H206.6z"/>
			<path class="st1" d="M233.4,20.2l-2.5,10.5h-1.9l7.3-29.4h2.5l7.6,29.4h-2.1l-2.6-10.5H233.4z M241.1,18.4
				c-2.1-8.2-3.3-13.1-3.7-15.2h-0.1c-0.4,2.5-1.8,8.3-3.5,15.2H241.1z"/>
			<path class="st1" d="M251.4,30.7V1.3h2.7c9.5,22.9,10.6,25.5,11,26.7h0c-0.2-4.2-0.3-8.7-0.3-13.5V1.3h1.9v29.4h-2.6
				c-9.8-23.9-10.8-26.4-11.1-27.4h0c0.2,3.7,0.3,8.9,0.3,14.2v13.3H251.4z"/>
			<path class="st1" d="M279.1,30.7V19c0-0.3-0.1-0.5-0.1-0.6l-7.5-17.1h2.2c2.2,5.2,5.6,12.9,6.5,15.2c1-2.4,4.4-10.2,6.6-15.2h2.1
				l-7.6,17.1c-0.1,0.1-0.1,0.3-0.1,0.6v11.7H279.1z"/>
			<path class="st1" d="M298.6,3.1h-6.7V1.3h15.4v1.8h-6.7v27.6h-1.9V3.1z"/>
			<path class="st1" d="M312,1.3h1.9v12.9H325V1.3h1.9v29.4H325V16h-11.1v14.7H312V1.3z"/>
			<path class="st1" d="M335.9,1.3v29.4H334V1.3H335.9z"/>
			<path class="st1" d="M343,30.7V1.3h2.7c9.5,22.9,10.6,25.5,11,26.7h0c-0.2-4.2-0.3-8.7-0.3-13.5V1.3h1.9v29.4h-2.6
				c-9.8-23.9-10.8-26.4-11.1-27.4h0c0.2,3.7,0.3,8.9,0.3,14.2v13.3H343z"/>
			<path class="st1" d="M380,30.7h-1.6c-0.1-0.8-0.2-1.8-0.2-3.6c-0.7,1.9-1.9,4-5.9,4c-6.5,0-7.8-7.3-7.8-15.2c0-9.7,2.8-15,8.6-15
				c6.4,0,6.9,5.9,7,7.7h-1.9c-0.1-1-0.3-5.9-5.1-5.9c-4.6,0-6.4,5.1-6.4,13.2c0,7.7,1.3,13.5,5.9,13.5c4.7,0,5.7-4.1,5.7-11.4v-1.3
				h-5.8v-1.8h7.7V30.7z"/>
		</g>
	</g>
</g>
</svg>
