<?xml version="1.0" encoding="utf-8"?>
<!-- Generator: Adobe Illustrator 20.1.0, SVG Export Plug-In . SVG Version: 6.00 Build 0)  -->
<svg version="1.1" id="レイヤー_1" xmlns="http://www.w3.org/2000/svg" xmlns:xlink="http://www.w3.org/1999/xlink" x="0px"
	 y="0px" width="420px" height="150px" viewBox="0 0 420 150" style="enable-background:new 0 0 420 150;" xml:space="preserve">
<style type="text/css">
	.st0{fill:#FFFFFF;}
	.st1{fill:#D7000E;}
</style>
<g>
	<g>
		<g>
			<g>
				<path class="st0" d="M21.2,26.2c0,1.2,0.1,3.6,0.2,4.5h-4.1c-0.1-0.5-0.2-1.5-0.2-2.2c-0.8,1.5-2.4,2.6-5.1,2.6
					c-4.2,0-5.9-3.4-5.9-6.5c0-4.4,3-7.3,8.7-7.3c0.8,0,1.4,0,2,0.1v-2.6c0-1.4-0.3-3.2-2.7-3.2c-2.5,0-2.8,1.7-2.9,3.2H6.9
					c0.1-3.2,1.6-6.7,7.3-6.7c4.6,0,6.9,2.2,6.9,6.4V26.2z M16.9,20.7c-0.5-0.1-1-0.1-1.9-0.1c-3.2,0-4.5,1.6-4.5,3.6
					c0,1.6,0.8,3.2,2.9,3.2c2.8,0,3.5-2.1,3.5-5.8V20.7z"/>
				<path class="st0" d="M26.9,15.2c0-4.2,0-5.7,0-6.7h4.3c0.1,0.5,0.1,1.6,0.1,2.5c1-1.8,2.6-2.9,4.9-2.9c2.4,0,3.8,1.1,4.5,3.1
					c0.9-1.6,2.5-3.1,5.4-3.1c3,0,5.5,1.5,5.5,6.6v16h-4.4V15.4c0-1.9-0.6-3.5-2.6-3.5c-2.3,0-3.1,1.9-3.1,4.7v14h-4.4V15.5
					c0-2.3-0.7-3.5-2.6-3.5c-2.2,0-3.2,1.8-3.2,4.9v13.8h-4.4V15.2z"/>
				<path class="st0" d="M72.9,19.4c0,8-2.9,11.7-8.2,11.7c-5.3,0-8.1-3.6-8.1-11.7c0-7.8,3.2-11.4,8.3-11.4
					C70.2,8.1,72.9,12,72.9,19.4z M61.2,19.5c0,5.2,1,7.9,3.6,7.9c2.5,0,3.5-2.7,3.5-7.8c0-5.2-1-7.6-3.5-7.6
					C62.4,11.9,61.2,14.3,61.2,19.5z"/>
				<path class="st0" d="M77.8,16c0-3.6,0-5.9,0-7.5h4.3c0,0.4,0.1,1.4,0.1,3.8c0.9-2.6,2.9-4.1,5.8-4.1v5c-3.7,0-5.7,1.5-5.7,5.7
					v11.9h-4.5V16z"/>
				<path class="st0" d="M92.2,38.8V14.9c0-3,0-5.1,0-6.4h4.3c0.1,0.5,0.1,1.7,0.1,2.6c0.7-1.6,2.1-3,5.1-3c4.1,0,6.5,3.6,6.5,11.1
					c0,8.4-2.9,11.9-7.1,11.9c-2.4,0-3.7-1.1-4.4-2.3v10H92.2z M100,12c-2.9,0-3.5,2.7-3.5,7.4c0,5.1,0.3,7.9,3.5,7.9
					c2.5,0,3.7-2.8,3.7-7.8C103.6,14.1,102.5,12,100,12z"/>
				<path class="st0" d="M117.6,0v10.8c0.8-1.6,2.3-2.7,5.1-2.7c3.5,0,5.6,2.2,5.6,6.9v15.7h-4.5V15.9c0-2.4-0.5-3.9-2.9-3.9
					c-2.5,0-3.3,2-3.3,5.3v13.5h-4.4V0H117.6z"/>
				<path class="st0" d="M136.6,8.5c1.9,7.9,3.5,14.1,3.8,16.7h0c0.5-3,2.2-9.8,3.8-16.7h4.5l-6.4,23.2c-1.9,6.8-4.1,7.3-7.2,7.3
					c-0.6,0-1.3,0-1.9-0.2v-3.8c0.3,0,1,0.1,1.6,0.1c2.1,0,2.7-1.2,3.4-4.1l-6.6-22.5H136.6z"/>
				<path class="st0" d="M172.7,10.7v8.4h8.1v1.8h-8.1v8.6h-1.8v-8.6h-8.1v-1.8h8.1v-8.4H172.7z"/>
				<path class="st0" d="M197.6,1.3h5.8c6.3,0,9.4,4.7,9.4,13.8c0,10-2.7,15.6-9.9,15.6h-5.3V1.3z M199.5,28.9h3.2c6.2,0,8-5,8-13.7
					c0-8.5-2.5-12.2-8-12.2h-3.3V28.9z"/>
				<path class="st0" d="M230.8,15.9h-10.1v13h11.1l-0.3,1.8h-12.7V1.3h12.5v1.8h-10.6v11h10.1V15.9z"/>
				<path class="st0" d="M242.8,30.7l-7.3-29.4h2.1l3.6,14.9c1,4.2,2.4,9.8,2.8,12.5h0.1c0.4-2.2,2-8.2,3.1-12.5L251,1.3h2
					l-7.7,29.4H242.8z"/>
				<path class="st0" d="M270,15.9h-10.1v13H271l-0.3,1.8H258V1.3h12.5v1.8h-10.6v11H270V15.9z"/>
				<path class="st0" d="M276.3,1.3h1.9v27.6H289l-0.4,1.8h-12.3V1.3z"/>
				<path class="st0" d="M308,15.7c0,9.6-2,15.4-8.1,15.4c-5.9,0-8-5.5-8-15.2c0-9.7,2.5-14.9,8.1-14.9C305.9,0.9,308,5.9,308,15.7z
					 M293.9,15.8c0,9.3,2.1,13.6,6.1,13.6c4.1,0,6-4.3,6-13.5c0-9.7-2.2-13.2-6.1-13.2C296.1,2.7,293.9,6.8,293.9,15.8z"/>
				<path class="st0" d="M314.2,1.3h6.8c4.4,0,7.3,2.9,7.3,7.9c0,4.9-2.6,8.4-7.9,8.4h-4.4v13.2h-1.9V1.3z M316.1,15.7h4.2
					c3.9,0,6-2.1,6-6.6c0-3.5-1.8-6.1-5.6-6.1h-4.6V15.7z"/>
				<path class="st0" d="M351.1,17.1c0-5.7,0.1-11.1,0.2-14.1h0c-1.1,4.8-4.4,18.5-7.1,27.6h-2c-2-7.6-5.5-22.4-6.7-27.7h-0.1
					c0.2,3.4,0.3,10.1,0.3,15.1v12.6h-1.9V1.3h2.9c2.9,9.9,5.8,23,6.6,26.6h0c0.5-2.7,4-17,6.9-26.6h2.9v29.4h-2V17.1z"/>
				<path class="st0" d="M372.1,15.9H362v13h11.1l-0.3,1.8h-12.7V1.3h12.5v1.8H362v11h10.1V15.9z"/>
				<path class="st0" d="M378.4,30.7V1.3h2.7c9.5,22.9,10.6,25.5,11,26.7h0c-0.2-4.2-0.3-8.7-0.3-13.5V1.3h1.9v29.4h-2.6
					C381.3,6.8,380.3,4.3,380,3.3h0c0.2,3.7,0.3,8.9,0.3,14.2v13.3H378.4z"/>
				<path class="st0" d="M405.2,3.1h-6.7V1.3h15.4v1.8h-6.7v27.6h-1.9V3.1z"/>
			</g>
		</g>
		<g>
			<path class="st0" d="M60.9,65.4c-1.1,1.6-2.5,3.1-4.2,4.3l-0.4-0.4c2-1.7,3.5-3.6,4.5-5.7H57L56.8,63h4.1v-2.4
				c1.3,0.1,2,0.2,2,0.5c0,0.1-0.3,0.3-0.8,0.5V63h2.1l0.9-1.1c0.5,0.5,0.9,0.9,1.1,1.3l-0.2,0.4h-3.9v0.8c2.3,0.9,3.5,1.7,3.5,2.7
				c0,0.5-0.2,0.7-0.6,0.7c-0.2,0-0.4-0.2-0.6-0.5c-0.5-0.9-1.2-1.6-2.2-2.3v6h-1.1V65.4z M62,59.6c0.5-1.2,0.9-2.5,1.2-3.7
				c1.1,0.4,1.7,0.8,1.7,1c0,0.2-0.3,0.3-0.8,0.3c-0.3,0.6-0.8,1.4-1.5,2.4h2l0.9-1.2c0.4,0.4,0.8,0.9,1.1,1.3l-0.2,0.4h-9.5
				l-0.2-0.5H62z M60.9,55.2v-2.8c1.3,0,2,0.2,2,0.5c0,0.2-0.3,0.3-0.8,0.5v1.8h2.1l0.8-1.2c0.4,0.4,0.8,0.8,1,1.1l0.2,0.2l-0.3,0.4
				h-8.6l-0.2-0.5H60.9z M58.4,56c1.4,0.9,2.2,1.8,2.2,2.7c0,0.5-0.3,0.8-0.7,0.8c-0.3,0-0.5-0.2-0.6-0.7c-0.1-0.8-0.4-1.6-1.2-2.4
				L58.4,56z M68.3,60.3v0.3c0,2.2-0.2,4-0.6,5.6c-0.5,1.8-1.4,3.4-2.7,4.7l-0.4-0.3c1.1-1.6,1.8-3.4,2.2-5.4c0.2-1.4,0.3-3.1,0.3-5
				v-5.9c0.6,0.2,1,0.4,1.4,0.6c1.6-0.5,3-1.2,4.1-2.1c0.9,0.6,1.4,1,1.4,1.3c0,0.1-0.1,0.2-0.4,0.2c-0.2,0-0.4,0-0.6-0.1
				c-1.4,0.5-2.9,0.9-4.7,1.3v4.4H73l1-1.4c0.5,0.5,1,0.9,1.3,1.4L75,60.3h-2.8v10.4H71V60.3H68.3z"/>
			<path class="st0" d="M81.7,61.6c0.2-0.5,0.6-1.5,0.9-2.4c-0.3,0-0.6,0-0.9,0c-0.9,0-1.5,0-2.1-0.3c-0.4-0.2-0.6-0.6-0.4-0.8
				c0.1-0.1,0.3-0.1,0.4,0c0.1,0,0.3,0.2,0.6,0.2c0.2,0.1,0.5,0.1,1,0.1c0.5,0,0.9-0.1,1.7-0.3c0.2-0.8,0.3-1.7,0.3-2.2
				c0-0.6-0.3-1.1-0.5-1.4c-0.2-0.3-0.3-0.7-0.1-0.9c0.2-0.2,0.6,0,0.9,0.2c0.3,0.2,0.5,0.4,0.7,1.1c0.1,0.3,0.1,0.7,0,1.1
				c0.5,0.2,1.1,0.5,1.5,0.6c0.4,0.1,0.8,0.2,0.9,0.4c0.1,0.2,0.1,0.5-0.3,0.8c-0.3,0.4-1.1,0.8-1.9,1c-0.3,0.1-0.7,0.1-1,0.2
				c-0.1,0.3-0.1,0.5-0.2,0.7c-0.2,0.6-0.7,2.1-0.9,2.6c-0.2,0.6-0.8,2.4-1.1,3.4c-0.3,0.9-1.2,3.1-1.4,3.4
				c-0.2,0.3-0.5,0.4-0.9,0.2c-0.3-0.2-0.3-0.8-0.3-1.1s0.3-0.9,0.6-1.5c0.3-0.6,0.6-1.4,1-2.2C80.8,63.7,81.5,62.2,81.7,61.6z
				 M84.1,56.7c0,0.2-0.1,0.3-0.1,0.4c0,0.1-0.1,0.4-0.2,0.7c0.5-0.2,0.7-0.4,0.8-0.4c0.2-0.1,0.1-0.3,0-0.4
				C84.6,56.9,84.4,56.8,84.1,56.7z M93.5,68.5c0.3,0.4-0.2,0.9-0.8,0.9c-0.8,0.1-2.2,0.1-3.9-0.1c-1.7-0.3-2.4-0.9-2.9-1.8
				c-0.5-1-0.1-1.9,0.3-2.9c0.4-1,0.8-1.5,0.9-1.7c0.1-0.2,0.3-0.3,0.4-0.2c0.1,0,0,0.2-0.1,0.4c-0.2,0.3-0.4,0.8-0.7,1.7
				c-0.3,0.9-0.2,1.7,0.1,2.1c0.4,0.6,1.1,0.9,1.8,1.1c0.7,0.1,1.3,0.1,1.9,0.1c0.6-0.1,1.3-0.2,1.7-0.2S93.2,68,93.5,68.5z
				 M90.4,59.1c0-0.1-0.3-0.2-0.5-0.2c-0.4-0.1-0.9-0.1-1.5,0c-0.4,0-0.8,0.2-1.1,0.2c-0.3,0.1-0.6,0.1-0.7,0
				c-0.1-0.3,0.3-0.5,0.5-0.6c0.6-0.2,1.3-0.4,1.8-0.5c0.5-0.1,0.9-0.1,1.4-0.1c0.6,0,1,0.1,1.4,0.3c0.3,0.2,0.5,0.6,0.4,0.9
				c-0.1,0.3-0.3,0.4-0.5,0.5c-0.1,0.1-0.6,0.2-1,0.4c-0.5,0.2-1,0.5-1.4,0.8c-0.4,0.2-0.7,0.5-0.9,0.8c-0.1,0.2-0.3,0.4-0.4,0.4
				c-0.1,0,0-0.3,0.1-0.5c0.3-0.4,0.6-0.8,0.9-1.2c0.3-0.3,0.9-0.7,1.1-0.9C90.3,59.3,90.5,59.2,90.4,59.1z"/>
			<path class="st0" d="M97.6,65.5c-0.2-0.4,0-0.9,0.2-1.3c0.2-0.4,0.4-0.9,0.7-1.4c0.3-0.6,0.9-2.4,1.2-3.2
				c0.2-0.4,0.3-0.8,0.5-1.3c-0.1,0-0.2,0-0.3,0c-0.5-0.1-0.9-0.3-1.3-0.5c-0.3-0.2-0.6-0.5-0.4-0.7c0.1-0.1,0.5,0,0.7,0.1
				c0.3,0.1,0.5,0.2,1,0.3c0.2,0,0.4,0.1,0.7,0.1c0.1-0.3,0.2-0.5,0.3-0.7c0.3-0.6,0.4-0.9,0.4-1.3c0.1-0.4-0.1-0.9-0.3-1.1
				c-0.2-0.3-0.1-0.4,0-0.6c0.2-0.2,0.6,0,0.9,0.2c0.2,0.2,0.5,0.4,0.6,0.9c0.1,0.2,0.1,0.4,0,0.7c0.1,0,0.3,0.1,0.4,0.1
				c0.3,0.1,0.8,0.3,1.3,0.5s0.8,0.3,0.9,0.5c0.2,0.2,0.2,0.5,0,0.7c-0.2,0.2-0.6,0.4-1.3,0.6c-0.7,0.2-1.6,0.4-2.4,0.4
				c0,0,0,0-0.1,0c0,0,0,0.1,0,0.1c-0.1,0.3-0.7,1.8-1,2.5c-0.3,0.7-0.9,2.2-1.1,2.9c-0.3,0.6-0.3,1.9-0.3,2.3
				c0,0.4-0.4,0.5-0.7,0.3C98,66.1,97.7,65.8,97.6,65.5z M101.9,57.2c0.4-0.1,0.8-0.2,1.2-0.4c0.3-0.1,0.5-0.3,0.5-0.4
				c0-0.1-0.3-0.2-0.4-0.3c-0.1-0.1-0.4-0.2-0.6-0.3c0,0.2-0.1,0.4-0.2,0.6C102.1,56.6,102,56.9,101.9,57.2z M107.4,65.2
				c0-0.4-0.1-0.8-0.2-1.1c-0.1-0.6-0.3-1.5-0.4-2.1c-0.1-0.6,0-1.2,0.2-1.5c0.2-0.3,0.5-0.6,0.6-0.5c0.2,0.1,0.1,0.3,0,0.7
				c-0.1,0.4-0.2,1.1,0,1.8s0.4,1.7,0.6,2.5c0,0.1,0.1,0.2,0.1,0.3c0.9,0.2,1.5,0.5,1.8,0.7c0.3,0.1,0.6,0.4,0.7,0.8
				c0.1,0.4,0,0.8-0.2,0.9c-0.2,0.1-0.6-0.1-1.1-0.4c-0.3-0.1-0.6-0.3-0.9-0.5c0,0.2,0,0.3,0,0.4c0,0.4-0.1,1.5-1,1.9
				c-1.1,0.5-2.6,0.3-3.3-0.1s-1.2-1.1-1.1-2.3c0.1-0.9,1-1.5,2.2-1.7C106.1,65.1,106.7,65.1,107.4,65.2z M107.4,66.3
				c-0.6-0.3-1.2-0.4-2.1-0.4c-0.7,0-1.4,0.5-1.4,1c-0.1,0.5,0.3,1,0.9,1.2c0.7,0.2,1.3,0.2,1.9-0.1c0.6-0.2,0.8-0.9,0.8-1.7
				C107.5,66.4,107.5,66.4,107.4,66.3C107.4,66.4,107.4,66.3,107.4,66.3z M112.1,58.9c0.2,0.5-0.1,0.8-0.3,0.9
				c-0.2,0.1-0.6,0.1-0.8,0c-0.2-0.1-0.4-0.2-0.7-0.2c-0.3,0-0.6,0-1.1,0c-0.4,0-0.6-0.1-0.6-0.2c0,0,0.1-0.2,0.3-0.2
				c0.2-0.1,0.6-0.2,0.9-0.2c0.4,0,0.5-0.2,0.3-0.4c-0.2-0.3-0.6-0.7-1.1-1.1s-0.8-0.6-1.1-0.7c-0.2-0.1-0.3-0.3-0.3-0.3
				c0.1-0.1,0.4-0.1,0.8,0c0.3,0.1,0.6,0.2,1.1,0.5c0.6,0.3,1.1,0.6,1.5,0.9C111.7,58.1,112,58.4,112.1,58.9z"/>
			<path class="st0" d="M117.7,68.6c0.4-0.1,0.8-0.1,1.7-0.5c1.3-0.5,2.3-1,3.3-1.8c0.9-0.7,1.8-1.8,2.5-2.7c0.7-0.9,1.4-2,1.9-3.2
				c0.5-1.2,0.7-2.1,0.8-2.9c0.1-0.8-0.1-1.7-0.3-2.1c-0.3-0.5-0.5-0.9-0.3-1.1c0.4-0.4,1.3,0.2,1.6,0.4c0.4,0.3,0.7,0.7,0.9,1.1
				c0.3,0.5,0,1-0.2,1.4c-0.2,0.4-0.5,1.8-1.2,3.2c-0.6,1.4-1.4,2.5-2.2,3.6c-1,1.2-1.9,2.1-2.8,2.7c-0.8,0.6-1.8,1.2-3,1.7
				c-1,0.4-1.8,0.7-2.8,0.7c-0.3,0-0.6,0-0.6-0.2C117.2,68.7,117.3,68.6,117.7,68.6z M117.9,57.7c-0.2-0.2-0.5-0.5-0.3-0.7
				c0.3-0.3,0.7-0.1,1.2,0.3c0.6,0.5,1.1,1.1,1.3,1.8c0.3,0.7,0,1.2-0.4,1.3c-0.4,0.1-0.7-0.1-0.9-0.4c-0.2-0.3-0.2-0.7-0.3-1.2
				C118.3,58.3,118,57.9,117.9,57.7z M121.7,56.3c-0.1-0.3-0.2-0.6-0.4-0.8c-0.2-0.2-0.5-0.4-0.3-0.6c0.2-0.2,0.7,0,1,0.3
				c0.3,0.2,0.8,0.7,1.2,1.5c0.2,0.4,0.3,1.3-0.2,1.5c-0.5,0.2-1,0-1.1-0.6C121.8,57.1,121.8,56.6,121.7,56.3z"/>
			<path class="st0" d="M150.2,62c0,0.3-0.4,0.4-0.9,0.3c-0.5-0.1-1.8-0.2-2.6-0.3c-0.8-0.1-2.6-0.2-3.5-0.1
				c-0.8,0.1-2.5,0.1-3.6,0.2c-0.9,0.1-1.8,0.3-2.6,0.3c-0.8,0-1.6-0.3-2.1-0.6c-0.5-0.3-0.6-0.9-0.4-1.1c0.4-0.3,1.1,0,1.6,0.1
				c0.5,0.2,1.6,0.3,2.5,0.3c0.9,0,2.9-0.1,3.9-0.2c1,0,3.7-0.1,4.6-0.2c0.9,0,1.9,0,2.4,0.2C150,61.3,150.3,61.7,150.2,62z"/>
			<path class="st0" d="M154.5,67.5c-0.8,0.7-1.4,1.1-2,1.4c-0.3,0.1-0.6,0.2-0.7,0.1c-0.1-0.1,0.1-0.3,0.4-0.4
				c0.6-0.3,1-0.6,1.6-1.2c0.8-0.8,1.4-1.6,1.9-2.6c0.5-1,0.9-1.9,1.1-3c0.3-1.1,0.4-1.8,0.5-2.9c0.1-1.1,0-1.6-0.5-2.1
				c-0.3-0.2-0.5-0.6-0.3-0.8c0.2-0.2,0.4-0.2,0.9-0.1c0.5,0.1,1,0.3,1.4,0.9c0.4,0.5,0.4,0.8,0.3,1c-0.1,0.1-0.2,0.3-0.2,0.6
				c0,0.6-0.1,1.4-0.3,2.5c-0.3,1.5-0.8,2.7-1.5,3.8S155.5,66.6,154.5,67.5z M161.2,64.2c0.2-0.2,0.3-0.5,0.3-1.2c0-0.7,0-2.1,0-3.4
				c0-1.3,0-2.2,0-3c0-0.8-0.1-1.2-0.6-1.6c-0.5-0.3-0.6-0.7-0.5-0.9c0.1-0.2,0.4-0.2,0.8-0.1c0.4,0.1,0.8,0.2,1.4,0.6
				c0.6,0.4,0.6,0.9,0.5,1.3c-0.2,0.3-0.2,0.9-0.3,2.8c0,1.9-0.1,3.6-0.1,4.1c0,0.5,0.1,0.7,0.3,0.7c0.3,0,0.7-0.2,1.5-0.6
				c0.8-0.5,1.4-0.9,2.2-1.6c0.9-0.8,1.7-1.4,2.1-1.9c0.5-0.5,0.9-0.7,1-0.6c0.1,0.1,0,0.4-0.5,1c-0.6,0.7-1.7,1.9-2.8,2.9
				c-1.1,1.1-2,1.8-2.8,2.4c-0.8,0.6-1.1,0.8-1.5,0.8c-0.4,0-0.8-0.3-1-0.6C160.8,64.9,160.9,64.6,161.2,64.2z"/>
			<path class="st0" d="M186.2,60.4c-0.3,0.5-1,0.9-1.7,1.3c-0.7,0.3-1.8,0.7-2.7,1.1c-0.2,0.1-0.5,0.2-0.7,0.3
				c0,0.3,0.1,0.5,0.1,0.8c0.1,0.9,0,1.6-0.3,2c-0.2,0.4-0.5,0.7-0.9,0.8c-0.5,0-0.7-0.3-0.5-0.8c0.2-0.5,0.3-1.3,0.3-2.1
				c0,0,0-0.1,0-0.1c-0.4,0.2-0.8,0.3-1.1,0.5c-0.7,0.4-1.3,0.8-1.8,1.5c-0.4,0.6-0.7,1.4-0.3,2c0.4,0.6,1.4,1,2.3,1
				c0.9,0,1.5-0.1,2.2-0.2c0.6-0.1,1.2-0.3,1.5-0.3c0.7,0,1,0.1,1.4,0.4c0.4,0.3,0.4,0.7,0,0.8c-0.2,0.1-0.4,0.2-1.2,0.3
				c-0.8,0.1-2.3,0.3-3.3,0.2c-1.1,0-2.2-0.3-3.1-0.9c-0.8-0.5-1-1.2-1-2.1c0-0.9,0.4-1.4,1-2c0.6-0.6,1.3-1.1,2.2-1.5
				c0.4-0.2,0.8-0.4,1.3-0.6c0-0.4-0.1-0.6-0.3-0.9c-0.4-0.5-1-0.8-1.5-0.8c-0.5-0.1-1,0-1.5,0.2c-0.2,0.1-0.3,0.1-0.4,0.2
				c-0.3,0.4-0.6,0.7-0.9,1.1c-0.6,0.8-1.2,1.2-1.7,1.2c-0.5,0-0.6-0.3-0.6-0.7c0-0.4,0.2-0.8,0.5-1c0.3-0.2,0.7-0.4,1.2-0.7
				c0.9-0.6,1.7-1.8,2.4-2.9c0.3-0.6,0.6-1,0.7-1.5c-0.2,0-0.4,0-0.6,0.1c-0.7,0.1-1.4,0-1.9-0.3c-0.5-0.3-0.6-1-0.4-1.3
				c0.3-0.4,0.7-0.1,1.2,0.1c0.5,0.2,1.1,0.2,1.8,0c0.1,0,0.2,0,0.3-0.1c0.1-0.6-0.1-0.9-0.3-1.1c-0.3-0.3-0.3-0.6-0.1-0.8
				c0.2-0.1,0.5-0.2,0.9,0c0.1,0.1,0.2,0.2,0.3,0.3c0.3,0,0.7,0.1,0.9,0.2c0.2,0,0.7,0.1,0.9,0.3c0.2,0.2,0.1,0.4-0.1,0.7
				c-0.2,0.3-0.7,1-1.2,1.3c-0.1,0.1-0.3,0.2-0.4,0.2c-0.1,0.5-0.3,0.9-0.6,1.3c-0.5,1-0.8,1.5-1.4,2.4c-0.1,0.1-0.1,0.2-0.2,0.3
				c0.2-0.1,0.4-0.2,0.5-0.2c0.5-0.2,1-0.3,1.6-0.1c0.5,0.1,0.9,0.3,1.2,0.7c0.1-0.1,0.2-0.3,0.3-0.4c0.8-1,1.4-1.6,2.5-2.1
				s2.3-0.6,3.2,0C186.8,59,186.5,59.9,186.2,60.4z M179.3,55c0.1-0.1,0.2-0.1,0.3-0.2c0.3-0.2,0.5-0.4,0.4-0.5
				c-0.1-0.1-0.2-0.2-0.6-0.2c-0.1,0-0.2,0-0.3,0c0.1,0.2,0.1,0.4,0.1,0.6C179.3,54.8,179.3,54.9,179.3,55z M185.3,59
				c-0.1-0.3-0.6-0.5-1.4-0.3c-0.8,0.2-1.4,0.6-1.9,1.1c-0.5,0.5-1,1.2-1.2,1.9c0.1,0.1,0.1,0.3,0.2,0.4c0.2-0.1,0.4-0.2,0.6-0.3
				c1-0.4,2.1-0.9,3-1.4C185.4,59.9,185.4,59.3,185.3,59z"/>
			<path class="st0" d="M200.1,63.5v5.6h5.6l1.2-1.5c0.4,0.4,0.9,0.9,1.4,1.6l-0.2,0.4h-17.7l-0.2-0.5h8.5v-5.6h-5.9l-0.2-0.5h6.1
				v-4.8h-4.6c-0.8,1.8-1.8,3.3-3.1,4.8l-0.4-0.3c1.7-2.4,2.8-5.4,3.5-9c1.4,0.3,2.1,0.7,2.1,0.9c0,0.2-0.3,0.3-0.9,0.5
				c-0.3,0.9-0.5,1.7-0.9,2.6h4.4v-5c1.5,0.1,2.2,0.3,2.2,0.6c0,0.2-0.3,0.4-0.9,0.6v3.8h4.8l1.1-1.5c0.5,0.5,1,1.1,1.4,1.6
				l-0.2,0.4h-7.1V63h3.8l1.1-1.5c0.5,0.5,0.9,1,1.4,1.5l-0.3,0.5H200.1z"/>
			<path class="st0" d="M227.3,65.6c-0.1,0.4-0.7,0.4-1.4,0.3c-0.7,0-1.3-0.7-2.1-1.4c-0.5,1.1-1.1,2-2,2.9
				c-0.9,0.9-2.1,1.7-3.7,2.1c-0.5,0.1-0.7,0-0.8-0.1c0-0.1,0.3-0.3,0.6-0.4c1-0.3,2.1-1,3-1.9c0.9-0.9,1.5-2,1.8-2.9
				c0-0.1,0.1-0.2,0.1-0.4c-0.9-0.6-2-1.2-2.8-1.5c-1-0.4-2-0.5-3.3-0.4c-0.1,0-0.3,0-0.4,0c-0.1,0.1-0.1,0.3-0.2,0.4
				c-0.6,1.3-1.2,2.5-2,3.4c-0.9,0.9-2.2,1.3-2.9,0.7c-0.6-0.6-0.2-2,0.3-2.7c0.5-0.7,1.3-1.4,2.7-2c0.5-0.2,0.9-0.3,1.4-0.4
				c0.6-1.3,1.3-2.6,1.7-3.4c0.5-0.9,1.2-2.3,1.3-2.6c0.1-0.4-0.1-0.4-0.4-0.3c-0.6,0.4-1.9,1-2.4,1.1c-0.5,0.2-1.2,0.1-1.5-0.1
				c-0.3-0.2-0.6-0.6-0.4-0.8c0.2-0.4,0.8-0.1,1.3-0.1c0.4,0,1.1-0.3,1.8-0.6c0.7-0.3,1.4-0.6,1.7-0.8c0.3-0.2,0.7-0.2,1.1,0
				c0.3,0.1,0.5,0.3,0.6,0.6c0,0.3-0.1,0.7-0.5,1.2c-0.3,0.6-1.2,1.8-1.8,2.9c-0.4,0.8-0.9,1.7-1.4,2.6c0.6,0,1.2,0,1.7,0
				c1.3,0,2.3,0.3,3.4,0.7c0.5,0.2,0.9,0.4,1.4,0.7c0-0.3,0.1-0.6,0.1-0.8c0-0.6-0.1-1.1-0.3-1.5c-0.1-0.3-0.3-0.7-0.2-1
				c0.2-0.3,0.7-0.1,1.1,0.1c0.3,0.2,0.7,0.6,0.7,1.3c0,0.2,0,0.5,0,0.7c0.2,0.4,0.4,0.8,0.5,1.1c0.5,1,1.1,1.6,1.5,1.9
				C226.9,64.6,227.4,65.1,227.3,65.6z M215.2,62.3c-0.8,0.2-1.4,0.6-1.9,0.9c-1,0.7-1.5,1.5-1,1.8c0.3,0.1,0.9-0.2,1.4-0.7
				C214.2,63.9,214.6,63.2,215.2,62.3z M225,63.7c-0.2-0.3-0.4-0.8-0.6-1.2c0,0.2-0.1,0.4-0.2,0.6C224.5,63.3,224.7,63.5,225,63.7z"
				/>
			<path class="st0" d="M234.4,61.6c0.2-0.5,0.6-1.5,0.8-2.4c-0.3,0-0.6,0-0.9,0c-0.9,0-1.5,0-2.1-0.3c-0.4-0.2-0.5-0.6-0.4-0.8
				c0.1-0.1,0.3-0.1,0.4,0c0.1,0,0.3,0.2,0.6,0.2c0.2,0.1,0.5,0.1,1,0.1c0.5,0,0.9-0.1,1.7-0.3c0.2-0.8,0.3-1.7,0.2-2.2
				c0-0.6-0.3-1.1-0.4-1.4c-0.2-0.3-0.3-0.7-0.1-0.9c0.2-0.2,0.6,0,0.9,0.2c0.3,0.2,0.5,0.4,0.7,1.1c0.1,0.3,0.1,0.7,0,1.1
				c0.5,0.2,1.1,0.4,1.5,0.5c0.5,0.1,0.8,0.2,0.9,0.5c0.1,0.3,0.1,0.5-0.3,0.8c-0.3,0.4-1.1,0.8-1.9,1c-0.3,0.1-0.7,0.1-1,0.2
				c-0.1,0.3-0.1,0.5-0.2,0.7c-0.2,0.6-0.7,2.1-0.9,2.6c-0.2,0.6-0.8,2.4-1.1,3.4c-0.3,0.9-1.2,3.1-1.4,3.4
				c-0.2,0.3-0.5,0.4-0.9,0.2c-0.3-0.2-0.3-0.8-0.3-1.1s0.3-0.9,0.6-1.5c0.3-0.6,0.6-1.4,1-2.2C233.5,63.7,234.2,62.2,234.4,61.6z
				 M236.8,56.7c0,0.2-0.1,0.3-0.1,0.4c0,0.1-0.1,0.4-0.2,0.7c0.5-0.2,0.7-0.4,0.8-0.4c0.1-0.1,0.1-0.3,0-0.4
				C237.3,56.9,237.1,56.8,236.8,56.7z M246.2,68.5c0.3,0.4-0.2,0.9-0.8,0.9c-0.9,0.1-2.2,0.1-3.8-0.1c-1.7-0.3-2.4-0.9-2.9-1.9
				c-0.4-1-0.1-1.9,0.3-2.9c0.4-1,0.8-1.5,0.9-1.7c0.1-0.2,0.3-0.3,0.3-0.2c0.1,0,0.1,0.3,0,0.4c-0.2,0.3-0.4,0.8-0.8,1.7
				c-0.3,0.9-0.2,1.7,0.1,2.1c0.4,0.6,1.1,0.9,1.7,1.1c0.7,0.1,1.3,0.1,1.9,0.1c0.6-0.1,1.3-0.2,1.7-0.2
				C245.4,67.9,245.9,68,246.2,68.5z M243.1,59.1c0-0.1-0.3-0.2-0.5-0.2c-0.4-0.1-0.9-0.1-1.5,0c-0.4,0.1-0.8,0.2-1.1,0.2
				c-0.2,0.1-0.6,0.1-0.7,0c-0.2-0.3,0.3-0.5,0.5-0.6c0.6-0.2,1.3-0.4,1.8-0.5c0.4-0.1,0.9-0.1,1.4-0.1c0.6,0,1,0.1,1.4,0.3
				c0.3,0.2,0.5,0.6,0.4,0.9s-0.3,0.4-0.6,0.5c-0.2,0.1-0.5,0.2-1,0.4c-0.5,0.2-1,0.5-1.4,0.8c-0.4,0.2-0.6,0.5-0.9,0.8
				c-0.1,0.2-0.3,0.4-0.4,0.4c-0.1,0,0-0.3,0-0.5c0.3-0.4,0.6-0.8,1-1.2c0.3-0.3,0.9-0.7,1.1-0.9C242.9,59.3,243.1,59.2,243.1,59.1z
				 M244.6,57.4c-0.3-0.3-0.8-0.7-1.3-1.1c-0.2-0.1-0.3-0.3-0.2-0.4c0.1-0.1,0.3-0.1,0.4-0.1c0.4,0,0.8,0.1,1.3,0.3
				c0.5,0.2,1.2,0.5,1.4,0.9c0.2,0.4,0,0.8-0.3,0.8C245.5,57.9,245,57.7,244.6,57.4z M246.5,56.4c-0.3-0.4-0.7-0.6-1.4-1
				c-0.2-0.1-0.3-0.3-0.2-0.4c0-0.1,0.3-0.1,0.4-0.1c0.4,0,0.8,0.1,1.3,0.2c0.5,0.1,1.2,0.5,1.4,0.9c0.3,0.4,0,0.7-0.3,0.9
				C247.3,57,246.8,56.8,246.5,56.4z"/>
			<path class="st0" d="M268.3,58.1c-0.2,0.2-0.6,0.1-0.9,0c-0.3-0.1-1.2-0.3-2-0.3c-0.8-0.1-1.4-0.1-2.7-0.1c-0.4,0-0.9,0-1.3,0
				c0,0.5,0,1.2,0,1.8c0,0.4,0.1,0.9,0.1,1.5c0.1,0.3,0.2,0.6,0.3,1.1c0.2,1.1,0.2,1.8,0,2.3c0,0.3-0.2,1-0.3,2
				c-0.2,0.9-0.8,2-1.5,2.7s-1.6,1.1-2,1.1c-0.4,0-0.6,0-0.6-0.1c0-0.1,0.3-0.3,0.5-0.3c0.7-0.3,1.3-0.7,1.7-1.2
				c0.4-0.5,0.8-1.2,0.9-2c0-0.4,0-1,0-1.6c-0.3,0.3-0.5,0.6-0.8,0.6c-0.8,0.3-1.5-0.3-2.1-1.1s-0.7-1.6-0.7-2.7
				c0-1.1,0.4-1.7,0.9-2c0.4-0.2,1.4-0.4,2,0c0.1,0.1,0.3,0.1,0.4,0.2c0-0.7,0-1.3,0.1-1.9c0-0.1,0-0.2,0-0.3
				c-0.6,0-1.1,0.1-1.4,0.1c-0.9,0.1-1.9,0.3-2.7,0.5c-0.8,0.2-2.1,0.4-2.9,0.5c-0.9,0-1.3-0.2-1.6-0.6c-0.3-0.4-0.3-0.8-0.1-0.9
				c0.2-0.2,0.5-0.1,0.8,0c0.4,0.2,0.8,0.3,1.6,0.3c0.8,0.1,1.3,0,1.9-0.1c0.5-0.1,1.4-0.2,2.1-0.3c0.7-0.1,1.7-0.3,2.5-0.4
				c0-0.4-0.1-0.9-0.1-1.1c-0.1-0.6-0.3-1.2-0.5-1.7s-0.3-0.8,0-1c0.3-0.2,0.7,0,1.2,0.3c0.3,0.2,0.4,0.4,0.5,0.6c0,0,0.1,0,0.1,0.1
				c0.3,0.2,0.7,0.6,1,0.8c0.3,0.2,1.2,0.8,1.9,1.1c0.7,0.3,1.2,0.6,1.7,0.7s1.1,0.3,1.7,0.5C268.5,57.3,268.5,57.8,268.3,58.1z
				 M260.4,62.5c0-0.2-0.1-0.5-0.1-0.8c-0.2-1-1.1-1.3-1.7-1.3c-0.5,0-1,0.5-1,1.1s0,1.3,0.4,2.1c0.2,0.5,0.9,0.8,1.3,0.8
				c0.3,0,0.6-0.3,0.9-0.8C260.3,63.4,260.4,63,260.4,62.5z M263.5,56.5c-0.4-0.3-0.9-0.7-1.2-0.9c-0.2-0.2-0.5-0.4-0.8-0.6
				c0,0.5,0,1.2-0.1,1.7C262.1,56.5,262.8,56.5,263.5,56.5z"/>
			<path class="st0" d="M282.4,52.3v0.9h-4.2v14h-0.9V52.3H282.4z"/>
			<path class="st0" d="M294.1,53.3l0.8-0.9c0.8,0.6,1.2,1,1.2,1.2c0,0.1-0.1,0.2-0.3,0.3l-0.4,0.3V60h-1.2v-1.1h-4.6v12h-1.2V52.6
				c0.4,0.2,0.9,0.4,1.5,0.7H294.1z M289.6,55.8h4.6v-1.9h-4.6V55.8z M289.6,56.3v2.1h4.6v-2.1H289.6z M299.1,61.8v2.9h1.1l0.9-1.2
				l0.2,0.2c0.3,0.3,0.6,0.6,0.9,1.1l-0.2,0.4h-2.9v4.7H298v-4.7h-2.7c-0.1,2.5-1.3,4.1-3.6,5.1l-0.3-0.5c1.7-1,2.6-2.6,2.7-4.6h-3
				l-0.2-0.5h3.2v-2.9h-2.5l-0.2-0.5h8.4l0.9-1.1c0.5,0.4,0.9,0.9,1.2,1.3l-0.2,0.4H299.1z M298,61.8h-2.7v2.9h2.7V61.8z
				 M303.6,53.3l0.8-0.9c0.8,0.7,1.2,1.1,1.2,1.3c0,0.1,0,0.1-0.1,0.2l-0.5,0.3v15c0,1.1-0.7,1.6-2.1,1.6c0-0.4-0.2-0.7-0.6-0.9
				c-0.4-0.1-1-0.2-2-0.4V69c1,0.1,1.9,0.1,2.7,0.1c0.6,0,0.8-0.2,0.8-0.6v-9.6h-4.9v1h-1.2v-7.2c0.4,0.1,0.8,0.3,1.4,0.6H303.6z
				 M303.7,55.8v-1.9h-4.9v1.9H303.7z M303.7,56.3h-4.9v2.1h4.9V56.3z"/>
			<path class="st0" d="M318.4,54.1c0.6,0.8,1.3,1.6,2,2.2c1-0.9,1.8-2,2.5-3.1c1,0.6,1.5,0.9,1.5,1.2c0,0.1-0.2,0.2-0.5,0.2
				c-0.2,0-0.3,0-0.4,0c-0.9,0.8-1.8,1.5-2.7,2.1c0.5,0.5,1.1,1,1.9,1.5c1-0.8,1.8-1.7,2.6-2.9c0.9,0.6,1.4,1,1.4,1.2
				c0,0.2-0.1,0.2-0.4,0.2c-0.1,0-0.3,0-0.5-0.1c-0.7,0.6-1.6,1.2-2.6,1.8c1.1,0.7,2.6,1.4,4.3,2c-0.4,0.3-0.7,0.7-0.9,1.2
				c-3.6-1.6-6.4-3.9-8.5-7.1c-1,1.9-2.4,3.6-4.3,5.2h6.4l0.9-1.1c0.4,0.3,0.9,0.7,1.4,1.2l-0.2,0.3h-1.7V64h3.7l1.1-1.3
				c0.6,0.5,1,0.9,1.4,1.4l-0.3,0.4h-6v4.2c0,0.3,0.1,0.5,0.3,0.6c0.2,0.1,0.7,0.1,1.6,0.1c1.2,0,1.9-0.1,2.2-0.3
				c0.3-0.2,0.5-1.3,0.7-3.1l0.5,0.2c0,1.2,0.1,2,0.2,2.4c0.1,0.3,0.3,0.5,0.7,0.5c0,0.6-0.3,1-0.7,1.2c-0.5,0.1-1.6,0.2-3.3,0.2
				c-1.6,0-2.5-0.1-2.9-0.3c-0.3-0.2-0.5-0.6-0.5-1.2v-4.4H316c-0.2,2-1,3.5-2.4,4.6c-1,0.8-2.5,1.4-4.5,1.9l-0.3-0.5
				c2.2-0.7,3.7-1.6,4.6-2.7c0.7-0.9,1.1-2,1.3-3.3h-5.3l-0.3-0.5h5.6l0-0.1c0-0.5,0-0.8,0-1.1v-2.5h-1.8c-1.2,0.9-2.6,1.6-4.1,2.3
				l-0.3-0.4c3.7-1.9,6.4-4.6,8.2-8.2h-5.2l-0.3-0.5h5.5l0.9-1.1c0.8,0.6,1.2,1.1,1.2,1.2c0,0.1-0.1,0.2-0.2,0.2L318.4,54.1z
				 M310.1,54.6c1.2,0.4,2.1,0.9,2.7,1.5c0.5,0.5,0.7,0.9,0.7,1.2c0,0.5-0.3,0.8-0.7,0.8c-0.2,0-0.4-0.2-0.6-0.7
				c-0.4-0.9-1.2-1.7-2.3-2.4L310.1,54.6z M319.3,60.3h-3.2v2.5c0,0.3,0,0.7,0,1.1h3.2V60.3z"/>
			<path class="st0" d="M331,58.4l-0.2-0.5h6.6c0-0.3,0-0.7,0-1.1v-3.8c1.5,0,2.3,0.2,2.3,0.5c0,0.2-0.3,0.4-0.9,0.6v2.7
				c0,0.5,0,0.9,0,1h6.2l0.8-1.1c0.9,0.7,1.4,1.2,1.4,1.4c0,0.1-0.1,0.2-0.2,0.3l-0.5,0.3c0,5.4-0.4,8.9-1.3,10.4
				c-0.5,0.9-1.3,1.3-2.5,1.3c0-0.4-0.3-0.7-1-0.9c-0.4-0.1-1.3-0.3-2.8-0.6v-0.6c1.6,0.3,2.9,0.4,3.9,0.4c0.8,0,1.3-0.3,1.5-0.9
				c0.6-1.5,0.9-4.6,0.9-9.5h-6.4c-0.2,3-0.8,5.4-1.8,7.3c-1.3,2.3-3.4,4.1-6.5,5.4l-0.3-0.5c3.2-1.7,5.3-4.1,6.3-7.1
				c0.5-1.4,0.8-3.1,0.9-5H331z"/>
			<path class="st0" d="M353.5,70.8v-0.9h4.2v-14h0.9v14.9H353.5z"/>
			<path class="st0" d="M368.1,66.3c0.9,0.5,1.3,1.2,1.3,2.2c0,0.6-0.3,1.3-0.7,1.8c-0.5,0.6-1.1,0.8-1.9,0.8
				c-0.4,0-0.8-0.1-1.1-0.3c-1-0.5-1.5-1.3-1.5-2.3c0-0.9,0.4-1.7,1.2-2.2c0.4-0.3,0.9-0.4,1.3-0.4C367.2,65.9,367.7,66,368.1,66.3z
				 M365.4,67.2c-0.3,0.3-0.5,0.8-0.5,1.3c0,0.3,0.1,0.7,0.3,1c0.4,0.6,0.9,0.9,1.6,0.9c0.5,0,0.9-0.2,1.2-0.5
				c0.4-0.4,0.6-0.9,0.6-1.4c0-0.6-0.3-1.1-0.8-1.5c-0.3-0.2-0.7-0.3-1.1-0.3C366.2,66.6,365.8,66.8,365.4,67.2z"/>
		</g>
	</g>
	<g>
		<g>
			<polygon class="st1" points="217.1,128.5 217.1,132.9 210,138.8 203.1,132.9 203.1,128.5 210,134.4 			"/>
			<polygon class="st1" points="217.1,119.6 217.1,124.1 210,130.1 203.1,124.1 203.1,119.6 210,125.6 			"/>
		</g>
	</g>
</g>
<g>
</g>
<g>
</g>
<g>
</g>
<g>
</g>
<g>
</g>
<g>
</g>
</svg>
