<?xml version="1.0" encoding="utf-8"?>
<!-- Generator: Adobe Illustrator 20.1.0, SVG Export Plug-In . SVG Version: 6.00 Build 0)  -->
<svg version="1.1" id="レイヤー_1" xmlns="http://www.w3.org/2000/svg" xmlns:xlink="http://www.w3.org/1999/xlink" x="0px"
	 y="0px" width="420px" height="150px" viewBox="0 0 420 150" style="enable-background:new 0 0 420 150;" xml:space="preserve">
<style type="text/css">
	.st0{fill:#D7000E;}
	.st1{fill:#FFFFFF;}
</style>
<g>
	<g>
		<g>
			<polygon class="st0" points="217,131.7 217,136.1 210,142.1 203.1,136.1 203.1,131.7 210,137.6 			"/>
			<polygon class="st0" points="217,122.8 217,127.4 210,133.3 203.1,127.4 203.1,122.8 210,128.8 			"/>
		</g>
	</g>
	<g>
		<g>
			<g>
				<path class="st1" d="M32.5,26.2c0,1.2,0.1,3.6,0.2,4.5h-4.1c-0.1-0.5-0.2-1.5-0.2-2.2c-0.8,1.5-2.4,2.6-5.1,2.6
					c-4.2,0-5.9-3.4-5.9-6.5c0-4.4,3-7.3,8.7-7.3c0.8,0,1.4,0,2,0.1v-2.6c0-1.4-0.3-3.2-2.7-3.2c-2.5,0-2.8,1.7-2.9,3.2h-4.2
					c0.1-3.2,1.6-6.7,7.3-6.7c4.6,0,6.9,2.2,6.9,6.4V26.2z M28.2,20.7c-0.5-0.1-1-0.1-1.9-0.1c-3.2,0-4.5,1.6-4.5,3.6
					c0,1.6,0.8,3.2,2.9,3.2c2.8,0,3.5-2.1,3.5-5.8V20.7z"/>
				<path class="st1" d="M38.3,15.2c0-4.2,0-5.7,0-6.7h4.3c0.1,0.5,0.1,1.6,0.1,2.5c1-1.8,2.6-2.9,4.9-2.9c2.4,0,3.8,1.1,4.5,3.1
					c0.9-1.6,2.5-3.1,5.4-3.1c3,0,5.5,1.5,5.5,6.6v16h-4.4V15.4c0-1.9-0.6-3.5-2.6-3.5c-2.3,0-3.1,1.9-3.1,4.7v14h-4.5V15.5
					c0-2.3-0.7-3.5-2.6-3.5c-2.2,0-3.2,1.8-3.2,4.9v13.8h-4.4V15.2z"/>
				<path class="st1" d="M84.3,19.4c0,8-2.9,11.8-8.2,11.8S68,27.5,68,19.5c0-7.8,3.2-11.4,8.3-11.4C81.5,8.1,84.3,12,84.3,19.4z
					 M72.6,19.5c0,5.2,1,7.9,3.6,7.9c2.5,0,3.5-2.7,3.5-7.8c0-5.2-1-7.6-3.5-7.6C73.7,11.9,72.6,14.3,72.6,19.5z"/>
				<path class="st1" d="M89.2,16c0-3.6,0-5.9,0-7.5h4.3c0,0.4,0.1,1.4,0.1,3.8c0.9-2.6,2.9-4.1,5.8-4.1v5c-3.7,0-5.7,1.5-5.7,5.7
					v11.9h-4.5V16z"/>
				<path class="st1" d="M103.5,38.8V14.9c0-3,0-5.1,0-6.4h4.3c0.1,0.5,0.1,1.7,0.1,2.6c0.7-1.6,2.1-3,5.1-3c4.1,0,6.5,3.6,6.5,11.1
					c0,8.4-2.9,11.9-7.1,11.9c-2.4,0-3.7-1.1-4.4-2.3v10H103.5z M111.4,12c-2.9,0-3.5,2.7-3.5,7.4c0,5.1,0.3,7.9,3.5,7.9
					c2.5,0,3.7-2.8,3.7-7.8C115,14.1,113.8,12,111.4,12z"/>
				<path class="st1" d="M129,0v10.8c0.8-1.6,2.3-2.7,5.1-2.7c3.5,0,5.6,2.2,5.6,6.9v15.7h-4.5V15.9c0-2.4-0.5-3.9-2.9-3.9
					c-2.5,0-3.3,2-3.3,5.3v13.5h-4.4V0H129z"/>
				<path class="st1" d="M147.9,8.5c1.9,7.9,3.5,14.1,3.8,16.7h0c0.5-3,2.2-9.8,3.8-16.7h4.5l-6.4,23.2c-1.9,6.8-4.1,7.3-7.2,7.3
					c-0.6,0-1.3,0-1.9-0.2v-3.8c0.3,0,1,0.1,1.6,0.1c2.1,0,2.7-1.2,3.4-4.1l-6.6-22.5H147.9z"/>
				<path class="st1" d="M184.1,10.7v8.4h8.1v1.8h-8.1v8.6h-1.8v-8.6h-8.1v-1.8h8.1v-8.4H184.1z"/>
				<path class="st1" d="M212.3,3.1h-6.7V1.3H221v1.8h-6.7v27.6h-1.9V3.1z"/>
				<path class="st1" d="M237.7,15.9h-10.1v13h11.1l-0.3,1.8h-12.7V1.3h12.5v1.8h-10.6v11h10.1V15.9z"/>
				<path class="st1" d="M258.1,22.9c-0.1,1.8-1,8.3-7.4,8.3c-7.5,0-7.9-8.9-7.9-15.4c0-7.9,1.9-14.8,8.2-14.8
					c6.6,0,6.9,6.6,6.9,8.1h-2c0-1-0.3-6.2-5-6.2c-5.5,0-6.1,7.8-6.1,12.9c0,6.7,0.7,13.6,5.9,13.6c4.4,0,5.2-4.7,5.4-6.4H258.1z"/>
				<path class="st1" d="M263.6,1.3h1.9v12.9h11.1V1.3h1.9v29.4h-1.9V16h-11.1v14.7h-1.9V1.3z"/>
				<path class="st1" d="M285.6,30.7V1.3h2.7c9.5,22.9,10.6,25.5,11,26.7h0c-0.2-4.2-0.3-8.7-0.3-13.5V1.3h1.9v29.4h-2.6
					c-9.8-23.9-10.8-26.4-11.1-27.4h0c0.2,3.7,0.3,8.9,0.3,14.2v13.3H285.6z"/>
				<path class="st1" d="M323.3,15.7c0,9.6-2,15.4-8.1,15.4c-5.9,0-8-5.5-8-15.2c0-9.7,2.5-14.9,8.1-14.9
					C321.1,0.9,323.3,5.9,323.3,15.7z M309.1,15.8c0,9.3,2.1,13.6,6.1,13.6c4.1,0,6-4.3,6-13.5c0-9.7-2.2-13.2-6.1-13.2
					C311.3,2.7,309.1,6.8,309.1,15.8z"/>
				<path class="st1" d="M329.4,1.3h1.9v27.6h10.8l-0.4,1.8h-12.3V1.3z"/>
				<path class="st1" d="M361.2,15.7c0,9.6-2,15.4-8.1,15.4c-5.9,0-8-5.5-8-15.2c0-9.7,2.5-14.9,8.1-14.9
					C359,0.9,361.2,5.9,361.2,15.7z M347.1,15.8c0,9.3,2.1,13.6,6.1,13.6c4.1,0,6-4.3,6-13.5c0-9.7-2.2-13.2-6.1-13.2
					C349.2,2.7,347.1,6.8,347.1,15.8z"/>
				<path class="st1" d="M381.9,30.7h-1.6c-0.1-0.8-0.2-1.8-0.2-3.6c-0.7,1.9-1.9,4-5.9,4c-6.5,0-7.8-7.3-7.8-15.2
					c0-9.7,2.8-15,8.6-15c6.4,0,6.9,5.9,7,7.7H380c-0.1-1-0.3-5.9-5.1-5.9c-4.6,0-6.4,5.1-6.4,13.2c0,7.7,1.3,13.5,5.9,13.5
					c4.7,0,5.7-4.1,5.7-11.4v-1.3h-5.8v-1.8h7.7V30.7z"/>
				<path class="st1" d="M392.9,30.7V19c0-0.3-0.1-0.5-0.1-0.6l-7.5-17.1h2.2c2.2,5.2,5.6,12.9,6.5,15.2c1-2.4,4.4-10.2,6.6-15.2
					h2.1L395,18.4c-0.1,0.1-0.1,0.3-0.1,0.6v11.8H392.9z"/>
			</g>
		</g>
		<g>
			<path class="st1" d="M87.5,70.1h-7.7v-0.7h1.3c1,0,1.6-0.6,1.6-1.6V55.7c0-1-0.6-1.6-1.6-1.6h-1.3v-0.7h7.7v0.7h-1.3
				c-0.9,0-1.6,0.5-1.6,1.6v12.1c0,1,0.6,1.6,1.6,1.6h1.3V70.1z"/>
			<path class="st1" d="M108,57.7l-0.7,0.3c-0.9-1.5-2.2-3.9-4.7-3.9c-0.9,0-1.6,0.4-1.6,1.6v12.1c0,1,0.6,1.6,1.6,1.6h1.2v0.7h-7.4
				v-0.7h1.1c1,0,1.6-0.6,1.6-1.6V55.7c0-0.9-0.5-1.6-1.6-1.6c-2.5,0-3.9,2.5-4.7,3.9l-0.7-0.3l1.6-4.3h12.5L108,57.7z"/>
			<path class="st1" d="M128.6,60.8c0.1,1.3,0,2.1-0.3,3.2c-0.3,1.1-1,2.2-2.2,2.9c-1.2,0.7-2.3,1.1-3.8,1.4c-1.5,0.3-2.9,0.2-3.7,0
				c-0.2,0-0.3-0.1-0.3-0.2c0-0.1,0.1-0.2,0.3-0.2c0.2,0,0.7,0.1,1.2,0.1c0.9,0,1.9-0.1,2.8-0.4c0.9-0.3,1.9-0.7,2.8-1.4
				s1.7-1.9,2-3.3c0.2-1.3,0.1-2.6-0.3-3.8c-0.4-1.4-1.1-2.2-2-2.9c-1-0.7-2.6-1-4-0.9c-0.2,0-0.4,0.1-0.6,0.1c0,0.5,0,1.2,0.1,1.8
				c0,0.8-0.1,1.9-0.3,3.2c-0.3,1.3-0.7,2.9-1.6,4c-0.9,1.1-1.9,1.9-3,1.9c-1.1,0-1.8-0.6-2.3-1.7c-0.5-1.1-0.6-2.1-0.3-3.4
				c0.3-1.3,0.8-2.3,1.5-3.2c0.8-0.9,1.7-1.7,2.9-2.4c1.3-0.7,2.9-1,4.3-1c1.4,0,2.7,0.4,3.7,1c1.1,0.6,1.9,1.5,2.4,2.4
				C128.2,58.9,128.5,59.6,128.6,60.8z M119.7,55.7c-1,0.3-2,0.7-2.9,1.3c-1.2,0.9-2.3,2.1-2.7,3.4c-0.5,1.3-0.5,2.7-0.2,3.5
				c0.3,0.8,1.1,0.9,2,0.6c0.9-0.3,1.7-0.8,2.3-1.9c0.7-1,1.1-2.2,1.3-3.7C119.7,57.7,119.7,56.6,119.7,55.7z"/>
			<path class="st1" d="M132.7,58.4l-0.2-0.5h6.6c0-0.3,0-0.7,0-1.1v-3.8c1.5,0,2.3,0.2,2.3,0.5c0,0.2-0.3,0.4-0.9,0.6v2.7
				c0,0.5,0,0.9,0,1h6.2l0.8-1.1c0.9,0.7,1.4,1.2,1.4,1.4c0,0.1-0.1,0.2-0.2,0.3l-0.5,0.3c0,5.4-0.4,8.9-1.3,10.4
				c-0.5,0.9-1.3,1.3-2.5,1.3c0-0.4-0.3-0.7-1-0.9c-0.4-0.1-1.3-0.3-2.8-0.6v-0.6c1.6,0.3,2.9,0.4,3.9,0.4c0.8,0,1.3-0.3,1.5-0.9
				c0.6-1.5,0.9-4.6,0.9-9.5h-6.4c-0.2,3-0.8,5.4-1.8,7.3c-1.3,2.3-3.4,4.1-6.5,5.4l-0.3-0.5c3.2-1.7,5.3-4.1,6.3-7.1
				c0.5-1.4,0.8-3.1,0.9-5H132.7z"/>
			<path class="st1" d="M153.4,62.5c0.1-1.1,0.3-1.9,0.6-3.1c0.3-1.2,0.5-1.8,0.6-2.5c0.1-0.8,0-1.5-0.2-1.8
				c-0.2-0.3-0.4-0.6-0.2-0.8c0.3-0.2,0.7,0.1,1,0.4c0.3,0.3,0.6,0.9,0.6,1.4c0,0.6-0.2,1.3-0.3,1.7c-0.2,0.4-0.5,1.3-0.7,2
				c-0.2,0.6-0.3,1.3-0.5,2c-0.1,0.7-0.2,1.1-0.2,1.6c0,0.4,0,0.7,0.1,0.7c0.1,0,0.2-0.2,0.3-0.4c0.2-0.5,0.6-1,0.7-1.2
				c0.2-0.2,0.3-0.3,0.4-0.3c0.1,0.1,0.1,0.3,0,0.5c-0.2,0.3-0.5,1.2-0.5,2.3s0.2,1.8,0.5,2.6c0.2,0.6,0.2,1.4-0.2,1.5
				c-0.4,0.2-0.9-0.2-1.2-0.6c-0.3-0.4-0.6-1.1-0.8-2.4C153.3,64.6,153.3,63.5,153.4,62.5z M160.7,65.4c0.3,0.3,0.8,0.5,1.3,0.7
				c0.5,0.2,1.5,0.3,2.5,0.2c1-0.1,1.9-0.4,2.4-0.4c0.5,0,1,0.1,1.2,0.6c0.2,0.4-0.4,0.8-1.2,1c-0.8,0.2-1.8,0.2-2.7,0.2
				c-0.9-0.1-1.8-0.3-2.4-0.6c-0.6-0.3-1.3-0.9-1.6-1.2c-0.3-0.3-0.4-0.7-0.2-0.8C160.2,64.8,160.4,65.2,160.7,65.4z M160.7,56.5
				c-0.3-0.1-0.6-0.3-0.5-0.5c0.1-0.2,0.4-0.2,0.9,0s1.2,0.2,1.9,0.1c0.6,0,1.3-0.2,2-0.4c0.5-0.2,1.1-0.2,1.2,0.1
				c0.2,0.3-0.1,0.8-0.8,1s-1.7,0.3-2.5,0.2C162.1,56.9,161.5,56.8,160.7,56.5z"/>
			<path class="st1" d="M174.7,66.6c1.4,0.4,2.5,1.1,3.3,1.9c0.4,0.4,0.6,0.9,0.6,1.4c0,0.7-0.3,1-1,1c-0.4,0-0.6-0.3-0.8-0.8
				c-0.4-1.1-1.2-2.2-2.3-3.2L174.7,66.6z"/>
			<path class="st1" d="M192.2,59.9h-1v-0.5h-2.4v0.7h-1v-2.9c-0.5,0.6-1,1.1-1.7,1.6l-0.3-0.3c1.1-1.2,1.9-2.5,2.3-4
				c0.3,0,0.6,0,0.9,0.1v-0.6h-2.8l-0.3-0.5h3.1v-1.2c1.2,0,1.8,0.2,1.8,0.4c0,0.1-0.3,0.3-0.7,0.4v0.4h2v-1.3
				c1.2,0,1.8,0.2,1.8,0.4c0,0.1-0.2,0.3-0.7,0.4v0.4h1.4l0.8-1c0.5,0.4,0.9,0.8,1.2,1.2l-0.2,0.3h-3.1V55h-1.1v-1.1h-2V55h-0.9
				c-0.1,0.2-0.1,0.4-0.2,0.5h5.1l0.6-0.8c0.8,0.6,1.1,0.9,1.1,1.1c0,0.1-0.1,0.2-0.2,0.3l-0.4,0.2c0,1.7-0.1,2.8-0.3,3.4
				c-0.2,0.8-0.7,1.2-1.5,1.2c-0.1,0-0.1,0-0.2,0C193.3,60.3,192.9,60,192.2,59.9L192.2,59.9z M188.5,67.7c-0.1,1.2-0.3,2-0.7,2.6
				c-0.4,0.5-0.7,0.8-1.1,0.8c-0.5,0-0.7-0.3-0.7-0.7c0-0.2,0.2-0.5,0.5-0.6c0.8-0.4,1.3-1.1,1.6-2.2L188.5,67.7z M192.2,59.4
				c0.4,0,0.7,0.1,1,0.1c0.4,0,0.7-0.2,0.8-0.6c0.1-0.6,0.2-1.6,0.2-2.9h-5.5c0,0-0.2,0.3-0.5,0.7c0.3,0.1,0.6,0.2,0.8,0.3h2.2
				l0.6-0.7c0.7,0.5,1.1,0.8,1.1,1c0,0.1,0,0.2-0.2,0.2l-0.4,0.3V59.4z M195.7,61.5v1.1h4.2l0.9-0.8c0.5,0.3,0.9,0.7,1.2,0.9
				l-0.2,0.4h-6v1.2h4.2l0.9-0.9c0.3,0.2,0.7,0.5,1.3,1l-0.2,0.4h-6.1v1.3h6.3l0.7-0.8c0.8,0.6,1.2,1,1.2,1.1c0,0.1-0.1,0.2-0.2,0.3
				l-0.5,0.3c-0.1,1.6-0.4,2.7-0.9,3.2c-0.4,0.4-1,0.6-1.8,0.6v0c0-0.3-0.1-0.5-0.4-0.7c-0.3-0.2-1-0.3-2.1-0.5v-0.5
				c1,0.1,1.8,0.2,2.6,0.2c0.7,0,1.1-0.3,1.3-0.7c0.2-0.6,0.3-1.2,0.3-2h-12.4v0.5h-1.1v-6.9l0.3,0.1l0.2,0.1l0.5,0.2
				c0.2,0.1,0.3,0.2,0.3,0.2h10.6l0.9-0.7c0.3,0.2,0.8,0.5,1.3,0.8l-0.2,0.4H195.7z M191.3,58.9v-1.3h-2.4v1.3H191.3z M194.6,62.6
				v-1.1h-4.9v1.1H194.6z M194.6,64.4v-1.2h-4.9v1.2H194.6z M194.6,66.2v-1.3h-4.9v1.3H194.6z M190.6,67.4c1.1,0.8,1.7,1.7,1.7,2.6
				c0,0.6-0.3,0.8-0.7,0.8c-0.3,0-0.5-0.2-0.6-0.7c-0.1-0.9-0.3-1.7-0.8-2.5L190.6,67.4z M193.9,67.3c1.4,0.8,2.2,1.5,2.2,2.3
				c0,0.5-0.2,0.7-0.7,0.7c-0.3,0-0.5-0.2-0.6-0.6c-0.1-0.7-0.6-1.4-1.2-2.1L193.9,67.3z M196,57.8l-0.3-0.3
				c1.1-1.4,1.9-3.2,2.4-5.4c1.2,0.2,1.8,0.5,1.8,0.7c0,0.1-0.3,0.3-0.8,0.4c-0.1,0.2-0.2,0.6-0.4,1h3.7l0.8-1.1
				c0.4,0.3,0.8,0.7,1.2,1.2l-0.2,0.4h-1.6c-0.5,1.2-1.1,2.3-1.8,3.1c0.9,0.6,2.2,1.1,3.8,1.6c-0.3,0.3-0.6,0.7-0.8,1.1
				c-1.5-0.6-2.8-1.2-3.7-2c-1.1,1-2.6,1.7-4.4,2.2l-0.3-0.4c1.6-0.6,2.9-1.4,3.9-2.5c-0.6-0.6-1.1-1.3-1.6-2.2
				C197.4,56.4,196.8,57.1,196,57.8z M197.4,66.9c1.5,0.4,2.3,0.9,2.3,1.5c0,0.5-0.2,0.7-0.6,0.7c-0.2,0-0.4-0.1-0.5-0.4
				c-0.2-0.5-0.7-1-1.4-1.4L197.4,66.9z M200,57.3c0.6-0.7,1-1.6,1.3-2.5h-2.9c0,0.1-0.1,0.1-0.1,0.2c0,0.1-0.1,0.1-0.1,0.2
				C198.6,56,199.2,56.7,200,57.3z"/>
			<path class="st1" d="M211.7,53.4c0.1-0.2,0.4-0.1,0.6-0.1c0.3,0,0.8,0.1,1.4,0.4c0.5,0.2,0.8,0.8,1.1,1.4c0.1,0.3,0.3,0.6,0.4,1
				c0.4-0.2,0.8-0.4,1-0.5c0.3-0.1,0.8-0.3,1.3,0c0.6,0.2,0.3,0.6-0.1,0.9c-0.2,0.2-0.6,0.3-1.2,0.5c0.2,0.1,0.3,0.1,0.5,0.2
				c0.3,0.1,1.7,0.4,2.2,0.5c0.6,0.1,1.3,0.2,1.9,0.4c0.6,0.2,0.5,0.7,0,1.1c-0.5,0.3-1.3,0.7-2.4,1.1c-0.4,0.1-0.8,0.3-1.2,0.4
				c0.4,0.9,1.2,2.6,1.3,3c0.2,0.5,0.4,0.9,0.3,1.3c-0.1,0.4-0.5,0.7-0.9,0.8c-0.4,0.1-1-0.1-1.6-0.5c-0.6-0.4-1.2-0.6-2.2-0.7
				c-1-0.1-2,0.1-2.8,0.6c-0.6,0.4-0.9,1.1-0.7,1.7c0.2,0.7,0.7,1,1.5,1.2c0.8,0.2,1.8,0.3,2.4,0.2c0.6,0,1.5-0.2,1.9-0.3
				c0.4-0.1,0.9,0,1.2,0.3c0.4,0.3,0.5,0.7,0.3,0.9c-0.2,0.2-0.5,0.3-1.3,0.4c-0.8,0.1-2.2,0.1-3.4-0.1c-1.2-0.2-2.3-0.6-2.9-1.3
				c-0.6-0.7-0.7-1.7-0.4-2.6c0.3-0.9,1.1-1.3,1.8-1.6c0.8-0.3,2-0.4,2.8-0.3c0.8,0,1.8,0.2,2,0.3c0.2,0.1,0.4,0.2,0.6,0
				c0.2-0.1,0-0.6-0.1-1c-0.1-0.3-0.6-1.5-0.9-2.4c-0.3,0.1-0.6,0.1-0.8,0.2c-0.7,0.2-1.7,0.4-2.5,0.4s-1.5-0.1-2-0.3
				c-0.6-0.2-1-0.5-1.3-0.7c-0.3-0.2-0.3-0.6-0.2-0.7c0.2-0.2,0.4,0,0.6,0.1c0.4,0.3,1.3,0.6,1.9,0.7c0.6,0.1,1.6,0,2.3-0.1
				c0.5-0.1,1.1-0.3,1.7-0.4c-0.3-0.7-0.6-1.4-0.9-2c-0.1-0.2-0.2-0.4-0.3-0.6c-0.9,0.2-1.6,0.2-2.3,0.2c-0.6,0-1.2-0.3-1.6-0.4
				c-0.4-0.2-0.5-0.4-0.3-0.6c0.1-0.2,0.4-0.1,0.6,0c0.3,0.1,0.7,0.2,1.3,0.2c0.5,0,1.2-0.2,1.8-0.4c-0.1-0.2-0.2-0.4-0.2-0.5
				c-0.2-0.4-0.6-0.9-1-1.2c-0.3-0.3-0.7-0.5-1-0.7C211.7,53.9,211.6,53.6,211.7,53.4z M215.8,57.2
				C215.7,57.2,215.7,57.2,215.8,57.2c0,0.1,0,0.2,0.1,0.3c0.2,0.4,0.6,1.5,1,2.3c0.9-0.3,1.5-0.6,1.8-0.7c0.2-0.1,0.6-0.3,0.5-0.4
				c0-0.1-0.5-0.2-0.9-0.4c-0.5-0.2-1.3-0.5-1.7-0.6C216.4,57.5,216,57.3,215.8,57.2z"/>
			<path class="st1" d="M236.5,68.3c-1.2,0.1-3.3,0.2-4.8,0.2c-1.6,0-3.2-0.3-3.8-1.2c-0.6-0.8-0.7-2-0.1-2.9
				c0.6-0.9,1.3-1.5,2.3-2.1c-0.5-0.3-0.9-0.8-1-1.3c-0.1-0.6,0-1.9,0.1-2.7c0.1-0.8,0.2-1.7,0.2-2.4s-0.1-1.3-0.3-1.5
				c-0.2-0.3-0.4-0.6-0.3-0.8c0.2-0.4,0.7-0.1,1,0.1s0.8,0.9,1,1.3c0.2,0.4,0.1,1,0,1.5c-0.1,0.5-0.4,1.1-0.5,2
				c-0.1,0.8-0.2,1.9-0.3,2.5c0,0.4,0.1,0.7,0.5,1.1c1.4-0.8,2.9-1.6,4.3-2.3c0.4-0.2,0.2-0.7,0-1c-0.2-0.3,0.1-0.5,0.4-0.4
				c0.3,0,0.6,0.2,0.9,0.5c0.4,0.3,0.8,1.2,0,1.6c-3,1.4-5.1,2.3-6.6,3.3c-1.4,1-1.7,2.1-0.9,3c0.6,0.7,1.9,0.9,3.1,0.9
				c1.2,0,2.6-0.2,3.3-0.5c0.7-0.3,2.1-0.4,2.4,0.2C237.7,68,237.2,68.2,236.5,68.3z"/>
			<path class="st1" d="M257.7,56.6c1.1,0.5,1.6,0.9,1.6,1.1c0,0.2-0.3,0.3-0.9,0.3c-0.6,1.2-1.2,2.2-1.9,3.1l-0.1,0.1
				c1,1.3,1.7,1.9,2.1,1.9c0.3,0,0.5-1,0.7-3.1l0.6,0.3c0,0.7-0.1,1.2-0.1,1.6c0,1.1,0.2,1.8,0.7,2c-0.1,0.7-0.4,1-0.9,1
				c-1.1,0-2.4-0.9-3.8-2.7c-0.9,1.1-2.1,2.1-3.5,2.9c1.1,0.6,1.7,1.3,1.7,1.9c0,0.5-0.2,0.8-0.7,0.8c-0.3,0-0.5-0.2-0.7-0.6
				c-0.3-0.8-1-1.7-2.1-2.5l0.3-0.4c0.5,0.2,0.9,0.4,1,0.5l0.1-0.1c1.2-0.8,2.2-1.9,3.2-3.3c-1-1.5-1.7-3.4-2.1-5.6h-7.6v2.6
				c0,3.6-1,6.2-3,8l-0.4-0.3c1.4-1.9,2.1-4.4,2.1-7.7v-3.8c0.5,0.2,1,0.4,1.5,0.6h7.3c-0.1-0.8-0.2-1.7-0.2-3
				c1.2,0.1,1.9,0.3,1.9,0.5c0,0.1-0.2,0.3-0.7,0.5c0,0.6,0.1,1.3,0.2,1.9h3.8l0.9-1.3c0.5,0.5,0.9,0.9,1.3,1.4l-0.2,0.4h-5.7
				c0.4,1.7,0.9,3.3,1.7,4.7C256.6,59.2,257.2,57.9,257.7,56.6z M245.8,65.4c0,1.6-0.4,2.9-1,3.8c-0.5,0.7-1,1-1.4,1
				c-0.2,0-0.4-0.1-0.6-0.3c-0.1-0.2-0.2-0.3-0.2-0.5c0-0.3,0.2-0.5,0.6-0.7c1.1-0.6,1.8-1.7,2.1-3.4L245.8,65.4z M250.6,57.5
				l0.9-1.1c0.5,0.5,0.9,0.9,1.2,1.2l-0.3,0.4h-6.2l-0.2-0.5H250.6z M250.5,59.7l0.6-0.8c0.8,0.6,1.2,0.9,1.2,1.1
				c0,0.1,0,0.2-0.2,0.2l-0.4,0.3v3h-1.1V63h-2.8V64h-1.1v-4.7c0.4,0.1,0.8,0.3,1.2,0.5H250.5z M256.1,66.8c0,1,0,1.6,0.1,1.9
				c0.1,0.3,0.3,0.5,0.7,0.5c-0.1,0.7-0.4,1.1-1.1,1.2c-0.7,0.1-2,0.2-3.9,0.2c-2.1,0-3.3-0.1-3.7-0.2c-0.4-0.2-0.6-0.6-0.6-1.3v-4
				c1.3,0.1,1.9,0.2,1.9,0.5c0,0.1-0.3,0.3-0.7,0.5v2.6c0,0.4,0.1,0.6,0.4,0.6c0.3,0.1,1.1,0.1,2.3,0.1c1.6,0,2.6,0,2.9-0.1
				c0.6-0.1,1-1,1.1-2.7L256.1,66.8z M247.8,60.2v2.3h2.8v-2.3H247.8z M255.3,52.4c1.5,0.4,2.3,0.9,2.3,1.7c0,0.4-0.2,0.7-0.7,0.7
				c-0.3,0-0.5-0.2-0.6-0.5c-0.2-0.5-0.6-1-1.2-1.4L255.3,52.4z M256.6,65c2.7,1.2,4,2.5,4,3.8c0,0.6-0.3,0.9-0.7,0.9
				c-0.3,0-0.6-0.3-0.8-0.7c-0.4-1.1-1.4-2.3-2.8-3.5L256.6,65z"/>
			<path class="st1" d="M269.8,58.6h2.3l0.7-0.8c0.8,0.6,1.1,0.9,1.1,1.1c0,0.1-0.1,0.2-0.2,0.3l-0.3,0.3v4.7h-1.1v-0.6h-2.5v2h2.3
				l0.9-1.1c0.5,0.4,0.9,0.8,1.2,1.2l-0.2,0.4h-4.2v2c1-0.1,2.5-0.4,4.3-0.8l0.1,0.5c-3.2,0.9-6.3,1.5-9.1,2
				c-0.1,0.5-0.2,0.8-0.4,0.8c-0.3,0-0.5-0.6-0.9-1.8c1.5-0.1,2.9-0.3,4.4-0.5l0.3,0v-2.1h-4l-0.2-0.5h4.2v-2h-2.4v0.8h-1.1v-6.3
				c0.4,0.2,0.8,0.3,1.3,0.6h2.3v-1.8h-4.4l-0.2-0.5h4.6v-1.7l-0.4,0c-1.3,0.1-2.6,0.2-3.8,0.3l-0.2-0.5c3.4-0.3,6.2-0.9,8.5-1.7
				c0.7,0.6,1.1,1,1.1,1.2c0,0.1-0.1,0.2-0.3,0.2c-0.2,0-0.4,0-0.7-0.1c-0.9,0.1-1.9,0.3-3,0.4v1.9h2.9l0.9-1.1
				c0.4,0.4,0.9,0.8,1.2,1.3l-0.2,0.3h-4.8V58.6z M268.6,59.1h-2.4v1.6h2.4V59.1z M266.2,62.9h2.4v-1.7h-2.4V62.9z M272.3,60.7v-1.6
				h-2.5v1.6H272.3z M272.3,61.2h-2.5v1.7h2.5V61.2z M276.7,58.2h-2.6l-0.2-0.5h2.9v-5.3c1.4,0,2,0.2,2,0.5c0,0.2-0.3,0.3-0.8,0.5
				v4.1h2.5l0.8-1c0.8,0.7,1.2,1.1,1.2,1.2c0,0.1,0,0.2-0.2,0.3l-0.4,0.3c0,6.3-0.4,10-1,11.1c-0.5,0.8-1.2,1.2-2.1,1.2
				c0-0.4-0.2-0.6-0.6-0.8c-0.3-0.1-1-0.3-2-0.5v-0.6c1,0.2,1.8,0.3,2.5,0.3c0.8,0,1.3-0.4,1.5-1.3c0.4-1.8,0.6-4.6,0.6-8.5v-1.2
				h-2.6c0,0.1,0,0.3,0,0.4c-0.1,3.3-0.6,6-1.7,7.9c-0.9,1.7-2.2,3.2-4.1,4.5l-0.3-0.4c2.1-1.8,3.5-3.9,4.2-6.4
				c0.4-1.5,0.6-3.4,0.7-5.6L276.7,58.2z"/>
			<path class="st1" d="M299.7,60.4c-0.3,0.5-1,0.9-1.7,1.3c-0.7,0.3-1.8,0.7-2.7,1.1c-0.2,0.1-0.5,0.2-0.7,0.3
				c0,0.3,0.1,0.5,0.1,0.8c0.1,0.9,0,1.6-0.3,2c-0.2,0.4-0.5,0.7-0.9,0.8c-0.5,0-0.7-0.3-0.5-0.8c0.2-0.5,0.3-1.3,0.3-2.1
				c0,0,0-0.1,0-0.1c-0.4,0.2-0.8,0.3-1.1,0.5c-0.7,0.4-1.3,0.8-1.8,1.5c-0.4,0.6-0.7,1.4-0.3,2c0.4,0.6,1.4,1,2.3,1
				c0.9,0,1.5-0.1,2.2-0.2c0.6-0.1,1.2-0.3,1.5-0.3c0.7,0,1,0.1,1.4,0.4c0.4,0.3,0.4,0.7,0,0.8c-0.2,0.1-0.4,0.2-1.2,0.3
				c-0.8,0.1-2.3,0.3-3.3,0.2c-1.1,0-2.2-0.3-3.1-0.9c-0.8-0.5-1-1.2-1-2.1c0-0.9,0.4-1.4,1-2c0.6-0.6,1.3-1.1,2.2-1.5
				c0.4-0.2,0.8-0.4,1.3-0.6c0-0.4-0.1-0.6-0.3-0.9c-0.4-0.5-1-0.8-1.5-0.8c-0.5-0.1-1,0-1.5,0.2c-0.2,0.1-0.3,0.1-0.4,0.2
				c-0.3,0.4-0.6,0.7-0.9,1.1c-0.6,0.8-1.2,1.2-1.7,1.2c-0.5,0-0.6-0.3-0.6-0.7c0-0.4,0.2-0.8,0.5-1c0.3-0.2,0.7-0.4,1.2-0.7
				c0.9-0.6,1.7-1.8,2.4-2.9c0.3-0.6,0.6-1,0.7-1.5c-0.2,0-0.4,0-0.6,0.1c-0.7,0.1-1.4,0-1.9-0.3c-0.5-0.3-0.6-1-0.4-1.3
				c0.3-0.4,0.7-0.1,1.2,0.1c0.5,0.2,1.1,0.2,1.8,0c0.1,0,0.2,0,0.3-0.1c0.1-0.6-0.1-0.9-0.3-1.1c-0.3-0.3-0.3-0.6-0.1-0.8
				c0.2-0.1,0.5-0.2,0.9,0c0.1,0.1,0.2,0.2,0.3,0.3c0.3,0,0.7,0.1,0.9,0.2c0.2,0,0.7,0.1,0.9,0.3c0.2,0.2,0.1,0.4-0.1,0.7
				c-0.2,0.3-0.7,1-1.2,1.3c-0.1,0.1-0.3,0.2-0.4,0.2c-0.1,0.5-0.3,0.9-0.6,1.3c-0.5,1-0.8,1.5-1.4,2.4c-0.1,0.1-0.1,0.2-0.2,0.3
				c0.2-0.1,0.4-0.2,0.5-0.2c0.5-0.2,1-0.3,1.6-0.1c0.5,0.1,0.9,0.3,1.2,0.7c0.1-0.1,0.2-0.3,0.3-0.4c0.8-1,1.4-1.6,2.5-2.1
				c1-0.5,2.3-0.6,3.2,0C300.4,59,300.1,59.9,299.7,60.4z M292.8,55c0.1-0.1,0.2-0.1,0.3-0.2c0.3-0.2,0.5-0.4,0.4-0.5
				c-0.1-0.1-0.2-0.2-0.6-0.2c-0.1,0-0.2,0-0.3,0c0.1,0.2,0.1,0.4,0.1,0.6C292.8,54.8,292.8,54.9,292.8,55z M298.8,59
				c-0.1-0.3-0.6-0.5-1.4-0.3c-0.8,0.2-1.4,0.6-1.9,1.1c-0.5,0.5-1,1.2-1.2,1.9c0.1,0.1,0.1,0.3,0.2,0.4c0.2-0.1,0.4-0.2,0.6-0.3
				c1-0.4,2.1-0.9,3-1.4C298.9,59.9,298.9,59.3,298.8,59z"/>
			<path class="st1" d="M334.9,61.7v0.9h-30.6v-0.9H334.9z"/>
			<path class="st1" d="M341.6,66.3c0.9,0.5,1.3,1.2,1.3,2.2c0,0.6-0.3,1.3-0.7,1.8c-0.5,0.6-1.1,0.8-1.9,0.8
				c-0.4,0-0.8-0.1-1.1-0.3c-1-0.5-1.5-1.3-1.5-2.3c0-0.9,0.4-1.7,1.2-2.2c0.4-0.3,0.9-0.4,1.3-0.4C340.7,65.9,341.2,66,341.6,66.3z
				 M338.9,67.2c-0.3,0.3-0.5,0.8-0.5,1.3c0,0.3,0.1,0.7,0.3,1c0.4,0.6,0.9,0.9,1.6,0.9c0.5,0,0.9-0.2,1.2-0.5
				c0.4-0.4,0.6-0.9,0.6-1.4c0-0.6-0.3-1.1-0.8-1.5c-0.3-0.2-0.7-0.3-1.1-0.3C339.7,66.6,339.3,66.8,338.9,67.2z"/>
		</g>
	</g>
</g>
<g>
</g>
<g>
</g>
<g>
</g>
<g>
</g>
<g>
</g>
<g>
</g>
</svg>
