<?xml version="1.0" encoding="utf-8"?>
<!-- Generator: Adobe Illustrator 20.1.0, SVG Export Plug-In . SVG Version: 6.00 Build 0)  -->
<svg version="1.1" id="レイヤー_1" xmlns="http://www.w3.org/2000/svg" xmlns:xlink="http://www.w3.org/1999/xlink" x="0px"
	 y="0px" width="724.3px" height="64px" viewBox="0 0 724.3 64" style="enable-background:new 0 0 724.3 64;" xml:space="preserve">
<style type="text/css">
	.st0{fill-rule:evenodd;clip-rule:evenodd;}
	.st1{fill:#FFFFFF;}
</style>
<polygon class="st0" points="674.7,0 625.5,0 576,0 148.3,0 98.7,0 49.5,0 0,0 0,64 49.5,64 98.7,64 148.3,64 224,64 273.6,64 
	322.8,64 372.3,64 724.3,0 "/>
<g>
	<path class="st1" d="M160.4,27.5h0.5v13.7h-0.5V27.5z"/>
	<path class="st1" d="M170.9,31.4c-0.8,0-1.1,0-1.5,0.1l-0.2-0.5c0.8,0.1,1.7,0.1,2,0.1c0-1.4,0-1.9,0-2.2c0-0.3,0-0.5-0.1-0.8
		l1.4,0.3c0.1,0,0.2,0.1,0.2,0.2c0,0.2-0.3,0.4-0.5,0.5c0,0.3-0.1,0.8-0.1,2h0.2l0.4-0.6c0.1-0.1,0.1-0.2,0.2-0.2s0.2,0.1,0.2,0.1
		l0.4,0.5c0.1,0.1,0.1,0.2,0.1,0.3c0,0.1-0.1,0.1-0.2,0.1h-1.4c0,0.3,0,0.5,0,1.5c0.2,0.1,0.4,0.2,0.6,0.3c0.8,0.6,1,0.9,1,1.3
		s-0.4,0.7-0.6,0.7c-0.5,0-0.6-0.6-0.6-0.8c0-0.6-0.1-1-0.3-1.3c0,3.9,0,6.1,0,6.6c0,0.7-0.1,1-0.7,1c-0.6,0-0.5-0.9-0.5-1.5
		c0-0.9,0.1-2.2,0.2-4.9c-0.3,0.7-0.7,1.3-0.8,1.4c-0.8,1.2-1.3,1.7-1.6,1.9l-0.1-0.1c0.8-1.1,1.1-1.8,1.8-3.9
		c0.2-0.6,0.5-1.4,0.6-2.2H170.9z M175.4,34.1c-0.8,0-1.1,0-1.5,0.1l-0.2-0.5c0.8,0.1,1.8,0.1,1.9,0.1h1v-2.3h-1.7
		c-0.4,0.8-1,1.4-1.6,2l-0.1-0.1c0.8-1.7,1-2.4,1.1-2.8c0.1-0.4,0.2-0.9,0.2-1.1c0-0.2,0-0.3,0-0.5l1.4,0.6c0.1,0,0.2,0.1,0.2,0.2
		c0,0.2-0.1,0.2-0.4,0.3c-0.1,0.2-0.2,0.3-0.6,1.1h1.5c0-0.4-0.1-1.9-0.1-2.2c0-0.2-0.1-0.6-0.3-0.9l1.6,0.3c0.1,0,0.2,0.1,0.2,0.2
		c0,0.2-0.3,0.4-0.4,0.5c0,0.4,0,0.8,0,2.1h1.1l0.5-0.7c0.1-0.1,0.1-0.2,0.2-0.2c0.1,0,0.2,0.1,0.2,0.1l0.8,0.7
		c0.1,0.1,0.1,0.1,0.1,0.2c0,0.1-0.1,0.1-0.2,0.1h-2.9c0,0.6,0,1.7,0,2.3h1.7l0.7-0.7c0.1-0.1,0.2-0.2,0.2-0.2
		c0.1,0,0.2,0.1,0.3,0.1l0.9,0.7c0.1,0.1,0.1,0.1,0.1,0.2c0,0.1-0.1,0.1-0.2,0.1h-3.6c0.4,0.8,1.2,2,1.9,2.6
		c0.7,0.6,1.8,1.2,2.5,1.3v0.1c-0.3,0-1.2,0.4-1.6,1c-0.3-0.2-0.7-0.5-1.6-1.6c-0.6-0.8-0.9-1.7-1.3-3c0,1,0,2.1,0,3
		c0,0.4,0.1,2,0.1,2.3c0,0.6-0.4,0.8-0.8,0.8c-0.5,0-0.5-0.4-0.5-0.5c0-0.1,0.1-4.1,0.1-4.2v-0.8c-0.2,0.3-0.9,1.5-1.8,2.3
		c-0.5,0.5-1.4,1.2-2.1,1.6l0-0.1c0.4-0.3,2-2.3,2.4-2.9c0.2-0.3,0.3-0.5,1.1-2H175.4z"/>
	<path class="st1" d="M187.2,37.6c1.2-0.3,2.3-0.7,3.3-1.1l0,0.1c-1.5,1.1-3,1.9-6.4,3.2c-0.1,0.2-0.1,0.3-0.2,0.3
		c-0.1,0-0.2-0.1-0.3-0.3l-0.6-1.5c0.2,0,0.3,0.1,0.5,0.1c0.7,0,1.8-0.3,2.5-0.5v-3.8h-1c-0.8,0-1.1,0-1.5,0.1l-0.2-0.5
		c0.8,0.1,1.8,0.1,2,0.1h2.1l0.6-0.7c0.1-0.1,0.1-0.2,0.2-0.2s0.2,0.1,0.2,0.2l0.9,0.7c0.1,0.1,0.1,0.1,0.1,0.2
		c0,0.1-0.1,0.1-0.2,0.1h-2.1V37.6z M193.3,31.2l0.7-0.8c0.1-0.1,0.1-0.2,0.2-0.2s0.2,0.1,0.3,0.2l0.9,0.8c0.1,0.1,0.1,0.1,0.1,0.2
		c0,0.1-0.1,0.1-0.2,0.1h-4.7c0.3,3.1,1.1,4.9,2.1,6.3c0.2,0.2,0.8,1,1.1,1c0.2,0,0.2,0,0.5-0.7c0.3-0.5,0.4-1,0.7-1.5l0.1,0
		c-0.1,0.8-0.1,1.7-0.1,2.4c0,0.2,0,0.3,0.2,0.5c0.2,0.3,0.3,0.3,0.3,0.5c0,0.3-0.2,0.5-0.7,0.5c-0.6,0-1.8-0.7-2.6-1.6
		c-1.5-1.9-2.1-4.1-2.6-7.4h-4.7c-0.8,0-1.1,0-1.5,0.1l-0.2-0.5c0.8,0.1,1.8,0.1,1.9,0.1h4.4c0-0.1-0.2-1.8-0.2-2.1
		c0-0.7-0.2-0.9-0.3-1.1l1.8,0.5c0.2,0.1,0.3,0.1,0.3,0.2c0,0.1-0.3,0.3-0.5,0.4c0,0.5,0,1.1,0.1,2.2H193.3z M191.2,28.5
		c0.4,0.1,0.9,0.2,1.3,0.4c0.5,0.3,0.6,0.7,0.6,1c0,0.2-0.1,0.7-0.6,0.7c-0.3,0-0.5-0.1-0.6-0.5c-0.3-0.8-0.4-0.9-0.8-1.4
		L191.2,28.5z"/>
	<path class="st1" d="M208.7,32.7c-0.5,0.2-1,0.6-1.4,1.2c-0.5-0.2-1.7-0.8-3-2.2c-0.6-0.7-1.3-1.5-1.9-2.7c-1,1.8-3.9,4.4-6.2,5.4
		l-0.1-0.1c2.5-1.8,4.2-4.3,4.9-5.6c0.2-0.4,0.3-0.6,0.3-0.9l1.5,0.5c0.1,0,0.2,0.1,0.2,0.2c0,0.2-0.3,0.3-0.5,0.3
		C203.4,30.3,205.6,32.1,208.7,32.7L208.7,32.7z M203.5,36.3c0.8,0.3,3.5,1.7,3.5,3.4c0,0.2-0.2,0.8-0.7,0.8c-0.4,0-0.7-0.2-0.9-0.9
		c-0.1-0.5-0.2-0.7-0.4-1c-1.2,0.4-5.7,1.4-6.8,1.6c-0.1,0.1-0.1,0.3-0.2,0.3c-0.2,0-0.2-0.2-0.3-0.3l-0.6-1.5
		c0.5,0.1,0.8,0.2,1.3,0.2c0.2,0,0.5,0,0.9,0c0.5-1.1,0.8-1.9,1-3h-2c-0.8,0-1.1,0-1.5,0.1l-0.2-0.5c0.8,0.1,1.8,0.1,2,0.1h6.5
		l0.8-0.8c0.1-0.1,0.2-0.2,0.2-0.2c0.1,0,0.2,0.1,0.3,0.1l1.1,0.8c0.1,0.1,0.1,0.1,0.1,0.2c0,0.1-0.1,0.2-0.2,0.2H202
		c-0.6,1.1-1.8,2.4-2.3,2.9c3.4-0.3,4.1-0.3,5.1-0.5C204.4,37.4,203.8,36.7,203.5,36.3L203.5,36.3z M202.5,33l0.7-0.8
		c0.1-0.1,0.2-0.2,0.2-0.2c0.1,0,0.2,0.1,0.2,0.2l0.9,0.8c0.1,0.1,0.1,0.1,0.1,0.2c0,0.1-0.1,0.2-0.2,0.2h-3.6c-0.8,0-1.1,0-1.5,0.1
		l-0.2-0.5c0.8,0.1,1.8,0.1,1.9,0.1H202.5z"/>
	<path class="st1" d="M209.1,36.2c1.5-1.2,3.6-3.8,4.1-5.1h-2c-0.8,0-1.1,0-1.5,0.1l-0.2-0.5c0.8,0.1,1.8,0.1,1.9,0.1h0.5
		c0-1.5-0.2-2.1-0.4-2.8l1.7,0.5c0.1,0,0.2,0.1,0.2,0.2c0,0.1-0.2,0.2-0.4,0.4c0,0.2,0,0.4,0,0.7c0,0.2,0,0.8,0,1h0.3l0.4-0.4
		c0.1-0.1,0.1-0.1,0.2-0.1c0.1,0,0.2,0.1,0.2,0.1l0.8,0.7c0,0,0.1,0.1,0.1,0.2c0,0.2-0.3,0.3-0.6,0.3c-0.3,0.4-0.7,1-1.3,1.7
		c0.7,0.2,2.1,1,2.1,1.9c0,0.2-0.2,0.6-0.6,0.6c-0.4,0-0.6-0.3-0.8-0.8c-0.1-0.2-0.5-1-0.9-1.5c0,0.7,0,3.5,0,4.1c0,0.6,0,1.3,0,1.4
		c0,0.1,0.1,0.5,0.1,0.7c0,0.3-0.4,0.6-0.8,0.6c-0.1,0-0.5,0-0.5-0.5c0-0.1,0.1-0.9,0.1-1c0-0.9,0-1.3,0.1-4.4
		C210.6,35.5,209.6,36,209.1,36.2L209.1,36.2z M216.4,33.1c-0.8,0-1.1,0-1.5,0.1l-0.2-0.5c0.8,0.1,1.8,0.1,1.9,0.1h0.6
		c0-1.2,0-1.3,0-2.6c0-0.9-0.1-1.3-0.5-2.1l1.6,0.4c0.3,0.1,0.4,0.2,0.4,0.3c0,0.2-0.2,0.3-0.4,0.4c0,0.1,0,0.2,0,0.4v3.3h1.1
		l0.6-0.8c0.1-0.1,0.1-0.2,0.2-0.2s0.2,0.1,0.2,0.1l0.9,0.8c0.1,0.1,0.1,0.1,0.1,0.2c0,0.1-0.1,0.2-0.2,0.2h-3v1.2
		c0,2.4,0,2.7,0,4.9h1.2l0.8-0.8c0.1-0.1,0.2-0.2,0.2-0.2c0.1,0,0.2,0.1,0.3,0.2l0.8,0.8c0.1,0.1,0.1,0.1,0.1,0.2
		c0,0.1-0.1,0.2-0.2,0.2h-5.9c-0.8,0-1.1,0-1.5,0.1l-0.2-0.5c0.8,0.1,1.8,0.1,1.9,0.1h1.3v-2.5c0-2.2,0-2.5,0-3.6H216.4z"/>
	<path class="st1" d="M224.7,39.8c2.3-2.5,2.7-6,2.7-6.4c0-0.5-0.2-0.6-1-0.9c0.3-0.2,0.5-0.3,0.8-0.3c0.4,0,1.2,0.2,1.4,0.5
		c0.1,0.1,0.1,0.2,0.1,0.3c0.7-0.7,1.2-1.1,1.8-1.8c0.1-0.1,0.1-0.2,0.1-0.3c0-0.1,0-0.1-0.1-0.1c-0.1,0-4.2,0.4-5.5,0.9
		c-0.1,0-0.6,0.3-0.7,0.3c-0.2,0-0.7-0.4-0.8-0.5c-0.5-0.5-0.5-0.5-0.5-0.9c0-0.4,0.1-0.5,0.1-0.7c0.2,0.4,0.6,0.6,0.7,0.6
		c0.1,0.1,0.3,0.1,0.7,0.1c0.6,0,5.6-0.6,5.7-0.6c0.2,0,0.7-0.1,0.8-0.1c0.1,0,0.3-0.1,0.4-0.1c0.2,0,0.7,0.5,0.9,0.7
		c0.2,0.2,0.5,0.5,0.5,0.7c0,0.3-0.3,0.3-1.1,0.4c-1.1,0.7-2.4,1.5-3.1,1.9C227.7,37,227,38.7,224.7,39.8L224.7,39.8z"/>
	<path class="st1" d="M240.4,31.6c0,0.1-0.1,0.2-0.2,0.5c-0.1,0.1-0.2,0.7-0.2,1.5c1.7-0.2,3-0.3,3.6-0.4c0.2-0.1,0.3-0.1,0.5-0.1
		c0.4,0,1.3,0.3,1.3,0.8c0,0.3-0.3,0.4-0.6,0.4c-0.5,0-1.9-0.2-2.7-0.2c-0.7,0-1.4,0-2.2,0.1c0,0.7-0.1,1.4-0.1,2.1
		c0,0.9,0.1,1.3,1.1,1.3c1.4,0,1.7-0.3,2.1-0.3c0.2,0,1.1,0.2,1.1,0.7c0,0.6-0.7,0.6-2.1,0.6c-2.2,0-3.3,0-3.3-2.1
		c0-0.3,0-0.8,0.1-2.1c-1.7,0.3-2.3,0.6-2.7,0.8c-0.2,0.1-0.3,0.2-0.4,0.2c-0.2,0-0.9-0.4-1.2-0.8c-0.3-0.4-0.3-0.8-0.3-1.2
		c0.6,0.6,0.8,0.7,1.4,0.7c0.2,0,0.6-0.1,0.8-0.1c0.8-0.1,1.6-0.2,2.4-0.3c0-0.3,0-1.1,0-1.9c0-0.3-0.1-0.5-0.4-0.6
		c-0.5,0.1-1.1,0.3-1.3,0.3c-0.2,0-0.4-0.2-0.5-0.3c-0.4-0.4-0.5-0.8-0.5-1c0-0.1,0-0.1,0-0.2c0.5,0.3,0.8,0.5,1.4,0.5
		c0.4,0,3.6-0.3,4.2-0.6c0.2-0.1,0.5-0.2,0.6-0.2c0.4,0,1.2,0.2,1.2,0.8c0,0.4-0.3,0.4-0.5,0.4c-2.1,0-2.7,0.1-3.6,0.2
		C239.8,31.1,240.4,31.3,240.4,31.6z"/>
	<path class="st1" d="M246.9,38.7c2.2-2.2,2.5-4.5,2.5-6.4c0-0.5,0-1-0.4-1.1c-0.1,0-0.6-0.2-0.7-0.2c0.1-0.1,0.7-0.3,0.8-0.3
		c0.1,0,0.2,0,0.2,0c0.3,0,1.4,0.3,1.4,0.7c0,0.1-0.2,0.4-0.2,0.7c0,0.2-0.2,1.7-0.2,2C249.9,37.1,247.8,38.4,246.9,38.7L246.9,38.7
		z M257.9,32.6c-0.4,0.9-1.5,2.9-3.7,4.6c-0.9,0.7-1,0.8-1.4,1.1c-0.1,0.1-0.3,0.2-0.3,0.2c-0.1,0-0.2-0.1-0.5-0.5
		c-0.3-0.5-0.5-0.8-0.5-0.9c0-0.1,0.2-0.5,0.2-0.5c0.1-0.4,0.2-1.5,0.2-2.5c0-0.4,0-3.3-0.1-3.5c-0.1-0.3-0.5-0.5-1.1-0.7
		c0.3-0.2,0.6-0.3,0.9-0.3c0.5,0,1.2,0.3,1.4,0.5c0.1,0.1,0.1,0.2,0.1,0.3c0,0.1-0.2,0.7-0.2,0.8c-0.1,0.5-0.2,4.4-0.2,5.1
		c0,0.2,0,0.2,0.1,0.2c0.4,0,2.6-1.5,4.8-4.1L257.9,32.6z"/>
	<path class="st1" d="M261.3,39.4c2.7-1.5,5.2-4.7,6-8.1c-0.8,0-4.4,0.6-4.8,0.6c-0.1,0-0.7,0.2-1,0.3c-0.1,0.1-0.3,0.1-0.3,0.1
		c-0.2,0-1.2-0.5-1.2-1.7c0-0.2,0.1-0.4,0.1-0.6c0.1,0.1,0.1,0.2,0.5,0.5c0.3,0.4,0.6,0.4,0.9,0.4c1.1,0,5.1-0.4,5.5-0.5l0.5-0.3
		c0.1-0.1,0.2-0.1,0.3-0.1c0.1,0,0.1,0,0.2,0.1l0.7,0.7c0.1,0.1,0.3,0.3,0.3,0.5c0,0.2-0.2,0.4-0.7,0.6c-0.9,2.6-2,5-4.3,6.4
		c-1.2,0.7-2.2,1-2.6,1.1L261.3,39.4z"/>
	<path class="st1" d="M270.7,37c1.1-0.8,2-1.4,4.1-3.9c0.5-0.6,1-1.4,1-1.7c0-0.2-0.3-0.4-0.5-0.6c0.2,0,0.3,0,0.3,0
		c0.8,0,1.5,0.8,1.5,1.1c0,0.2-0.2,0.3-0.5,0.5c-0.6,0.7-1.2,1.3-1.7,1.8l0.4,0.3c0.1,0.1,0.2,0.1,0.2,0.3c0,0.2-0.1,0.5-0.1,1.2
		c0,0.4,0,2.3,0,2.8c0,0.4,0,1.4-0.5,1.4c-0.2,0-0.5-0.5-0.5-0.9c0,0,0.1-0.8,0.1-0.9c0.1-0.8,0.1-1.5,0.1-2.3c0-0.4,0-0.7,0-1
		c0-0.1-0.1-0.2-0.1-0.3C273.2,35.8,272.4,36.4,270.7,37L270.7,37z"/>
</g>
<g>
	<g>
		<path class="st1" d="M30.5,37c0,0.7,0.1,2.1,0.1,2.6h-2.4c-0.1-0.3-0.1-0.9-0.1-1.3c-0.5,0.9-1.4,1.5-3,1.5c-2.5,0-3.4-2-3.4-3.8
			c0-2.6,1.8-4.2,5.1-4.2c0.5,0,0.8,0,1.2,0.1v-1.5c0-0.8-0.2-1.8-1.6-1.8c-1.5,0-1.6,1-1.7,1.8h-2.5c0.1-1.9,0.9-3.9,4.3-3.9
			c2.7,0,4,1.3,4,3.7V37z M28,33.8c-0.3-0.1-0.6-0.1-1.1-0.1c-1.9,0-2.6,0.9-2.6,2.1c0,0.9,0.5,1.9,1.7,1.9c1.6,0,2-1.2,2-3.4V33.8z
			"/>
		<path class="st1" d="M34,30.6c0-2.5,0-3.3,0-3.9h2.5c0.1,0.3,0.1,1,0.1,1.4c0.6-1.1,1.5-1.7,2.9-1.7c1.4,0,2.2,0.6,2.6,1.8
			c0.5-0.9,1.5-1.8,3.2-1.8c1.8,0,3.2,0.9,3.2,3.9v9.3h-2.6v-8.9c0-1.1-0.4-2-1.5-2c-1.4,0-1.8,1.1-1.8,2.7v8.2h-2.6v-8.9
			c0-1.3-0.4-2-1.5-2c-1.3,0-1.8,1-1.8,2.8v8.1H34V30.6z"/>
		<path class="st1" d="M60.9,33.1c0,4.7-1.7,6.9-4.8,6.9s-4.7-2.1-4.7-6.8c0-4.5,1.9-6.6,4.8-6.6C59.3,26.5,60.9,28.7,60.9,33.1z
			 M54.1,33.1c0,3,0.6,4.6,2.1,4.6c1.5,0,2.1-1.6,2.1-4.6c0-3-0.6-4.4-2.1-4.4C54.7,28.7,54.1,30.1,54.1,33.1z"/>
		<path class="st1" d="M63.9,31.1c0-2.1,0-3.5,0-4.4h2.5c0,0.3,0.1,0.8,0.1,2.2c0.5-1.5,1.7-2.4,3.4-2.4v2.9c-2.1,0-3.3,0.9-3.3,3.3
			v7h-2.6V31.1z"/>
		<path class="st1" d="M72.4,44.4V30.5c0-1.8,0-2.9,0-3.8h2.5c0.1,0.3,0.1,1,0.1,1.5c0.4-0.9,1.2-1.8,3-1.8c2.4,0,3.8,2.1,3.8,6.5
			c0,4.9-1.7,6.9-4.2,6.9c-1.4,0-2.2-0.6-2.5-1.4v5.8H72.4z M77,28.7c-1.7,0-2.1,1.6-2.1,4.3c0,3,0.2,4.6,2,4.6
			c1.4,0,2.1-1.6,2.1-4.6C79.1,30,78.4,28.7,77,28.7z"/>
		<path class="st1" d="M87.3,21.8v6.3c0.5-0.9,1.4-1.6,3-1.6c2.1,0,3.3,1.3,3.3,4v9.2h-2.6V31c0-1.4-0.3-2.3-1.7-2.3
			c-1.5,0-1.9,1.2-1.9,3.1v7.9h-2.6V21.8H87.3z"/>
		<path class="st1" d="M98.5,26.7c1.1,4.6,2.1,8.2,2.2,9.8h0c0.3-1.7,1.3-5.7,2.2-9.8h2.6l-3.8,13.6c-1.1,4-2.4,4.3-4.2,4.3
			c-0.3,0-0.8,0-1.1-0.1v-2.2c0.2,0,0.6,0.1,0.9,0.1c1.2,0,1.6-0.7,2-2.4l-3.9-13.2H98.5z"/>
	</g>
</g>
<g>
	<g>
		<path class="st1" d="M116.3,36.7c0,0.6-0.3,3.2-3,3.2c-2.9,0-3.1-3.1-3.1-5.7c0-3.2,0.8-5.5,3.2-5.5c2.6,0,2.8,2.4,2.8,3.1h-1.2
			c0-0.4-0.1-2-1.6-2c-1.7,0-2,2.3-2,4.4c0,2.3,0.3,4.6,1.9,4.6c1.5,0,1.7-1.6,1.7-2.1H116.3z"/>
		<path class="st1" d="M124.2,34.1c0,3.7-0.9,5.7-3.2,5.7c-2.2,0-3.2-1.9-3.2-5.7c0-3.7,1.1-5.5,3.2-5.5
			C123.2,28.7,124.2,30.5,124.2,34.1z M119,34.1c0,3.1,0.6,4.7,2,4.7c1.4,0,2-1.5,2-4.6c0-3.2-0.6-4.5-2-4.5
			C119.6,29.7,119,31.2,119,34.1z"/>
		<path class="st1" d="M125.6,39.7v-2.2h1.2v2.2H125.6z"/>
		<path class="st1" d="M127.9,41.5c0.5-1.3,0.8-2.7,0.9-3.9h1.1c-0.1,1.5-0.6,3-1.1,3.9H127.9z"/>
		<path class="st1" d="M131.8,28.8h1.2v9.8h3.9l-0.2,1.1h-4.9V28.8z"/>
		<path class="st1" d="M139,29.9h-2.4v-1.1h6v1.1h-2.4v9.8H139V29.9z"/>
		<path class="st1" d="M144.1,28.8h2.4c2.5,0,3.6,1.7,3.6,5.2c0,3.7-1,5.7-3.8,5.7h-2.2V28.8z M145.3,38.7h1c2,0,2.6-1.6,2.6-4.7
			c0-2.9-0.7-4.2-2.6-4.2h-1V38.7z"/>
		<path class="st1" d="M151.6,39.7v-2.2h1.2v2.2H151.6z"/>
	</g>
</g>
<g>
</g>
<g>
</g>
<g>
</g>
<g>
</g>
<g>
</g>
<g>
</g>
</svg>
