<?xml version="1.0" encoding="utf-8"?>
<!-- Generator: Adobe Illustrator 20.1.0, SVG Export Plug-In . SVG Version: 6.00 Build 0)  -->
<svg version="1.1" id="レイヤー_1" xmlns="http://www.w3.org/2000/svg" xmlns:xlink="http://www.w3.org/1999/xlink" x="0px"
	 y="0px" width="255.5px" height="22.8px" viewBox="0 0 255.5 22.8" style="enable-background:new 0 0 255.5 22.8;"
	 xml:space="preserve">
<style type="text/css">
	.st0{fill:#FFFFFF;}
</style>
<g>
	<g>
		<path class="st0" d="M138.8,5.7h0.5v13.7h-0.5V5.7z"/>
		<path class="st0" d="M149.2,9.6c-0.8,0-1.1,0-1.5,0.1l-0.2-0.5c0.8,0.1,1.7,0.1,2,0.1c0-1.4,0-1.9,0-2.2c0-0.3,0-0.5-0.1-0.8
			l1.4,0.3c0.1,0,0.2,0.1,0.2,0.2c0,0.2-0.3,0.4-0.5,0.5c0,0.3-0.1,0.8-0.1,2h0.2l0.4-0.6c0.1-0.1,0.1-0.2,0.2-0.2s0.2,0.1,0.2,0.1
			l0.4,0.5c0.1,0.1,0.1,0.2,0.1,0.3c0,0.1-0.1,0.1-0.2,0.1h-1.4c0,0.3,0,0.5,0,1.5c0.2,0.1,0.4,0.2,0.6,0.3c0.8,0.6,1,0.9,1,1.3
			s-0.4,0.7-0.6,0.7c-0.5,0-0.6-0.6-0.6-0.8c0-0.6-0.1-1-0.3-1.3c0,3.9,0,6.1,0,6.6c0,0.7-0.1,1-0.7,1c-0.6,0-0.5-0.9-0.5-1.5
			c0-0.9,0.1-2.2,0.2-4.9c-0.3,0.7-0.7,1.3-0.8,1.4c-0.8,1.2-1.3,1.7-1.6,1.9l-0.1-0.1c0.8-1.1,1.1-1.8,1.8-3.9
			c0.2-0.6,0.5-1.4,0.6-2.2H149.2z M153.8,12.3c-0.8,0-1.1,0-1.5,0.1l-0.2-0.5c0.8,0.1,1.8,0.1,1.9,0.1h1V9.7h-1.7
			c-0.4,0.8-1,1.4-1.6,2l-0.1-0.1c0.8-1.7,1-2.4,1.1-2.8c0.1-0.4,0.2-0.9,0.2-1.1c0-0.2,0-0.3,0-0.5l1.4,0.6c0.1,0,0.2,0.1,0.2,0.2
			c0,0.2-0.1,0.2-0.4,0.3c-0.1,0.2-0.2,0.3-0.6,1.1h1.5c0-0.4-0.1-1.9-0.1-2.2c0-0.2-0.1-0.6-0.3-0.9l1.6,0.3c0.1,0,0.2,0.1,0.2,0.2
			c0,0.2-0.3,0.4-0.4,0.5c0,0.4,0,0.8,0,2.1h1.1l0.5-0.7c0.1-0.1,0.1-0.2,0.2-0.2c0.1,0,0.2,0.1,0.2,0.1l0.8,0.7
			c0.1,0.1,0.1,0.1,0.1,0.2c0,0.1-0.1,0.1-0.2,0.1H156c0,0.6,0,1.7,0,2.3h1.7l0.7-0.7c0.1-0.1,0.2-0.2,0.2-0.2
			c0.1,0,0.2,0.1,0.3,0.1l0.9,0.7c0.1,0.1,0.1,0.1,0.1,0.2c0,0.1-0.1,0.1-0.2,0.1h-3.6c0.4,0.8,1.2,2,1.9,2.6
			c0.7,0.6,1.8,1.2,2.5,1.3v0.1c-0.3,0-1.2,0.4-1.6,1c-0.3-0.2-0.7-0.5-1.6-1.6c-0.6-0.8-0.9-1.7-1.3-3c0,1,0,2.1,0,3
			c0,0.4,0.1,2,0.1,2.3c0,0.6-0.4,0.8-0.8,0.8c-0.5,0-0.5-0.4-0.5-0.5c0-0.1,0.1-4.1,0.1-4.2v-0.8c-0.2,0.3-0.9,1.5-1.8,2.3
			c-0.5,0.5-1.4,1.2-2.1,1.6l0-0.1c0.4-0.3,2-2.3,2.4-2.9c0.2-0.3,0.3-0.5,1.1-2H153.8z"/>
		<path class="st0" d="M165.6,15.8c1.2-0.3,2.3-0.7,3.3-1.1l0,0.1c-1.5,1.1-3,1.9-6.4,3.2c-0.1,0.2-0.1,0.3-0.2,0.3
			c-0.1,0-0.2-0.1-0.3-0.3l-0.6-1.5c0.2,0,0.3,0.1,0.5,0.1c0.7,0,1.8-0.3,2.5-0.5v-3.8h-1c-0.8,0-1.1,0-1.5,0.1l-0.2-0.5
			c0.8,0.1,1.8,0.1,2,0.1h2.1l0.6-0.7c0.1-0.1,0.1-0.2,0.2-0.2s0.2,0.1,0.2,0.2l0.9,0.7c0.1,0.1,0.1,0.1,0.1,0.2
			c0,0.1-0.1,0.1-0.2,0.1h-2.1V15.8z M171.7,9.4l0.7-0.8c0.1-0.1,0.1-0.2,0.2-0.2s0.2,0.1,0.3,0.2l0.9,0.8c0.1,0.1,0.1,0.1,0.1,0.2
			c0,0.1-0.1,0.1-0.2,0.1H169c0.3,3.1,1.1,4.9,2.1,6.3c0.2,0.2,0.8,1,1.1,1c0.2,0,0.2,0,0.5-0.7c0.3-0.5,0.4-1,0.7-1.5l0.1,0
			c-0.1,0.8-0.1,1.7-0.1,2.4c0,0.2,0,0.3,0.2,0.5c0.2,0.3,0.3,0.3,0.3,0.5c0,0.3-0.2,0.5-0.7,0.5c-0.6,0-1.8-0.7-2.6-1.6
			c-1.5-1.9-2.1-4.1-2.6-7.4h-4.7c-0.8,0-1.1,0-1.5,0.1l-0.2-0.5c0.8,0.1,1.8,0.1,1.9,0.1h4.4c0-0.1-0.2-1.8-0.2-2.1
			c0-0.7-0.2-0.9-0.3-1.1l1.8,0.5c0.2,0.1,0.3,0.1,0.3,0.2c0,0.1-0.3,0.3-0.5,0.4c0,0.5,0,1.1,0.1,2.2H171.7z M169.6,6.8
			c0.4,0.1,0.9,0.2,1.3,0.4c0.5,0.3,0.6,0.7,0.6,1c0,0.2-0.1,0.7-0.6,0.7c-0.3,0-0.5-0.1-0.6-0.5c-0.3-0.8-0.4-0.9-0.8-1.4
			L169.6,6.8z"/>
		<path class="st0" d="M187,10.9c-0.5,0.2-1,0.6-1.4,1.2c-0.5-0.2-1.7-0.8-3-2.2c-0.6-0.7-1.3-1.5-1.9-2.7c-1,1.8-3.9,4.4-6.2,5.4
			l-0.1-0.1c2.5-1.8,4.2-4.3,4.9-5.6c0.2-0.4,0.3-0.6,0.3-0.9l1.5,0.5c0.1,0,0.2,0.1,0.2,0.2c0,0.2-0.3,0.3-0.5,0.3
			C181.8,8.5,184,10.4,187,10.9L187,10.9z M181.9,14.5c0.8,0.3,3.5,1.7,3.5,3.4c0,0.2-0.2,0.8-0.7,0.8c-0.4,0-0.7-0.2-0.9-0.9
			c-0.1-0.5-0.2-0.7-0.4-1c-1.2,0.4-5.7,1.4-6.8,1.6c-0.1,0.1-0.1,0.3-0.2,0.3c-0.2,0-0.2-0.2-0.3-0.3l-0.6-1.5
			c0.5,0.1,0.8,0.2,1.3,0.2c0.2,0,0.5,0,0.9,0c0.5-1.1,0.8-1.9,1-3h-2c-0.8,0-1.1,0-1.5,0.1l-0.2-0.5c0.8,0.1,1.8,0.1,2,0.1h6.5
			l0.8-0.8c0.1-0.1,0.2-0.2,0.2-0.2c0.1,0,0.2,0.1,0.3,0.1l1.1,0.8c0.1,0.1,0.1,0.1,0.1,0.2c0,0.1-0.1,0.2-0.2,0.2h-5.4
			c-0.6,1.1-1.8,2.4-2.3,2.9c3.4-0.3,4.1-0.3,5.1-0.5C182.7,15.6,182.1,14.9,181.9,14.5L181.9,14.5z M180.8,11.3l0.7-0.8
			c0.1-0.1,0.2-0.2,0.2-0.2c0.1,0,0.2,0.1,0.2,0.2l0.9,0.8c0.1,0.1,0.1,0.1,0.1,0.2c0,0.1-0.1,0.2-0.2,0.2h-3.6
			c-0.8,0-1.1,0-1.5,0.1l-0.2-0.5c0.8,0.1,1.8,0.1,1.9,0.1H180.8z"/>
		<path class="st0" d="M187.4,14.4c1.5-1.2,3.6-3.8,4.1-5.1h-2c-0.8,0-1.1,0-1.5,0.1L187.8,9c0.8,0.1,1.8,0.1,1.9,0.1h0.5
			c0-1.5-0.2-2.1-0.4-2.8l1.7,0.5c0.1,0,0.2,0.1,0.2,0.2c0,0.1-0.2,0.2-0.4,0.4c0,0.2,0,0.4,0,0.7c0,0.2,0,0.8,0,1h0.3l0.4-0.4
			c0.1-0.1,0.1-0.1,0.2-0.1c0.1,0,0.2,0.1,0.2,0.1l0.8,0.7c0,0,0.1,0.1,0.1,0.2c0,0.2-0.3,0.3-0.6,0.3c-0.3,0.4-0.7,1-1.3,1.7
			c0.7,0.2,2.1,1,2.1,1.9c0,0.2-0.2,0.6-0.6,0.6c-0.4,0-0.6-0.3-0.8-0.8c-0.1-0.2-0.5-1-0.9-1.5c0,0.7,0,3.5,0,4.1
			c0,0.6,0,1.3,0,1.4c0,0.1,0.1,0.5,0.1,0.7c0,0.3-0.4,0.6-0.8,0.6c-0.1,0-0.5,0-0.5-0.5c0-0.1,0.1-0.9,0.1-1c0-0.9,0-1.3,0.1-4.4
			C188.9,13.8,188,14.3,187.4,14.4L187.4,14.4z M194.8,11.3c-0.8,0-1.1,0-1.5,0.1l-0.2-0.5c0.8,0.1,1.8,0.1,1.9,0.1h0.6
			c0-1.2,0-1.3,0-2.6c0-0.9-0.1-1.3-0.5-2.1l1.6,0.4c0.3,0.1,0.4,0.2,0.4,0.3c0,0.2-0.2,0.3-0.4,0.4c0,0.1,0,0.2,0,0.4V11h1.1
			l0.6-0.8c0.1-0.1,0.1-0.2,0.2-0.2s0.2,0.1,0.2,0.1l0.9,0.8c0.1,0.1,0.1,0.1,0.1,0.2c0,0.1-0.1,0.2-0.2,0.2h-3v1.2
			c0,2.4,0,2.7,0,4.9h1.2l0.8-0.8c0.1-0.1,0.2-0.2,0.2-0.2c0.1,0,0.2,0.1,0.3,0.2l0.8,0.8c0.1,0.1,0.1,0.1,0.1,0.2
			c0,0.1-0.1,0.2-0.2,0.2H194c-0.8,0-1.1,0-1.5,0.1l-0.2-0.5c0.8,0.1,1.8,0.1,1.9,0.1h1.3v-2.5c0-2.2,0-2.5,0-3.6H194.8z"/>
		<path class="st0" d="M203.1,18c2.3-2.5,2.7-6,2.7-6.4c0-0.5-0.2-0.6-1-0.9c0.3-0.2,0.5-0.3,0.8-0.3c0.4,0,1.2,0.2,1.4,0.5
			c0.1,0.1,0.1,0.2,0.1,0.3c0.7-0.7,1.2-1.1,1.8-1.8c0.1-0.1,0.1-0.2,0.1-0.3c0-0.1,0-0.1-0.1-0.1c-0.1,0-4.2,0.4-5.5,0.9
			c-0.1,0-0.6,0.3-0.7,0.3c-0.2,0-0.7-0.4-0.8-0.5c-0.5-0.5-0.5-0.5-0.5-0.9c0-0.4,0.1-0.5,0.1-0.7c0.2,0.4,0.6,0.6,0.7,0.6
			c0.1,0.1,0.3,0.1,0.7,0.1c0.6,0,5.6-0.6,5.7-0.6c0.2,0,0.7-0.1,0.8-0.1c0.1,0,0.3-0.1,0.4-0.1c0.2,0,0.7,0.5,0.9,0.7
			c0.2,0.2,0.5,0.5,0.5,0.7c0,0.3-0.3,0.3-1.1,0.4c-1.1,0.7-2.4,1.5-3.1,1.9C206.1,15.2,205.4,17,203.1,18L203.1,18z"/>
		<path class="st0" d="M218.7,9.8c0,0.1-0.1,0.2-0.2,0.5c-0.1,0.1-0.2,0.7-0.2,1.5c1.7-0.2,3-0.3,3.6-0.4c0.2-0.1,0.3-0.1,0.5-0.1
			c0.4,0,1.3,0.3,1.3,0.8c0,0.3-0.3,0.4-0.6,0.4c-0.5,0-1.9-0.2-2.7-0.2c-0.7,0-1.4,0-2.2,0.1c0,0.7-0.1,1.4-0.1,2.1
			c0,0.9,0.1,1.3,1.1,1.3c1.4,0,1.7-0.3,2.1-0.3c0.2,0,1.1,0.2,1.1,0.7c0,0.6-0.7,0.6-2.1,0.6c-2.2,0-3.3,0-3.3-2.1
			c0-0.3,0-0.8,0.1-2.1c-1.7,0.3-2.3,0.6-2.7,0.8c-0.2,0.1-0.3,0.2-0.4,0.2c-0.2,0-0.9-0.4-1.2-0.8c-0.3-0.4-0.3-0.8-0.3-1.2
			c0.6,0.6,0.8,0.7,1.4,0.7c0.2,0,0.6-0.1,0.8-0.1c0.8-0.1,1.6-0.2,2.4-0.3c0-0.3,0-1.1,0-1.9c0-0.3-0.1-0.5-0.4-0.6
			c-0.5,0.1-1.1,0.3-1.3,0.3c-0.2,0-0.4-0.2-0.5-0.3c-0.4-0.4-0.5-0.8-0.5-1c0-0.1,0-0.1,0-0.2c0.5,0.3,0.8,0.5,1.4,0.5
			c0.4,0,3.6-0.3,4.2-0.6c0.2-0.1,0.5-0.2,0.6-0.2c0.4,0,1.2,0.2,1.2,0.8c0,0.4-0.3,0.4-0.5,0.4c-2.1,0-2.7,0.1-3.6,0.2
			C218.2,9.3,218.7,9.6,218.7,9.8z"/>
		<path class="st0" d="M225.3,16.9c2.2-2.2,2.5-4.5,2.5-6.4c0-0.5,0-1-0.4-1.1c-0.1,0-0.6-0.2-0.7-0.2c0.1-0.1,0.7-0.3,0.8-0.3
			c0.1,0,0.2,0,0.2,0c0.3,0,1.4,0.3,1.4,0.7c0,0.1-0.2,0.4-0.2,0.7c0,0.2-0.2,1.7-0.2,2C228.2,15.4,226.1,16.7,225.3,16.9
			L225.3,16.9z M236.3,10.8c-0.4,0.9-1.5,2.9-3.7,4.6c-0.9,0.7-1,0.8-1.4,1.1c-0.1,0.1-0.3,0.2-0.3,0.2c-0.1,0-0.2-0.1-0.5-0.5
			c-0.3-0.5-0.5-0.8-0.5-0.9c0-0.1,0.2-0.5,0.2-0.5c0.1-0.4,0.2-1.5,0.2-2.5c0-0.4,0-3.3-0.1-3.5c-0.1-0.3-0.5-0.5-1.1-0.7
			c0.3-0.2,0.6-0.3,0.9-0.3c0.5,0,1.2,0.3,1.4,0.5c0.1,0.1,0.1,0.2,0.1,0.3c0,0.1-0.2,0.7-0.2,0.8c-0.1,0.5-0.2,4.4-0.2,5.1
			c0,0.2,0,0.2,0.1,0.2c0.4,0,2.6-1.5,4.8-4.1L236.3,10.8z"/>
		<path class="st0" d="M239.7,17.6c2.7-1.5,5.2-4.7,6-8.1c-0.8,0-4.4,0.6-4.8,0.6c-0.1,0-0.7,0.2-1,0.3c-0.1,0.1-0.3,0.1-0.3,0.1
			c-0.2,0-1.2-0.5-1.2-1.7c0-0.2,0.1-0.4,0.1-0.6c0.1,0.1,0.1,0.2,0.5,0.5c0.3,0.4,0.6,0.4,0.9,0.4c1.1,0,5.1-0.4,5.5-0.5l0.5-0.3
			c0.1-0.1,0.2-0.1,0.3-0.1c0.1,0,0.1,0,0.2,0.1l0.7,0.7c0.1,0.1,0.3,0.3,0.3,0.5c0,0.2-0.2,0.4-0.7,0.6c-0.9,2.6-2,5-4.3,6.4
			c-1.2,0.7-2.2,1-2.6,1.1L239.7,17.6z"/>
		<path class="st0" d="M249.1,15.2c1.1-0.8,2-1.4,4.1-3.9c0.5-0.6,1-1.4,1-1.7c0-0.2-0.3-0.4-0.5-0.6c0.2,0,0.3,0,0.3,0
			c0.8,0,1.5,0.8,1.5,1.1c0,0.2-0.2,0.3-0.5,0.5c-0.6,0.7-1.2,1.3-1.7,1.8l0.4,0.3c0.1,0.1,0.2,0.1,0.2,0.3c0,0.2-0.1,0.5-0.1,1.2
			c0,0.4,0,2.3,0,2.8c0,0.4,0,1.4-0.5,1.4c-0.2,0-0.5-0.5-0.5-0.9c0,0,0.1-0.8,0.1-0.9c0.1-0.8,0.1-1.5,0.1-2.3c0-0.4,0-0.7,0-1
			c0-0.1-0.1-0.2-0.1-0.3C251.6,14.1,250.8,14.6,249.1,15.2L249.1,15.2z"/>
	</g>
	<g>
		<g>
			<path class="st0" d="M8.8,15.3c0,0.7,0.1,2.1,0.1,2.6H6.5c-0.1-0.3-0.1-0.9-0.1-1.3c-0.5,0.9-1.4,1.5-3,1.5c-2.5,0-3.4-2-3.4-3.8
				c0-2.6,1.8-4.2,5.1-4.2c0.5,0,0.8,0,1.2,0.1V8.6c0-0.8-0.2-1.8-1.6-1.8C3.2,6.8,3,7.8,3,8.6H0.5c0.1-1.9,0.9-3.9,4.3-3.9
				c2.7,0,4,1.3,4,3.7V15.3z M6.3,12.1C6,12,5.7,12,5.2,12c-1.9,0-2.6,0.9-2.6,2.1C2.6,15,3,16,4.3,16c1.6,0,2-1.2,2-3.4V12.1z"/>
			<path class="st0" d="M12.3,8.8c0-2.5,0-3.3,0-3.9h2.5c0.1,0.3,0.1,1,0.1,1.4c0.6-1.1,1.5-1.7,2.9-1.7c1.4,0,2.2,0.6,2.6,1.8
				c0.5-0.9,1.5-1.8,3.2-1.8c1.8,0,3.2,0.9,3.2,3.9v9.3h-2.6V9c0-1.1-0.4-2-1.5-2c-1.4,0-1.8,1.1-1.8,2.7v8.2h-2.6V9
				c0-1.3-0.4-2-1.5-2c-1.3,0-1.8,1-1.8,2.8v8.1h-2.6V8.8z"/>
			<path class="st0" d="M39.2,11.3c0,4.7-1.7,6.9-4.8,6.9s-4.7-2.1-4.7-6.8c0-4.5,1.9-6.6,4.8-6.6C37.6,4.7,39.2,7,39.2,11.3z
				 M32.4,11.4c0,3,0.6,4.6,2.1,4.6c1.5,0,2.1-1.6,2.1-4.6c0-3-0.6-4.4-2.1-4.4C33.1,7,32.4,8.3,32.4,11.4z"/>
			<path class="st0" d="M42.2,9.4c0-2.1,0-3.5,0-4.4h2.5c0,0.3,0.1,0.8,0.1,2.2c0.5-1.5,1.7-2.4,3.4-2.4v2.9c-2.1,0-3.3,0.9-3.3,3.3
				v7h-2.6V9.4z"/>
			<path class="st0" d="M50.7,22.6V8.7c0-1.8,0-2.9,0-3.8h2.5c0.1,0.3,0.1,1,0.1,1.5c0.4-0.9,1.2-1.8,3-1.8c2.4,0,3.8,2.1,3.8,6.5
				c0,4.9-1.7,6.9-4.2,6.9c-1.4,0-2.2-0.6-2.5-1.4v5.8H50.7z M55.3,7c-1.7,0-2.1,1.6-2.1,4.3c0,3,0.2,4.6,2,4.6
				c1.4,0,2.1-1.6,2.1-4.6C57.4,8.2,56.7,7,55.3,7z"/>
			<path class="st0" d="M65.7,0v6.3c0.5-0.9,1.4-1.6,3-1.6c2.1,0,3.3,1.3,3.3,4v9.2h-2.6V9.3C69.3,7.9,69,7,67.6,7
				c-1.5,0-1.9,1.2-1.9,3.1v7.9h-2.6V0H65.7z"/>
			<path class="st0" d="M76.9,5c1.1,4.6,2.1,8.2,2.2,9.8h0C79.4,13,80.4,9,81.4,5H84l-3.8,13.6c-1.1,4-2.4,4.3-4.2,4.3
				c-0.3,0-0.8,0-1.1-0.1v-2.2c0.2,0,0.6,0.1,0.9,0.1c1.2,0,1.6-0.7,2-2.4L74,5H76.9z"/>
		</g>
	</g>
	<g>
		<g>
			<path class="st0" d="M94.7,14.9c0,0.6-0.3,3.2-3,3.2c-2.9,0-3.1-3.1-3.1-5.7c0-3.2,0.8-5.5,3.2-5.5c2.6,0,2.8,2.4,2.8,3.1h-1.2
				c0-0.4-0.1-2-1.6-2c-1.7,0-2,2.3-2,4.4c0,2.3,0.3,4.6,1.9,4.6c1.5,0,1.7-1.6,1.7-2.1H94.7z"/>
			<path class="st0" d="M102.5,12.4c0,3.7-0.9,5.7-3.2,5.7c-2.2,0-3.2-1.9-3.2-5.7c0-3.7,1.1-5.5,3.2-5.5
				C101.6,6.9,102.5,8.7,102.5,12.4z M97.3,12.4c0,3.1,0.6,4.7,2,4.7c1.4,0,2-1.5,2-4.6c0-3.2-0.6-4.5-2-4.5
				C98,7.9,97.3,9.4,97.3,12.4z"/>
			<path class="st0" d="M104,17.9v-2.2h1.2v2.2H104z"/>
			<path class="st0" d="M106.3,19.7c0.5-1.3,0.8-2.7,0.9-3.9h1.1c-0.1,1.5-0.6,3-1.1,3.9H106.3z"/>
			<path class="st0" d="M110.2,7.1h1.2v9.8h3.9l-0.2,1.1h-4.9V7.1z"/>
			<path class="st0" d="M117.4,8.1H115V7.1h6v1.1h-2.4v9.8h-1.2V8.1z"/>
			<path class="st0" d="M122.5,7.1h2.4c2.5,0,3.6,1.7,3.6,5.2c0,3.7-1,5.7-3.8,5.7h-2.2V7.1z M123.7,16.9h1c2,0,2.6-1.6,2.6-4.7
				c0-2.9-0.7-4.2-2.6-4.2h-1V16.9z"/>
			<path class="st0" d="M129.9,17.9v-2.2h1.2v2.2H129.9z"/>
		</g>
	</g>
</g>
<g>
</g>
<g>
</g>
<g>
</g>
<g>
</g>
<g>
</g>
<g>
</g>
</svg>
