<?xml version="1.0" encoding="utf-8"?>
<!-- Generator: Adobe Illustrator 20.1.0, SVG Export Plug-In . SVG Version: 6.00 Build 0)  -->
<svg version="1.1" id="レイヤー_1" xmlns="http://www.w3.org/2000/svg" xmlns:xlink="http://www.w3.org/1999/xlink" x="0px"
	 y="0px" width="277.7px" height="128.7px" viewBox="0 0 277.7 128.7" style="enable-background:new 0 0 277.7 128.7;"
	 xml:space="preserve">
<style type="text/css">
	.st0{fill:#FFFFFF;}
	.st1{fill:#D7000E;}
</style>
<g>
	<path class="st0" d="M0.9,126.3c1.2,0,1.3-0.8,1.3-1.4v-9.7c0-1-0.4-1.4-1.3-1.4H0v-0.6h6.1v0.6H5.3c-0.9,0-1.3,0.4-1.3,1.4v9.7
		c0,1,0.4,1.4,1.3,1.4h0.9v0.6H0v-0.6H0.9z"/>
	<path class="st0" d="M24.5,113.2l1.3,3.5l-0.6,0.3c-0.5-0.9-1.7-3.2-3.8-3.2c-0.6,0-1.1,0.3-1.1,1v10.1c0,1,0.4,1.4,1.4,1.4h0.7
		v0.6h-6.1v-0.6h0.7c1,0,1.4-0.4,1.4-1.4v-10.1c0-0.7-0.5-1-1.1-1c-1,0-1.8,0.6-2.2,1c-0.7,0.6-1,1.2-1.6,2.2l-0.6-0.3l1.3-3.5H24.5
		z"/>
	<path class="st0" d="M40.3,126.3c2.9-1.1,5.9-3.1,5.9-6.9c0-2.1-1.2-3.8-2.7-4.4c-1-0.4-2-0.6-3-0.6c-0.5,0-0.6,0-0.8,0.1
		c1.3,0.5,1.6,1.3,1.6,1.6c0,0.2-0.1,0.5-0.4,1c-1.5,3.2-1.9,4.1-3.3,6.4c-0.5,0.8-1,1.3-1.3,1.4c-0.2,0.1-0.3,0.1-0.5,0.1
		c-0.4,0-0.6-0.3-1.2-1.1c-0.3-0.4-0.3-0.4-0.7-0.8c-0.6-0.5-0.8-1.5-0.8-2.2c0-3.9,3.4-7.3,8.1-7.3c4.1,0,6.9,2.5,6.9,5.9
		c0,3.7-3.2,6.3-7.6,6.7V126.3z M35.5,123.5c0.6,0,1.4-1.5,1.7-2.1c1.2-2.4,2.3-4.7,2.3-5.6c0-0.4-0.2-0.9-0.6-1.2
		c-1.9,0.4-4.6,2.9-4.6,6.2C34.3,121.8,34.8,123.5,35.5,123.5z"/>
	<path class="st0" d="M66.3,115.7l0.6-0.7c0.1-0.1,0.2-0.2,0.4-0.2c0.1,0,0.3,0.1,0.4,0.2l0.9,0.7c0.1,0.1,0.3,0.3,0.3,0.4
		c0,0.2-0.5,0.5-0.7,0.7c-0.1,7.1-0.3,9.7-2.6,11c-0.7,0.4-1,0.4-2.4,0.5c-0.1-0.3-0.1-0.5-0.7-1.2s-1-1-1.6-1.2l0.1-0.1
		c1.9,0.4,2.4,0.5,3,0.5c1.2,0,1.6-0.3,1.9-1c0.6-1.3,0.7-6.7,0.7-8.4c0-0.2,0-0.3,0-0.6h-4.9c-0.3,4.2-1.3,6.5-2.9,8.4
		c-0.7,0.8-2.9,3-5.7,3.6l-0.1-0.2c2.6-1.1,5-4.2,5.7-5.8c0.8-1.6,1.3-4.4,1.3-5.9h-4.1c-1.1,0-1.6,0-2,0.1l-0.3-0.7
		c1.2,0.1,2.5,0.1,2.7,0.1h3.8c0.1-2-0.1-3.4-0.5-4.7l2.5,0.8c0.1,0.1,0.4,0.1,0.4,0.3c0,0.2-0.5,0.5-0.7,0.7c0,0.4,0,0.8,0,1.4
		c0,0.7,0,1.1,0,1.5H66.3z"/>
	<path class="st0" d="M77.6,115.6c0.6,0,2.5-0.4,5.1-1.1c0.8-0.2,4.3-1,5-1.2c0.3-0.1,0.8-0.2,1.1-0.2c0.3,0,1.7,0.4,1.7,1.1
		c0,0.6-0.6,0.7-1.5,0.7c-0.1,0-1.2,0-1.3,0c-4.4,0-5.9,4.2-5.9,6.2c0,3,3.4,3.7,4.8,4c0.4,0.1,1.3,0.3,1.3,1.1
		c0,0.7-0.6,0.7-0.9,0.7c-1.9,0-6.2-1.4-6.2-5.5c0-1.6,0.6-3,1.5-4.3c0.5-0.7,0.8-0.9,2.4-2.2c-1.4-0.1-6.1,1.9-6.1,1.9
		c-0.8,0.4-0.9,0.5-1.3,0.5c-0.7,0-1.5-0.7-1.5-1.7c0-0.1,0-0.7,0.4-1.2C76.4,115.2,76.9,115.6,77.6,115.6z M86.4,116.8
		c1.4,0.5,2.9,1,2.9,2.2c0,0.3-0.1,0.7-0.6,0.7c-0.5,0-0.6-0.3-1-1c-0.2-0.5-0.9-1.3-1.3-1.8L86.4,116.8z M88.3,116.1
		c1,0.1,3.1,0.8,3.1,2c0,0.5-0.4,0.7-0.6,0.7c-0.5,0-0.7-0.5-0.8-0.7c-0.4-0.7-0.6-1.1-1.6-1.9V116.1z"/>
	<path class="st0" d="M97.4,122.9c1.3,0.3,2.3,0.6,3.5,1.5c0.1,0.1,1.3,1,1.3,2.1c0,0.5-0.2,1.3-1,1.3c-0.6,0-0.9-0.4-1.2-1.2
		c-0.8-2-1.9-2.9-2.6-3.4L97.4,122.9z"/>
	<path class="st0" d="M114.2,117.6c0,0.4,0.1,0.8-0.8,0.8c-0.5,0-0.5-0.3-0.5-0.6c0-0.3,0-1.6,0-1.8c0-0.1,0-0.2,0-0.3
		c-0.1,0.1-1.5,1.8-2.7,2.5l-0.1-0.1c1.1-1.5,2.2-3.8,2.2-4.6l1.2,0.7c0.1,0.1,0.3,0.2,0.3,0.3c0,0.1,0,0.1-0.3,0.3v0h4l0.4-0.3
		c0.1-0.1,0.3-0.2,0.4-0.2c0.1,0,0.2,0,0.3,0.1l0.6,0.6c0,0,0.2,0.2,0.2,0.3c0,0.2-0.3,0.4-0.5,0.5c-0.1,0.3-0.3,1.7-0.4,2
		c-0.4,1.1-0.9,1.3-1.6,1.3c0-0.2-0.2-0.8-0.5-1.2c-0.4,0.2-0.6,0.2-0.7,0.2c-0.4,0-0.4-0.2-0.4-0.5H114.2z M112.3,124.8
		c0.1,0.3,0.2,0.4,0.2,0.9c0,2-1.1,2.3-1.5,2.3c-0.5,0-0.8-0.4-0.8-0.8c0-0.4,0.2-0.6,1-1.2C111.7,125.6,112,125.1,112.3,124.8
		L112.3,124.8z M115.9,112.9c0-0.7,0-0.8-0.2-1.6l1.6,0.4c0.2,0.1,0.4,0.1,0.4,0.3c0,0.1-0.1,0.2-0.1,0.2c-0.1,0.1-0.2,0.1-0.3,0.3
		c0,0.2,0,0.2,0,0.4h0.6l0.4-0.6c0.1-0.1,0.2-0.2,0.3-0.2c0.1,0,0.3,0.1,0.3,0.2l0.6,0.6c0.1,0.1,0.2,0.2,0.2,0.3
		c0,0.2-0.2,0.2-0.3,0.2h-2.2c0,0.8,0,1.3-0.8,1.3c-0.1,0-0.4-0.1-0.5-0.4c0-0.1,0-0.2,0-0.9h-1c0,0.2,0,0.8-0.1,0.9
		c-0.2,0.2-0.6,0.2-0.7,0.2c-0.5,0-0.5-0.3-0.5-1.1h-0.9c-1.1,0-1.6,0-2,0.1l-0.3-0.7c1.2,0.1,2.5,0.1,2.7,0.1h0.5
		c0-0.4,0-0.6-0.2-1.6l1.5,0.5c0.2,0.1,0.4,0.1,0.4,0.3c0,0.1,0,0.1-0.1,0.2c-0.1,0.1-0.2,0.1-0.3,0.3c0,0.2,0,0.3,0,0.4H115.9z
		 M119.5,120.8h2.5l0.4-0.4c0.2-0.2,0.2-0.2,0.3-0.2c0.1,0,0.3,0.1,0.3,0.2l0.7,0.4c0,0,0.2,0.1,0.2,0.3c0,0.2-0.1,0.2-0.3,0.2h-4.1
		v1.1h2.5l0.4-0.5c0.2-0.2,0.2-0.2,0.3-0.2c0.1,0,0.2,0.1,0.4,0.2l0.7,0.5c0,0,0.2,0.1,0.2,0.3c0,0.2-0.2,0.2-0.3,0.2h-4.1v1.3h4.4
		l0.8-0.7c0.2-0.2,0.2-0.2,0.3-0.2c0.1,0,0.2,0.1,0.3,0.2l0.7,0.6c0.1,0.1,0.2,0.3,0.2,0.4s-0.1,0.2-0.3,0.4
		c-0.2,0.1-0.2,0.1-0.4,0.2c-0.2,0.3-0.2,0.4-0.7,1.7c-0.3,0.8-1.2,2-3,2c-0.1-0.9-0.4-1.1-1.2-2l0.1-0.1c-0.2-0.2-0.3-0.3-0.6-0.9
		c-0.1-0.3-0.4-0.6-0.6-0.9l0.1-0.1c0.9,0.1,1.2,0.1,1.5,0.4c0.3,0.2,0.6,0.6,0.6,0.9c0,0,0,0.5-0.5,0.7c0.4,0.1,1.3,0.1,1.3,0.1
		c0.4,0,0.6-0.1,0.9-0.8c0.2-0.3,0.4-0.8,0.5-1.5l0,0h-9.7c0,0.2,0,0.2-0.1,0.3v0c0.8,0.3,1.9,1,1.9,1.9c0,0.4-0.3,1-0.8,1
		c-0.4,0-0.9-0.3-0.9-1.1c0-0.1,0-0.6,0-0.7c0-0.4-0.1-0.7-0.2-1c-0.1,0.1-0.3,0.4-1,0.4c-0.5,0-0.5-0.4-0.5-0.6
		c0-0.2,0.1-2.5,0.1-3c0-0.9-0.1-2-0.2-3.3l1.8,0.9h7.7l0.5-0.6c0.2-0.2,0.2-0.2,0.3-0.2c0.1,0,0.1,0,0.4,0.2l0.8,0.6
		c0,0,0.2,0.1,0.2,0.3c0,0.2-0.1,0.2-0.3,0.2h-4.6V120.8z M115.3,116l0.4-0.3c0.1-0.1,0.2-0.2,0.3-0.2c0.1,0,0.1,0.1,0.2,0.1
		l0.5,0.4c0.2,0.2,0.3,0.2,0.3,0.4c0,0.1,0,0.1-0.2,0.4c0,0.1,0,0.7,0,0.8c0.4,0,0.5,0,0.6-0.1c0.4-0.3,0.4-1.6,0.4-2.3h-4.5
		c-0.1,0.1-0.2,0.2-0.3,0.4l1.1,0.4H115.3z M115.5,116.4h-1.3v0.7h1.3V116.4z M118,119.7h-3.5v1.1h3.5V119.7z M114.5,121.2v1.1h3.5
		v-1.1H114.5z M114.5,122.8v1.3h3.5v-1.3H114.5z M117,124.8c1.6,0.3,2.2,1.1,2.2,1.6c0,0.4-0.3,0.9-0.8,0.9c-0.4,0-0.7-0.4-0.7-0.6
		C117.4,125.8,117.4,125.8,117,124.8L117,124.8z M124.3,114.7c0,0,0.2,0.1,0.2,0.4c0,0.1,0,0.1-0.1,0.1c-0.1,0-0.2,0.1-0.4,0.1
		c-0.4,0.5-0.6,0.7-0.8,1c1.9,1.1,3.4,1.1,4.1,1.1v0.1c-0.1,0.1-0.3,0.1-0.8,0.7c-0.1,0.1-0.4,0.6-0.5,0.7c-1.5-0.1-3.2-1.8-3.4-2
		c-1.8,1.6-3.4,1.8-3.9,1.8l-0.1-0.1c1.2-0.7,2.4-1.5,3.3-2.6c-0.2-0.3-0.5-0.7-0.8-1.4c-0.7,0.9-1.3,1.3-1.6,1.6h-0.1
		c0.5-1,1.4-3,1.6-4.1c0,0,0.1-0.7,0.1-0.8l1.6,0.8c0.2,0.1,0.2,0.1,0.2,0.2c0,0.2-0.2,0.3-0.6,0.4c-0.2,0.4-0.3,0.7-0.5,1.1h3
		l0.5-0.7c0.1-0.1,0.2-0.2,0.3-0.2c0.1,0,0.1,0,0.4,0.2l0.8,0.7c0.1,0.1,0.2,0.2,0.2,0.3c0,0.2-0.2,0.2-0.3,0.2h-2.8L124.3,114.7z
		 M121.4,114.3c0,0.1-0.1,0.1-0.1,0.1c0.1,0.2,0.4,0.6,1,1.2c0.2-0.3,0.4-0.6,0.7-1.3H121.4z"/>
	<path class="st0" d="M138.1,114.3c-0.2-0.6-0.6-1.5-1.9-1.5c-0.1,0-0.2,0-0.4,0c0.1-0.3,0.3-1.1,1.7-1.1c0.7,0,1.3,0.2,1.5,0.4
		c0.2,0.2,0.2,0.4,0.2,0.8c0,0.4,0,1,0.3,1.8c0.5-0.3,0.7-0.4,1.1-0.7c0.7-0.5,0.7-0.5,1-0.5c0.5,0,0.9,0.3,0.9,0.6
		c0,0.3-0.2,0.5-0.8,0.8c-0.6,0.3-1.2,0.6-1.8,0.8c0.4,0.9,0.8,1.5,1,1.8c0.8-0.4,1.2-0.7,1.6-0.9c0.6-0.4,0.7-0.4,1-0.4
		c0.5,0,1,0.3,1,0.6c0,0.3-0.2,0.5-0.5,0.7c-0.5,0.3-1.4,0.7-2.3,1.1c0.4,0.5,1.4,1.7,2.3,2.7c0.7,0.8,0.7,1.2,0.7,1.4
		c0,0.3-0.2,1.5-0.8,1.5c-0.3,0-0.4-0.1-1.1-0.7c-0.7-0.6-3.6-1.3-5.2-1.3c-0.4,0-2.5,0-2.5,1.8c0,2.1,2.9,2.1,3.6,2.1
		c0.8,0,1.2-0.1,1.4-0.1c0.2,0,0.9-0.1,1-0.1c0.5,0,1.4,0.3,1.4,0.9c0,0.9-1,0.9-1.2,0.9c-1.3,0-3.5-0.1-4.7-0.4
		c-1.8-0.6-2.5-1.6-2.5-2.9c0-0.4,0.1-1.2,0.8-1.9c0.8-0.8,2.7-0.8,3.3-0.8c0.4,0,1.5,0,2.7,0.2c0.2,0,1.3,0.2,1.4,0.3
		c0.1,0,0.2,0,0.2-0.1s-0.1-0.3-0.2-0.5c-0.9-1.2-1-1.3-1.7-2.4c-1.7,0.5-3.5,0.8-4.1,0.8c-1.1,0-2-0.6-2.4-1.6
		c0.5,0.2,1.3,0.6,2.4,0.6c1.2,0,2.4-0.3,3.5-0.7c-0.2-0.3-0.5-0.8-1-1.9c-0.2,0.1-1.7,0.5-2.4,0.5c-0.3,0-1.9-0.1-2.2-1.4
		c0.7,0.3,1,0.4,1.7,0.4c1.1,0,1.9-0.2,2.4-0.4C138.4,115.1,138.4,115,138.1,114.3z"/>
	<path class="st0" d="M161.3,117c0.2-0.1,0.4-0.2,0.4-0.4c0-0.1-0.2-0.6-0.2-0.6c2,0.4,2,1.6,2,1.7c0,0.7-0.4,0.7-1.3,0.8
		c-2.8,0.3-8.1,2.6-8.1,5c0,0.4,0.2,0.9,0.7,1.4c0.7,0.6,2.3,0.6,2.9,0.6c1.6,0,3-0.2,4.3-0.4c0.5-0.1,0.6-0.1,0.9-0.1
		c0.2,0,1.4,0,1.4,1c0,0.5-0.5,0.7-0.7,0.7c-0.4,0.1-2.6,0.4-4,0.4c-0.7,0-3.6,0-5-1c-0.7-0.5-1.2-1.4-1.2-2.2
		c0-1.3,0.8-3.1,3.6-4.8c-0.4-0.6-0.8-1.4-0.8-2.3c0-2.7,0-3-0.3-3.6c-0.3-0.6-0.6-0.7-1.6-1c0.2-0.1,0.7-0.4,1.3-0.4
		c1,0,2,0.7,2.3,0.9c0.1,0.1,0.2,0.2,0.2,0.4c0,0.1,0,0.2-0.1,0.5c-0.2,0.5-0.5,1.2-0.5,2.8c0,0.4,0,1.5,0.3,2.2
		C159,117.9,159.2,117.8,161.3,117z"/>
	<path class="st0" d="M185.9,116.2c0.2,0.1,0.3,0.2,0.3,0.4s-0.2,0.2-0.5,0.3c-0.9,1.3-1.3,1.9-1.9,2.6c1,1.2,2.1,1.6,2.4,1.6
		c0.3,0,0.4-0.1,0.7-0.5c0.2-0.3,0.5-0.7,0.7-1.1h0.1c0,0.2,0.1,2.1,0.1,2.2c0,0.1,0.1,0.1,0.2,0.4c0.1,0.1,0.1,0.2,0.1,0.3
		c0,0.6-0.4,0.7-0.9,0.7c-0.5,0-0.8-0.1-1.2-0.3c-1.8-0.7-2.6-1.5-3.3-2.4c-0.9,0.8-2,1.5-3.6,2.1l-0.1-0.1c0.9-0.6,1.9-1.5,3-2.9
		c-0.9-1.4-1.4-3.7-1.6-5h-6c0,1.3,0,3.6-0.2,5.1c-0.2,1.5-1,3.3-3.1,5l-0.1-0.1c1.6-2,1.8-5.6,1.8-7.9c0-0.4,0-2.1-0.2-3.4l1.8,0.8
		h5.9c-0.1-0.3-0.3-1.8-0.3-2.1c-0.1-0.4-0.1-0.5-0.2-0.8l2,0.4c0.1,0,0.3,0.1,0.3,0.2s-0.2,0.3-0.5,0.5c0,0.5,0,1,0.1,1.8h3.1
		l0.8-1c0.1-0.1,0.2-0.2,0.3-0.2c0.1,0,0.3,0.1,0.3,0.2l1,1c0.1,0.1,0.2,0.2,0.2,0.3c0,0.2-0.2,0.2-0.3,0.2h-5.4
		c0.1,0.7,0.4,2.3,1.1,3.7c1.3-1.9,1.3-2.2,1.3-3L185.9,116.2z M174,123.9c0.1,0.4,0.4,1,0.4,1.9c0,1.2-0.6,2.1-1.5,2.1
		c-0.6,0-0.8-0.4-0.8-0.8c0-0.4,0.2-0.6,0.7-1.1c0.2-0.2,0.9-1,1.1-2.1H174z M178.2,116.2l0.5-0.5c0.1-0.1,0.2-0.2,0.3-0.2
		c0.1,0,0.2,0.1,0.3,0.2l0.6,0.5c0.1,0.1,0.2,0.2,0.2,0.3c0,0.2-0.2,0.2-0.3,0.2h-2.4c-1.1,0-1.6,0-2,0.1l-0.3-0.7
		c1.2,0.1,2.5,0.1,2.7,0.1H178.2z M178.5,118l0.4-0.5c0.1-0.1,0.2-0.1,0.3-0.1c0.1,0,0.2,0.1,0.3,0.1l0.6,0.5
		c0.1,0.1,0.2,0.2,0.2,0.4c0,0.2-0.2,0.3-0.4,0.4c0,0.4,0,2.3,0,2.4c0,0.4-0.6,0.6-1,0.6c-0.4,0-0.5-0.3-0.5-0.4v-0.2h-1.7v0.3
		c0,0.5-0.2,0.8-0.9,0.8c-0.5,0-0.6-0.3-0.6-0.7c0-0.2,0.1-1.6,0.1-2c0-0.7-0.1-1.5-0.2-2.2l1.6,0.6H178.5z M177.4,123.2
		c0.2,0.1,0.4,0.2,0.4,0.3c0,0.2-0.1,0.3-0.4,0.5c0,0.3,0,2.2,0,2.5c0,0.1,0.1,0.2,0.3,0.2c0.3,0,1.1,0.1,1.5,0.1
		c2.6,0,2.8-0.1,3.2-0.5c0.3-0.5,0.7-1.3,0.9-2.2h0.1c0.2,1.4,0.3,2,0.6,2.1c0.3,0.2,0.4,0.2,0.4,0.4c0,0.2-0.1,0.9-1.5,1.3
		c-0.4,0.1-0.7,0.2-4.5,0.2c-1.8,0-2.4-0.1-2.5-1.9c0-1.2,0-2.7-0.2-3.5L177.4,123.2z M176.8,118.5v2.3h1.8v-2.3H176.8z M179,122.8
		c2,0.6,2.7,1.2,2.7,1.9c0,0.2-0.1,1-0.8,1c-0.6,0-0.8-0.5-0.9-0.8c-0.5-1.4-0.8-1.6-1-1.9L179,122.8z M182.3,111.8
		c1.4-0.1,2.5,0.3,2.5,1.3c0,0.5-0.4,0.8-0.8,0.8c-0.4,0-0.6-0.3-0.9-0.9c-0.4-0.7-0.6-0.8-0.8-1L182.3,111.8z M184.5,123.6
		c3,0.7,3.4,2.1,3.4,2.7c0,0.3-0.2,0.9-0.9,0.9c-0.6,0-0.7-0.3-1-1c-0.5-1.1-0.8-1.6-1.6-2.4L184.5,123.6z"/>
	<path class="st0" d="M200.9,117l0.5-0.5c0.1-0.1,0.2-0.2,0.3-0.2c0.1,0,0.2,0.1,0.3,0.2l0.7,0.6c0.1,0.1,0.2,0.2,0.2,0.4
		c0,0.2-0.2,0.4-0.5,0.7c0,0.5,0,2.6,0,3.2c0,0.6-0.5,1-1,1c-0.3,0-0.4-0.3-0.4-0.5h-1.6v1.7h1l0.6-0.7c0.1-0.1,0.2-0.2,0.3-0.2
		c0.1,0,0.2,0.1,0.4,0.2l0.9,0.7c0.1,0.1,0.2,0.2,0.2,0.3c0,0.2-0.1,0.2-0.3,0.2h-3.1v1.6c2-0.3,2.7-0.4,3.4-0.5v0.1
		c-2,1.1-6.4,2.2-7.5,2.4c-0.1,0.3-0.2,0.5-0.4,0.5c-0.1,0-0.3-0.2-0.4-0.3l-0.9-1.8c0.3,0.1,0.5,0.1,0.9,0.1c0.4,0,0.8-0.1,1.3-0.1
		c0.4,0,1.9-0.2,2.1-0.3v-1.8h-1.6c-1.1,0-1.6,0-2,0.1l-0.3-0.7c1.2,0.1,2.5,0.1,2.7,0.1h1.3v-1.7h-1.7c0.1,0.8-0.6,1-1,1
		c-0.4,0-0.5-0.2-0.5-0.6c0-0.7,0.1-3.9,0.1-4.5c0-0.2-0.1-1-0.1-1.2c0-0.1,0-0.1-0.1-0.2l1.8,1h1.5v-1.4h-2c-1.1,0-1.6,0-2,0.1
		l-0.3-0.7c1.2,0.1,2.5,0.1,2.7,0.1h1.6v-1.4c-1,0.1-1.7,0.2-2.6,0.2c-0.6,0-1,0-1.4-0.1l0-0.1c1.6-0.3,4.6-1.2,6.1-1.7
		c0.4-0.2,0.8-0.4,1-0.6l1.1,1c0.1,0.1,0.3,0.3,0.3,0.5c0,0.2-0.5,0.2-0.9,0.1c-1,0.3-1.5,0.4-2.2,0.5v1.6h1.9l0.7-1
		c0.1-0.1,0.2-0.2,0.3-0.2c0.1,0,0.2,0.1,0.3,0.2l1.1,1c0.1,0.1,0.2,0.2,0.2,0.3c0,0.2-0.2,0.2-0.3,0.2h-4.2v1.4H200.9z M197.9,119
		v-1.6h-1.7v1.6H197.9z M197.9,121.2v-1.7h-1.7v1.7H197.9z M199.3,117.5v1.6h1.7v-1.6H199.3z M199.3,119.5v1.7h1.7v-1.7H199.3z
		 M206.5,116.9c0,3.3-0.7,5.6-1.4,7.1c-1.2,2.7-3.1,3.8-4.6,4.5l-0.1-0.1c2.8-1.9,4-5.5,4.2-7.4c0.2-1.2,0.2-1.5,0.3-4.1
		c-1.2,0-1.6,0.1-2,0.1l-0.3-0.7c0.8,0.1,0.9,0.1,2.3,0.1c0-1.4,0.1-3.7-0.4-5.3l2.2,0.8c0.2,0.1,0.3,0.1,0.3,0.3s-0.3,0.4-0.5,0.6
		c0,0.6,0,3-0.1,3.6h1.4l0.7-0.8c0.1-0.1,0.2-0.2,0.3-0.2c0.1,0,0.2,0.1,0.3,0.1l0.9,0.7c0.1,0.1,0.2,0.2,0.2,0.3
		c0,0.2-0.4,0.5-0.7,0.6c0,3.7-0.3,7.2-0.6,8.4c-0.6,1.9-1.6,2.6-3.1,2.7c-0.1-1.3-1.1-1.8-2-2.2l0.1-0.1c1,0.2,2.1,0.2,2.2,0.2
		c0.8,0,1.1-0.1,1.4-1.2c0.3-1,0.6-3.3,0.6-8.3H206.5z"/>
	<path class="st0" d="M221.8,113.3c0.1-0.1,0.1-0.3,0.1-0.4c0-0.3-0.7-0.7-1.4-0.7c0.2-0.2,0.7-0.6,1.4-0.6c0.9,0,1.8,0.7,1.8,1.2
		c0,0.3-0.2,0.5-0.4,0.7c-0.4,0.5-0.5,0.5-0.9,1.2c1.3-0.5,1.5-0.5,1.9-0.7c0.4-0.1,0.5-0.1,0.7-0.1c0.4,0,1,0.3,1,0.7
		c0,0.4-0.3,0.5-0.6,0.6c-1.4,0.5-2.7,0.7-3.9,0.8c-0.6,0.9-1.9,2.5-2,2.9c0.5-0.1,1.2-0.4,2.1-0.4c1.6,0,1.9,1.2,2.1,1.7
		c0.4-0.2,1.6-0.9,3.3-1.8c0.4-0.2,0.5-0.4,0.5-0.6c0-0.3-0.2-0.4-0.6-0.7c0.2-0.1,0.4-0.1,0.5-0.1c1,0,2.4,0.7,2.4,1.7
		c0,0.5-0.2,0.6-0.9,0.7c-1.9,0.4-2.9,0.7-5,1.6c0.1,0.3,0.1,1,0.1,1.9c0,1.1-0.1,1.9-0.7,1.9c-0.8,0-0.8-1.2-0.8-2c0-0.7,0-0.8,0-1
		c-0.8,0.5-2.5,1.8-2.5,2.8c0,0.3,0.1,0.6,0.6,1c0.5,0.4,1.6,0.5,2.4,0.5c0.9,0,2-0.1,2.9-0.3c0.3-0.1,0.4-0.1,0.7-0.1
		c0.9,0,1.2,0.6,1.2,1c0,0.5-0.5,0.7-0.6,0.7c-0.3,0.1-2.1,0.2-2.8,0.2c-1,0-3.3-0.1-4.3-0.9c-0.5-0.4-0.8-1-0.8-1.5
		c0-0.1,0-1,0.7-1.8c0.7-0.9,1.7-1.7,2.7-2.4c-0.1-1-0.4-1.9-1.5-1.9s-1.9,1.1-2.3,1.7c-0.4,0.7-0.7,1.5-1.3,1.5
		c-0.5,0-0.6-0.2-0.6-0.8c0-0.3,0-1,0.4-1.3c1.1-1,1.9-1.8,3.1-3.9c-0.6,0.1-1.1,0.1-1.4,0.1c-1.7,0-1.9-1.3-1.9-1.5
		c0-0.1,0-0.2,0.1-0.3c0.5,0.7,1.2,0.8,2,0.8c0.4,0,0.8,0,2-0.2C221.3,114.3,221.5,113.8,221.8,113.3z"/>
	<path class="st0" d="M263.1,120.7v0.8h-27.4v-0.8H263.1z"/>
	<path class="st0" d="M272.2,125c0-1.6,1.2-2.8,2.7-2.8c1.5,0,2.8,1.2,2.8,2.8c0,1.6-1.2,2.8-2.8,2.8
		C273.5,127.7,272.2,126.5,272.2,125z M277.1,125c0-1.2-0.9-2.1-2.1-2.1c-1.2,0-2.1,0.9-2.1,2.1c0,1.2,0.9,2.1,2.1,2.1
		C276.1,127,277.1,126.1,277.1,125z"/>
</g>
<g>
	<g>
		<polygon class="st1" points="144.2,68.6 144.2,72.1 138.9,76.7 133.5,72.1 133.5,68.6 138.9,73.2 		"/>
		<polygon class="st1" points="144.2,61.8 144.2,65.3 138.9,69.8 133.5,65.3 133.5,61.8 138.9,66.4 		"/>
	</g>
</g>
<g>
	<g>
		<g>
			<path class="st0" d="M66.7,19.5c0,0.9,0.1,2.7,0.1,3.4h-3c-0.1-0.4-0.2-1.1-0.2-1.6c-0.6,1.1-1.8,1.9-3.8,1.9
				c-3.1,0-4.4-2.5-4.4-4.8c0-3.3,2.2-5.4,6.5-5.4c0.6,0,1.1,0,1.5,0.1v-2c0-1.1-0.2-2.3-2-2.3c-1.9,0-2.1,1.3-2.2,2.3h-3.1
				C56.2,8.6,57.3,6,61.5,6c3.4,0,5.1,1.6,5.1,4.7V19.5z M63.5,15.4c-0.4-0.1-0.8-0.1-1.4-0.1c-2.4,0-3.3,1.2-3.3,2.7
				c0,1.2,0.6,2.4,2.1,2.4c2.1,0,2.6-1.5,2.6-4.3V15.4z"/>
			<path class="st0" d="M71.1,11.3c0-3.1,0-4.2,0-4.9h3.2c0.1,0.4,0.1,1.2,0.1,1.8C75,6.8,76.2,6,78,6c1.8,0,2.9,0.8,3.4,2.3
				C82,7.2,83.2,6,85.4,6c2.2,0,4.1,1.1,4.1,4.9v11.9h-3.3V11.5c0-1.4-0.4-2.6-2-2.6c-1.7,0-2.3,1.4-2.3,3.5v10.4h-3.3V11.5
				c0-1.7-0.5-2.6-1.9-2.6c-1.7,0-2.3,1.3-2.3,3.6v10.3h-3.3V11.3z"/>
			<path class="st0" d="M105.3,14.4c0,5.9-2.1,8.7-6.1,8.7c-3.9,0-6-2.7-6-8.7c0-5.8,2.4-8.4,6.2-8.4C103.3,6,105.3,8.9,105.3,14.4z
				 M96.6,14.5c0,3.9,0.8,5.8,2.7,5.8c1.9,0,2.6-2,2.6-5.8c0-3.9-0.8-5.7-2.6-5.7C97.5,8.9,96.6,10.6,96.6,14.5z"/>
			<path class="st0" d="M109.1,11.9c0-2.7,0-4.4,0-5.6h3.2c0,0.3,0.1,1.1,0.1,2.8c0.6-1.9,2.2-3,4.3-3v3.7c-2.7,0-4.2,1.1-4.2,4.2
				v8.9h-3.3V11.9z"/>
			<path class="st0" d="M119.8,28.8V11.1c0-2.2,0-3.8,0-4.8h3.2c0.1,0.4,0.1,1.3,0.1,2c0.5-1.2,1.6-2.2,3.8-2.2
				c3.1,0,4.8,2.7,4.8,8.3c0,6.3-2.1,8.8-5.3,8.8c-1.8,0-2.8-0.8-3.2-1.7v7.4H119.8z M125.7,8.9c-2.1,0-2.6,2-2.6,5.5
				c0,3.8,0.3,5.9,2.6,5.9c1.8,0,2.7-2.1,2.7-5.8C128.3,10.5,127.5,8.9,125.7,8.9z"/>
			<path class="st0" d="M138.8,0v8.1c0.6-1.2,1.7-2,3.8-2c2.6,0,4.1,1.7,4.1,5.1v11.7h-3.3v-11c0-1.8-0.4-2.9-2.2-2.9
				c-1.9,0-2.4,1.5-2.4,3.9v10h-3.3V0H138.8z"/>
			<path class="st0" d="M153,6.3c1.4,5.8,2.6,10.5,2.8,12.4h0c0.4-2.2,1.6-7.3,2.9-12.4h3.4l-4.8,17.3c-1.4,5-3,5.5-5.3,5.5
				c-0.4,0-1,0-1.4-0.1v-2.8c0.2,0,0.8,0.1,1.2,0.1c1.5,0,2-0.9,2.5-3.1l-4.9-16.8H153z"/>
		</g>
	</g>
	<g>
		<g>
			<path class="st0" d="M176.1,19c-0.1,0.8-0.4,4-3.8,4c-3.7,0-4-3.9-4-7.2c0-4,1.1-7,4.1-7c3.3,0,3.5,3.1,3.6,4h-1.5
				c0-0.5-0.1-2.6-2.1-2.6c-2.2,0-2.5,3-2.5,5.7c0,2.9,0.3,5.9,2.4,5.9c1.9,0,2.1-2,2.2-2.7H176.1z"/>
			<path class="st0" d="M186,15.8c0,4.7-1.1,7.3-4.1,7.3c-2.9,0-4-2.4-4-7.2c0-4.7,1.4-7,4.1-7C184.8,8.8,186,11.1,186,15.8z
				 M179.4,15.8c0,4,0.8,5.9,2.5,5.9c1.8,0,2.5-1.9,2.5-5.9c0-4-0.8-5.7-2.5-5.7C180.3,10.1,179.4,12,179.4,15.8z"/>
			<path class="st0" d="M187.9,22.8V20h1.5v2.8H187.9z"/>
			<path class="st0" d="M190.8,25.1c0.6-1.6,1-3.4,1.1-4.9h1.4c-0.1,1.9-0.7,3.8-1.3,4.9H190.8z"/>
			<path class="st0" d="M195.7,9h1.5v12.5h4.9l-0.2,1.3h-6.3V9z"/>
			<path class="st0" d="M204.9,10.3h-3.1V9h7.7v1.3h-3.1v12.5h-1.5V10.3z"/>
			<path class="st0" d="M211.3,9h3.1c3.2,0,4.6,2.2,4.6,6.6c0,4.7-1.3,7.3-4.9,7.3h-2.9V9z M212.9,21.5h1.3c2.5,0,3.3-2,3.3-5.9
				c0-3.7-0.9-5.3-3.3-5.3h-1.3V21.5z"/>
			<path class="st0" d="M220.8,22.8V20h1.5v2.8H220.8z"/>
		</g>
	</g>
</g>
<g>
</g>
<g>
</g>
<g>
</g>
<g>
</g>
<g>
</g>
<g>
</g>
</svg>
