<?xml version="1.0" encoding="utf-8"?>
<!-- Generator: Adobe Illustrator 20.1.0, SVG Export Plug-In . SVG Version: 6.00 Build 0)  -->
<svg version="1.1" id="レイヤー_1" xmlns="http://www.w3.org/2000/svg" xmlns:xlink="http://www.w3.org/1999/xlink" x="0px"
	 y="0px" width="360px" height="54px" viewBox="0 0 360 54" style="enable-background:new 0 0 360 54;" xml:space="preserve">
<style type="text/css">
	.st0{fill-rule:evenodd;clip-rule:evenodd;}
	.st1{fill:#FFFFFF;}
</style>
<polygon class="st0" points="360,0 358.7,0 280.1,0 0,54 39.4,54 78.6,54 118,54 360,54 "/>
<g>
	<g>
		<g>
			<g>
				<path class="st1" d="M273.8,22.7h2.9c1.7,0,2.9,1.1,2.9,3.1c0,2-1.1,3.2-3.1,3.2h-1.4v4.6h-1.3V22.7z M275.2,27.9h1.2
					c1.2,0,1.9-0.7,1.9-2c0-1.2-0.6-1.9-1.8-1.9h-1.4V27.9z"/>
				<path class="st1" d="M282.1,30.3l-0.8,3.3H280l2.6-10.9h1.7l2.7,10.9h-1.4l-0.8-3.3H282.1z M284.6,29.1c-0.6-2.5-1-4.2-1.1-5.1
					h0c-0.1,0.9-0.6,2.8-1.1,5.1H284.6z"/>
				<path class="st1" d="M294.2,33.6h-1c0-0.3-0.1-0.6-0.1-1.1c-0.4,0.8-1,1.3-2.2,1.3c-2.3,0-3-2.3-3-5.6c0-3.8,1.2-5.6,3.4-5.6
					c2.7,0,2.8,2.4,2.9,3h-1.3c0-0.4-0.1-1.8-1.6-1.8s-2,1.8-2,4.4c0,2.7,0.4,4.4,1.9,4.4c1.4,0,1.7-1.2,1.7-3.3v-0.5h-1.8v-1.2h3.1
					V33.6z"/>
				<path class="st1" d="M301.3,28.5h-3.6v4h4l-0.2,1.2h-5.1V22.7h5.1v1.2h-3.8v3.4h3.6V28.5z"/>
				<path class="st1" d="M305.1,23.9h-2.4v-1.2h6.1v1.2h-2.4v9.7h-1.3V23.9z"/>
				<path class="st1" d="M316.2,28.1c0,3.7-0.9,5.7-3.3,5.7c-2.3,0-3.2-1.9-3.2-5.7c0-3.7,1.1-5.5,3.3-5.5
					C315.3,22.6,316.2,24.4,316.2,28.1z M311.1,28.1c0,3,0.6,4.6,1.9,4.6c1.4,0,1.9-1.5,1.9-4.5c0-3-0.6-4.3-1.9-4.3
					C311.7,23.8,311.1,25.2,311.1,28.1z"/>
				<path class="st1" d="M318.2,22.7h2.9c1.7,0,2.9,1.1,2.9,3.1c0,2-1.1,3.2-3.1,3.2h-1.4v4.6h-1.3V22.7z M319.5,27.9h1.2
					c1.2,0,1.9-0.7,1.9-2c0-1.2-0.6-1.9-1.8-1.9h-1.4V27.9z"/>
			</g>
		</g>
	</g>
</g>
<g>
	<g>
		<polygon class="st1" points="330.4,28.6 330.4,26.4 333.7,23.6 337,26.4 337,28.6 333.7,25.7 		"/>
		<polygon class="st1" points="330.4,32.8 330.4,30.6 333.7,27.8 337,30.6 337,32.8 333.7,29.9 		"/>
	</g>
</g>
<g>
</g>
<g>
</g>
<g>
</g>
<g>
</g>
<g>
</g>
<g>
</g>
</svg>
