<?xml version="1.0" encoding="utf-8"?>
<!-- Generator: Adobe Illustrator 20.1.0, SVG Export Plug-In . SVG Version: 6.00 Build 0)  -->
<svg version="1.1" id="レイヤー_1" xmlns="http://www.w3.org/2000/svg" xmlns:xlink="http://www.w3.org/1999/xlink" x="0px"
	 y="0px" width="34.8px" height="26px" viewBox="0 0 34.8 26" style="enable-background:new 0 0 34.8 26;" xml:space="preserve">
<style type="text/css">
	.st0{fill:#FFFFFF;}
</style>
<g>
	<g>
		<path class="st0" d="M28.5,22.9c0,0,0.3,1.9-0.9,2.5c-1.2,0.6-3.1,0.2-3.1,0.2s1.4-0.6,1.5-1c0.2-0.3-0.1-0.7,0.2-1.4
			c0.2-0.4,1.1-0.8,1.1-0.8L28.5,22.9z"/>
		<path class="st0" d="M34.8,0.2c0,0-0.2,1.3-0.6,3.6c-0.2,1.1-0.4,2.4-0.7,3.7c-0.3,1.4-0.6,2.9-0.9,4.3c-0.3,1.5-0.5,3-0.9,4.4
			s-0.9,2.5-1.5,3.6c-0.5,1-0.9,1.4-1.5,2.4l-1.2-0.3c0.1-1.2-0.1-1.7,0-2.8c0.1-1.2,0.3-2.5,0.7-3.8c0.4-1.4,1.1-2.7,1.7-4.2
			s1.1-2.9,1.6-4.2s1-2.4,1.4-3.4c1-2.3,1.6-3.5,1.6-3.5L34.8,0.2z"/>
		<path class="st0" d="M4.7,2.7c-13.7,9.1,6.5,27,11.9,22.6c1.7-1.4-2.4-1.7-1.8-3.7c0.8-2.6,4.8,1.8,8.5-2.1
			C29.7,12.7,15.1-4.1,4.7,2.7z M4.5,5.6C5.4,5.6,6,6.3,6,7.1C6,8,5.3,8.6,4.5,8.6S3,7.9,3,7.1S3.7,5.6,4.5,5.6z M4.5,14
			c-1,0-1.7-0.8-1.7-1.7s0.8-1.7,1.7-1.7s1.7,0.8,1.7,1.7C6.2,13.1,5.5,14,4.5,14z M9.4,7C8.5,7,7.7,6.3,7.7,5.3s0.8-1.7,1.7-1.7
			s1.7,0.8,1.7,1.7S10.4,7,9.4,7z M14.8,8.8c-0.9,0-1.7-0.8-1.7-1.7s0.8-1.7,1.7-1.7s1.7,0.8,1.7,1.7S15.7,8.8,14.8,8.8z M19.3,13.1
			c-0.8,0-1.4-0.7-1.4-1.4s0.7-1.4,1.4-1.4c0.8,0,1.4,0.7,1.4,1.4C20.7,12.4,20.1,13.1,19.3,13.1z"/>
	</g>
</g>
</svg>
