<?xml version="1.0" encoding="utf-8"?>
<!-- Generator: Adobe Illustrator 20.1.0, SVG Export Plug-In . SVG Version: 6.00 Build 0)  -->
<svg version="1.1" id="レイヤー_1" xmlns="http://www.w3.org/2000/svg" xmlns:xlink="http://www.w3.org/1999/xlink" x="0px"
	 y="0px" width="36.2px" height="26px" viewBox="0 0 36.2 26" style="enable-background:new 0 0 36.2 26;" xml:space="preserve">
<style type="text/css">
	.st0{fill:#FFFFFF;}
</style>
<g>
	<path class="st0" d="M36.1,18c-0.2-0.6-0.4-1.2-0.8-1.7l-1.5,0.2c-0.3-0.3-0.6-0.6-0.9-0.9l0.1-1.5c-0.5-0.3-1.1-0.5-1.7-0.7
		l-0.9,1.2c-0.4,0-0.8,0-1.2,0l-1-1.2c-0.6,0.2-1.2,0.4-1.7,0.8l0.2,1.5c-0.3,0.3-0.6,0.6-0.9,0.9l-1.5-0.1
		c-0.3,0.5-0.5,1.1-0.7,1.7l1.2,0.9c0,0.4,0,0.8,0,1.2l-1.2,1c0.2,0.6,0.4,1.2,0.8,1.7l1.6,0c0.3,0.3,0.6,0.6,0.9,0.9l-0.1,1.5
		c0.5,0.3,1.1,0.5,1.7,0.7l0.9-1.2c0.4,0,0.8,0,1.2,0l1,1.2c0.6-0.2,1.2-0.4,1.7-0.8l-0.2-1.5c0.3-0.3,0.6-0.6,0.9-0.9l1.5,0.1
		c0.3-0.5,0.5-1.1,0.7-1.7l-1.2-1c0-0.4,0-0.8,0-1.2L36.1,18z M31.1,22.3c-1.4,0.6-3,0-3.6-1.4s0-3,1.4-3.6s3,0,3.6,1.4
		C33.1,20,32.4,21.7,31.1,22.3z"/>
	<path class="st0" d="M25.4,14.7c0.2-1.2,0.2-2.4,0-3.7l-2.9-0.8c-0.2-0.8-0.5-1.6-1-2.3L23,5.3c-0.7-1-1.6-1.9-2.6-2.6L17.8,4
		c-0.7-0.4-1.5-0.7-2.3-1l-0.8-2.9c-1.2-0.2-2.4-0.2-3.7,0L10.1,3C9.3,3.3,8.5,3.6,7.8,4L5.2,2.5c-1,0.7-1.9,1.6-2.6,2.6L4,7.8
		c-0.4,0.7-0.7,1.5-1,2.3l-2.9,0.8c-0.2,1.2-0.2,2.4,0,3.7L3,15.5c0.2,0.8,0.5,1.6,1,2.3l-1.5,2.6c0.7,1,1.6,1.9,2.6,2.6l2.6-1.5
		c0.7,0.4,1.5,0.7,2.3,1l0.8,2.9c1.2,0.2,2.4,0.2,3.7,0l0.8-2.9c0.8-0.2,1.6-0.5,2.3-1l2.6,1.5c1-0.7,1.9-1.6,2.6-2.6l-1.5-2.6
		c0.4-0.7,0.7-1.5,1-2.3L25.4,14.7z M12.8,18.3c-3,0-5.5-2.5-5.5-5.5s2.5-5.5,5.5-5.5s5.5,2.5,5.5,5.5S15.8,18.3,12.8,18.3z"/>
	<path class="st0" d="M16.4,12.8c0,2-1.6,3.7-3.7,3.7S9,14.9,9,12.8s1.6-3.7,3.7-3.7S16.4,10.8,16.4,12.8z"/>
</g>
</svg>
