<?xml version="1.0" encoding="utf-8"?>
<!-- Generator: Adobe Illustrator 20.1.0, SVG Export Plug-In . SVG Version: 6.00 Build 0)  -->
<svg version="1.1" id="レイヤー_1" xmlns="http://www.w3.org/2000/svg" xmlns:xlink="http://www.w3.org/1999/xlink" x="0px"
	 y="0px" width="14.5px" height="26px" viewBox="0 0 14.5 26" style="enable-background:new 0 0 14.5 26;" xml:space="preserve">
<style type="text/css">
	.st0{fill:#FFFFFF;}
</style>
<g transform="matrix( 1, 0, 0, 1, 71.9,89.4) ">
	<g transform="matrix( 1, 0, 0, 1, 0,0) ">
		<g>
			<g id="a">
				<path class="st0" d="M-62.7-64.6h-3.9c0.3,0.7,0.9,1.1,1.9,1.2C-63.6-63.4-63-63.8-62.7-64.6 M-67.4-66.2
					c-0.2,0-0.3,0.2-0.3,0.5s0.1,0.4,0.3,0.4h5.5c0.2-0.1,0.3-0.2,0.3-0.5s-0.1-0.4-0.3-0.5L-67.4-66.2 M-67.7-67.2
					c0,0.3,0.1,0.4,0.3,0.4h5.5c0.2-0.1,0.3-0.2,0.3-0.5s-0.1-0.4-0.3-0.5h-5.4C-67.6-67.7-67.7-67.5-67.7-67.2 M-67.7-68.8
					c0,0.3,0.1,0.4,0.3,0.4h5.5c0.2-0.1,0.3-0.2,0.3-0.5s-0.1-0.4-0.3-0.5h-5.4C-67.6-69.3-67.7-69.1-67.7-68.8 M-64.6-89.4
					c-2.1,0.1-3.9,0.8-5.4,2.3c-1.4,1.4-2,3.1-1.9,5.2c0.1,1.2,0.4,2.3,0.9,3.4c1.1,2.1,1.8,3.6,2,4.5c0.2,0.8,0.4,1.4,0.5,1.9
					c0.1,0.4,0.2,0.9,0.4,1.5c0.1,0.6,0.5,0.9,1,0.9h5c0.5,0,0.8-0.3,1-0.9s0.3-1.1,0.4-1.5c0.1-0.4,0.2-1.1,0.5-1.9
					c0.3-0.9,0.9-2.4,2-4.5c0.5-1,0.8-2.1,0.9-3.4c0.1-2-0.5-3.7-1.9-5.2C-60.8-88.6-62.6-89.3-64.6-89.4z"/>
			</g>
		</g>
	</g>
</g>
</svg>
