<?xml version="1.0" encoding="utf-8"?>
<!-- Generator: Adobe Illustrator 20.1.0, SVG Export Plug-In . SVG Version: 6.00 Build 0)  -->
<svg version="1.1" id="レイヤー_1" xmlns="http://www.w3.org/2000/svg" xmlns:xlink="http://www.w3.org/1999/xlink" x="0px"
	 y="0px" width="37.2px" height="26px" viewBox="0 0 37.2 26" style="enable-background:new 0 0 37.2 26;" xml:space="preserve">
<style type="text/css">
	.st0{fill:#FFFFFF;}
</style>
<g>
	<path class="st0" d="M32.6,0C30.1,0,28,2.1,28,4.6c0,1.5,0.7,2.8,1.7,3.6l-4.2,5.4c-0.4-0.1-0.8-0.2-1.1-0.2
		c-0.6,0-1.1,0.1-1.6,0.3l-5.3-3.5c0.4-0.7,0.7-1.5,0.7-2.3c0-2.5-2.1-4.6-4.6-4.6S9,5.4,9,7.9c0,1.3,0.6,2.6,1.5,3.4l-4.2,5.8
		c-0.5-0.2-1.1-0.3-1.7-0.3c-2.5,0-4.6,2.1-4.6,4.6S2.1,26,4.6,26s4.6-2.1,4.6-4.6c0-1-0.4-2-0.9-2.8l4.5-6.2c0.3,0,0.6,0.1,0.9,0.1
		c0.8,0,1.5-0.2,2.1-0.5l5,3.3c-0.6,0.8-0.9,1.7-0.9,2.7c0,2.5,2.1,4.6,4.6,4.6S29,20.5,29,18c0-1.2-0.5-2.4-1.3-3.2l4.5-5.7
		c0.2,0,0.3,0,0.4,0c2.5,0,4.6-2.1,4.6-4.6S35.2,0,32.6,0z M4.6,23.5c-1.2,0-2.2-1-2.2-2.2s1-2.2,2.2-2.2c0.4,0,0.8,0.1,1.1,0.3
		c0,0.1,0.1,0.1,0.2,0.2c0,0,0.1,0.1,0.2,0.1c0.4,0.4,0.7,0.9,0.7,1.5C6.7,22.6,5.8,23.5,4.6,23.5z M11.4,7.9c0-1.2,1-2.2,2.2-2.2
		s2.2,1,2.2,2.2s-1,2.2-2.2,2.2S11.4,9.1,11.4,7.9z M24.4,20.2c-1.2,0-2.2-1-2.2-2.2s1-2.2,2.2-2.2s2.2,1,2.2,2.2
		C26.5,19.2,25.6,20.2,24.4,20.2z M32.6,6.7c-1.2,0-2.2-1-2.2-2.2s1-2.2,2.2-2.2s2.2,1,2.2,2.2S33.8,6.7,32.6,6.7z"/>
</g>
</svg>
